<?xml version="1.0" standalone="no"?>
<!DOCTYPE svg PUBLIC "-//W3C//DTD SVG 1.1//EN" "http://www.w3.org/Graphics/SVG/1.1/DTD/svg11.dtd" >
<svg xmlns="http://www.w3.org/2000/svg" xmlns:xlink="http://www.w3.org/1999/xlink" version="1.1">
<metadata>
Created by FontForge 20150824 at Mon Jan 18 06:53:07 2016
 By Everything Fonts
(c) 2014 Sergiy S. Tkachenko / 4th february
(c) 2014 FirstSiteGuide.com
http://creativecommons.org/licenses/by-nd/4.0/
</metadata>
<defs>
<font id="BloggerSansLightItalic" horiz-adv-x="250" >
  <font-face 
    font-family="BloggerSansLightItalic"
    font-weight="300"
    font-style="italic"
    font-stretch="squinchy"
    units-per-em="1000"
    panose-1="2 0 5 6 3 0 0 2 0 4"
    ascent="760"
    descent="-240"
    x-height="505"
    cap-height="705"
    bbox="-69.125 -244 874 945"
    underline-thickness="20"
    underline-position="-163"
    unicode-range="U+0021-F0434"
  />
<missing-glyph horiz-adv-x="760" 
 />
    <glyph glyph-name="ff" unicode="ff" horiz-adv-x="598" 
d="M432 546q7 47 25 81.5t44.5 57.5t59.5 34.5t71 13.5h19t26.5 -3.5t24 -11t10.5 -20.5q0 -16 -10.5 -25t-24.5 -9q-12 0 -22 2q-11 2 -20.5 3.5t-19.5 1.5q-25 0 -45 -9.5t-35 -25.5t-24.5 -37t-12.5 -45l-10 -71h116q11 0 18 -7.5t7 -19.5q0 -14 -10.5 -23.5t-22.5 -9.5
h-116l-84 -599q-2 -14 -11 -22.5t-26 -8.5q-16 0 -23 8.5t-5 22.5zM155 546q7 47 24.5 81.5t44 57.5t59.5 34.5t71 13.5h19.5t27 -3.5t24 -11t10.5 -20.5q0 -16 -11 -25t-24 -9t-23 2t-20 3.5t-19 1.5q-25 0 -45 -9.5t-35 -25.5t-24.5 -37t-12.5 -45l-10 -71h116
q11 0 17.5 -7.5t6.5 -19.5q0 -14 -10 -23.5t-22 -9.5h-116l-84 -599q-2 -14 -11 -22.5t-26 -8.5q-16 0 -23 8.5t-5 22.5z" />
    <glyph glyph-name="fi" unicode="fi" horiz-adv-x="517" 
d="M156 546q7 47 23.5 81.5t40 57.5t53 34.5t62.5 13.5h19t26.5 -3.5t24 -11t10.5 -20.5q0 -16 -10.5 -25t-24.5 -9q-8 0 -13 0.5t-9 1.5q-11 2 -21 3.5t-19 1.5q-20 0 -36 -9.5t-28 -25.5t-20.5 -37t-11.5 -45l-10 -71h116q11 0 18 -7.5t7 -19.5q0 -14 -10 -23.5t-23 -9.5
h-116l-84 -598q-2 -14 -11.5 -22.5t-25.5 -8.5t-23 8.5t-5 22.5zM547 686q0 -19 -14.5 -32.5t-32.5 -13.5q-17 0 -27 11t-10 25q0 20 14.5 33.5t34.5 13.5q15 0 25 -10.5t10 -26.5zM445 479q2 14 12.5 23.5t24.5 9.5q13 0 21.5 -9.5t6.5 -23.5l-55 -389q-2 -17 -0.5 -30
t9.5 -24q2 -4 2 -12q0 -13 -9.5 -22t-23.5 -9q-8 0 -17.5 3t-16.5 13t-10.5 29.5t1.5 51.5z" />
    <glyph glyph-name="fl" unicode="fl" horiz-adv-x="517" 
d="M156 546q7 47 23.5 81.5t40 57.5t53 34.5t62.5 13.5h19t26.5 -3.5t24 -11t10.5 -20.5q0 -16 -10.5 -25t-24.5 -9q-12 0 -22 2q-11 2 -20.5 3.5t-18.5 1.5q-20 0 -36 -9.5t-28.5 -25.5t-21 -37t-11.5 -45l-10 -71h116q11 0 18 -7.5t7 -19.5q0 -14 -10 -23.5t-23 -9.5h-116
l-84 -600q-2 -14 -11.5 -22.5t-25.5 -8.5t-23 8.5t-5 22.5zM475 692q2 13 12 23t24 10t22 -9.5t6 -23.5l-85 -602q-5 -35 10 -54q2 -2 2.5 -5.5t0.5 -6.5q0 -13 -10 -22t-24 -9q-8 0 -17.5 3t-16.5 13t-10.5 29.5t1.5 51.5z" />
    <glyph glyph-name="ffi" unicode="ffi" horiz-adv-x="754" 
d="M420 546q7 47 23.5 81.5t40 57.5t53 34.5t62.5 13.5h14t20 -3.5t18 -10.5t8 -20q0 -17 -10.5 -26t-24.5 -9q-5 0 -7.5 0.5t-5.5 1.5q-8 2 -14.5 3.5t-13.5 1.5q-20 0 -36 -9.5t-28.5 -25.5t-21 -37t-11.5 -45l-10 -71h116q11 0 18 -7.5t7 -19.5q0 -14 -10 -23.5t-23 -9.5
h-116l-84 -599q-2 -14 -11.5 -22.5t-25.5 -8.5t-23 8.5t-5 22.5zM155 546q7 47 24.5 81.5t44 57.5t59.5 34.5t71 13.5h19t26.5 -3.5t24 -11t10.5 -20.5q0 -16 -10.5 -25t-24.5 -9q-12 0 -22 2q-11 2 -20.5 3.5t-19.5 1.5q-24 0 -44 -9.5t-35 -25.5t-24.5 -37t-12.5 -45
l-10 -71h115q11 0 18 -7.5t7 -19.5q0 -14 -10.5 -23.5t-22.5 -9.5h-115l-84 -599q-2 -14 -11.5 -22.5t-25.5 -8.5q-17 0 -23.5 8.5t-4.5 22.5zM791 686q0 -19 -14.5 -32.5t-32.5 -13.5q-17 0 -26.5 11t-9.5 25q0 20 14 33.5t34 13.5q15 0 25 -10.5t10 -26.5zM689 479
q2 14 12.5 23.5t24.5 9.5q13 0 21.5 -9.5t6.5 -23.5l-55 -389q-2 -17 -0.5 -30t9.5 -24q1 -2 2 -5.5t1 -6.5q0 -13 -10 -22t-24 -9q-8 0 -17.5 3t-16.5 13t-10.5 29.5t1.5 51.5z" />
    <glyph glyph-name="ffl" unicode="ffl" horiz-adv-x="785" 
d="M430 546q7 47 23.5 81.5t40 57.5t53 34.5t62.5 13.5h19t27 -3.5t24.5 -11t10.5 -20.5q0 -16 -11 -25t-24 -9t-23 2t-20 3.5t-19 1.5q-20 0 -36 -9.5t-28.5 -25.5t-21 -37t-11.5 -45l-10 -71h116q11 0 18 -7.5t7 -19.5q0 -14 -10 -23.5t-23 -9.5h-116l-84 -599
q-2 -14 -11.5 -22.5t-25.5 -8.5t-23 8.5t-5 22.5zM750 700q2 13 12.5 23t24.5 10t22 -9.5t6 -23.5l-86 -610q-2 -17 -0.5 -30t10.5 -24q2 -2 2.5 -5.5t0.5 -6.5q0 -13 -10 -22t-24 -9q-9 0 -18.5 3t-16.5 13t-10.5 29.5t1.5 51.5zM154 546q7 47 24.5 81.5t44 57.5t59.5 34.5
t71 13.5h19.5t27 -3.5t24 -11t10.5 -20.5q0 -16 -10.5 -25t-24.5 -9q-7 0 -12.5 0.5t-10.5 1.5q-10 2 -19.5 3.5t-19.5 1.5q-25 0 -45 -9.5t-35 -25.5t-24.5 -37t-12.5 -45l-10 -71h116q11 0 17.5 -7.5t6.5 -19.5q0 -14 -10 -23.5t-22 -9.5h-116l-84 -599q-2 -14 -11 -22.5
t-26 -8.5q-16 0 -23 8.5t-5 22.5z" />
    <glyph glyph-name="uni0457_uni0457" unicode="&#x457;&#x457;" horiz-adv-x="480" 
d="M159 25q-2 -14 -12.5 -23t-23.5 -9q-14 0 -22.5 9t-6.5 23l64 454q2 14 13 23.5t25 9.5q13 0 21 -9.5t6 -23.5zM377 636q0 -22 -16.5 -37.5t-36.5 -15.5q-18 0 -30 12.5t-12 30.5q0 20 17 35.5t38 15.5q17 0 28.5 -12t11.5 -29zM162 636q0 -22 -16 -37.5t-37 -15.5
q-18 0 -29 12.5t-11 29.5q0 20 16 36t37 16q18 0 29 -12t11 -29zM394 25q-2 -14 -12.5 -23t-23.5 -9q-14 0 -22.5 9t-6.5 23l64 454q2 14 13 23.5t25 9.5q13 0 21 -9.5t6 -23.5zM591 636q0 -22 -16.5 -37.5t-36.5 -15.5q-18 0 -30 12.5t-12 30.5q0 20 17 35.5t38 15.5
q17 0 28.5 -12t11.5 -29z" />
    <glyph glyph-name=".notdef" horiz-adv-x="760" 
 />
    <glyph glyph-name=".null" horiz-adv-x="0" 
 />
    <glyph glyph-name="nonmarkingreturn" horiz-adv-x="300" 
 />
    <glyph glyph-name="space" unicode="&#xa0;" horiz-adv-x="300" 
 />
    <glyph glyph-name="space" unicode=" " horiz-adv-x="300" 
 />
    <glyph glyph-name="exclam" unicode="!" horiz-adv-x="227" 
d="M176 683q2 13 13.5 23t25.5 10t22 -10t7 -23l-79 -484q-2 -10 -9.5 -17t-16.5 -7q-10 0 -16 7t-4 17zM168 44q0 -22 -16 -37.5t-37 -15.5q-18 0 -30 12t-12 30q0 21 17 37t38 16q18 0 29 -12.5t11 -29.5z" />
    <glyph glyph-name="quotedbl" unicode="&#x22;" horiz-adv-x="342" 
d="M195 736q5 11 17.5 18.5t26.5 5.5t21 -12t2 -22l-92 -247q-2 -8 -10 -12.5t-16 -5.5q-8 2 -12 10t-2 16zM328 736q5 11 17.5 18.5t26.5 5.5t21 -12t2 -22l-92 -247q-2 -8 -10 -12.5t-16 -5.5q-8 2 -12 10t-2 16z" />
    <glyph glyph-name="numbersign" unicode="#" horiz-adv-x="541" 
d="M245 479l77 211q10 23 34 23q10 -2 16.5 -10.5t4.5 -19.5l-1 -7l-72 -197h125l77 211q10 21 32 23q12 -2 18.5 -10t4.5 -20l-1 -7l-72 -197h45q11 0 19.5 -8t8.5 -21q0 -14 -11.5 -24.5t-25.5 -10.5h-59l-44 -120h55q12 0 20 -8t8 -20q0 -15 -11 -25.5t-26 -10.5h-69
l-77 -214q-10 -23 -34 -23l1 -1q-11 2 -17.5 9.5t-6.5 18.5q0 4 1 6.5t2 4.5l72 199h-125l-77 -214q-10 -23 -34 -23l1 -1q-11 2 -17.5 9.5t-6.5 18.5q0 4 1 6.5t2 4.5l72 199h-43q-13 0 -21 8t-8 20q0 15 12 25.5t26 10.5h57l44 120h-54q-12 0 -20 8t-8 20q0 15 12 25.5
t25 10.5h68zM237 295h125l43 120h-124z" />
    <glyph glyph-name="dollar" unicode="$" horiz-adv-x="500" 
d="M237 20q-25 1 -55 5t-55.5 11.5t-43 20t-17.5 29.5q0 13 11 24.5t25 11.5q5 0 14.5 -4t17.5 -8q17 -8 43.5 -15t68.5 -9l34 245q-29 10 -57 22t-49.5 30t-35 43t-13.5 62q0 43 14.5 77.5t41.5 59.5t64.5 40.5t84.5 19.5l8 57q1 8 8 13.5t15 5.5t12 -5.5t3 -13.5l-8 -57
q21 -2 45.5 -5.5t46 -10.5t35.5 -17.5t14 -25.5q0 -13 -10 -23t-27 -10q-10 0 -18.5 2.5t-16.5 6.5q-12 5 -30 9.5t-48 8.5l-33 -233q29 -10 57 -22t50 -30t35.5 -43.5t13.5 -62.5q0 -44 -16 -79.5t-43.5 -62t-65.5 -43.5t-82 -23l-8 -57q-2 -8 -7.5 -13t-13.5 -5t-13.5 5
t-3.5 13zM409 217q0 38 -16 56.5t-33 26.5q-5 2 -13.5 6t-30.5 12l-32 -231q125 21 125 130zM248 418q8 -4 21 -9.5t21 -10.5l31 221q-25 -3 -47.5 -11t-40 -21.5t-27.5 -34.5t-10 -50q0 -20 5 -34t13 -23.5t17 -16t17 -10.5z" />
    <glyph glyph-name="percent" unicode="%" horiz-adv-x="703" 
d="M253 406q-57 0 -87 37t-30 93q0 37 11 69.5t31.5 57.5t50.5 39.5t68 14.5q59 0 87.5 -37t28.5 -93q0 -37 -10.5 -70t-31 -57.5t-50.5 -39t-68 -14.5zM513 -9q-59 0 -88 36.5t-29 93.5q0 37 11 69.5t31.5 57.5t50.5 39.5t68 14.5q58 0 87 -37t29 -93q0 -37 -11 -70
t-31.5 -57.5t-50 -39t-67.5 -14.5zM211 13v1q-15 -21 -37 -16h1q-11 5 -15 15.5t1 22.5v-1l5 8l437 660v-1q8 10 17.5 14t19.5 0q7 -2 10.5 -10t3.5 -16q0 -11 -2.5 -13t-3.5 -3zM260 454q53 0 76.5 37.5t23.5 95.5q0 38 -17 60t-53 22q-51 0 -75 -36.5t-24 -94.5
q0 -40 17 -62t52 -22zM520 39q51 0 75 37t24 96q0 38 -17 60t-52 22q-51 0 -75.5 -35.5t-24.5 -95.5q0 -40 17 -62t53 -22z" />
    <glyph glyph-name="ampersand" unicode="&#x26;" horiz-adv-x="642" 
d="M600 28q0 -15 -10.5 -26t-24.5 -11q-11 0 -16.5 5t-11.5 13l-59 84q-23 -20 -47.5 -38.5t-52.5 -32.5t-58.5 -22.5t-64.5 -8.5q-42 0 -75 12.5t-56.5 34.5t-36 52t-12.5 65q0 45 16.5 80.5t43.5 64.5t61 51.5t69 41.5q-30 38 -48 77t-18 77t16.5 69t43 52.5t60.5 33.5
t69 12q31 0 57 -10t44.5 -26t29 -36.5t10.5 -42.5q0 -20 -11.5 -30.5t-25.5 -10.5q-11 0 -17 7t-8 17q-4 28 -26 51.5t-58 23.5q-22 0 -43.5 -7.5t-38.5 -21.5t-27.5 -33.5t-10.5 -43.5q0 -29 19 -62t45 -70l163 -226q29 38 49.5 69t37.5 60q9 15 15.5 18t15.5 3
q11 0 18.5 -8t7.5 -19q0 -15 -10.5 -36t-26 -45t-34.5 -48.5t-37 -44.5l69 -99q5 -7 5 -15zM296 346q-29 -14 -56.5 -31t-50 -38.5t-36 -48.5t-13.5 -60q0 -49 30.5 -84t86.5 -35q54 0 100 26.5t88 66.5z" />
    <glyph glyph-name="quotesingle" unicode="'" horiz-adv-x="222" 
d="M196 736q5 11 17.5 18.5t26.5 5.5t21 -12t2 -22l-92 -247q-2 -8 -10.5 -12.5t-16.5 -5.5q-8 2 -11.5 10t-1.5 16z" />
    <glyph glyph-name="parenleft" unicode="(" horiz-adv-x="276" 
d="M160 121q0 -38 3 -78.5t9.5 -81t16 -78t21.5 -69.5q2 -5 4.5 -11.5t2.5 -10.5q0 -12 -9 -24t-27 -12q-19 0 -26 15q-16 36 -27.5 78t-19 86.5t-11 90t-3.5 87.5q0 144 49 286.5t138 266.5q14 17 30 17q14 0 20 -10t6 -21q0 -8 -4 -15.5t-9 -13.5q-76 -112 -120 -240.5
t-44 -261.5z" />
    <glyph glyph-name="parenright" unicode=")" horiz-adv-x="275" 
d="M219 320q0 38 -3 78t-9 79.5t-15.5 76.5t-22.5 69q-2 6 -4.5 13t-2.5 10q0 11 10 24t27 13q15 0 25 -17q16 -35 27.5 -77t19 -86.5t11 -89.5t3.5 -87q0 -71 -12.5 -144t-36.5 -144t-58.5 -138.5t-79.5 -128.5q-11 -15 -29 -15q-14 0 -21 9t-7 21q0 6 4.5 13.5t9.5 14.5
q78 115 121 243.5t43 262.5z" />
    <glyph glyph-name="asterisk" unicode="*" horiz-adv-x="495" 
d="M477 598q5 -13 -3.5 -22t-18.5 -14l-130 -36l84 -106q6 -9 6.5 -21t-11.5 -20q-11 -8 -22.5 -4.5t-17.5 11.5l-74 115l-75 -114q-7 -8 -18.5 -11.5t-22.5 3.5q-11 8 -11 20.5t7 20.5l85 106l-131 36q-10 5 -17.5 15t-3.5 22q5 14 15.5 17.5t21.5 -0.5l128 -48l-7 135
q-1 11 6 21t23 10q15 0 22 -10t6 -21l-7 -135l127 48q11 4 22.5 0.5t16.5 -17.5v-1z" />
    <glyph glyph-name="plus" unicode="+" horiz-adv-x="500" 
d="M260 323h-171q-14 0 -23 9t-9 23t10 23t22 9h171v181q0 12 9.5 22.5t23.5 10.5q13 0 22 -9.5t9 -23.5v-181h172q12 0 22 -9t10 -23t-9.5 -23t-22.5 -9h-172v-182q0 -13 -9 -22.5t-22 -9.5q-14 0 -23.5 10t-9.5 22v182z" />
    <glyph glyph-name="comma" unicode="," horiz-adv-x="230" 
d="M168 44q0 -22 -10.5 -50.5t-25.5 -54t-30.5 -43t-25.5 -17.5q-5 0 -8.5 2t-3.5 7q0 10 7 20.5t17 24.5q6 9 12.5 19t17.5 37q-20 2 -32.5 14.5t-12.5 30.5q0 20 17 36t38 16q18 0 29 -12.5t11 -29.5z" />
    <glyph glyph-name="hyphen" unicode="-" horiz-adv-x="399" 
d="M397 294q0 -12 -8 -20t-20 -8h-255q-13 0 -21.5 8t-8.5 20q0 13 8.5 22t21.5 9h255q12 0 20 -9t8 -22z" />
    <glyph glyph-name="period" unicode="." horiz-adv-x="230" 
d="M168 44q0 -22 -16 -37.5t-37 -15.5q-18 0 -30 12t-12 30q0 21 17 37t38 16q18 0 29 -12.5t11 -29.5z" />
    <glyph glyph-name="slash" unicode="/" horiz-adv-x="280" 
d="M35 -24q-12 -23 -37 -20q-10 2 -15.5 10t-5.5 19q0 7 1.5 10l2.5 5l367 740q5 11 15 16t21 3q13 -2 18.5 -14t0.5 -25z" />
    <glyph glyph-name="zero" unicode="0" horiz-adv-x="500" 
d="M346 667q-71 0 -108 -44.5t-47 -114.5l-44 -313q-9 -65 19.5 -104.5t93.5 -39.5q64 0 103 39.5t48 104.5l44 313q10 70 -14.5 114.5t-94.5 44.5zM355 726q51 0 86 -18t54.5 -48.5t25 -72t-0.5 -87.5l-43 -305q-6 -43 -24 -80t-47 -64.5t-68 -43.5t-87 -16t-83 16
t-56 43.5t-29 64.5t-2 80l43 305q6 46 23.5 87.5t46.5 72t69 48.5t92 18z" />
    <glyph glyph-name="one" unicode="1" horiz-adv-x="500" 
d="M370 631l-149 -87q-11 -8 -23 -13.5t-21 -5.5q-10 0 -17.5 7t-7.5 17q0 19 20 32l219 129q12 6 21 6q16 0 24.5 -10.5t6.5 -26.5l-92 -654q-2 -14 -12.5 -23.5t-24.5 -9.5t-22.5 9.5t-6.5 23.5z" />
    <glyph glyph-name="two" unicode="2" horiz-adv-x="500" 
d="M458 35q0 -14 -11 -24t-26 -10h-336q-14 0 -22 8.5t-8 22.5q0 11 3.5 21.5t8.5 19.5q18 31 42.5 61.5t52.5 59t57.5 55t57.5 50.5q27 23 54.5 46.5t50.5 46.5q30 30 54 68t24 90q0 51 -28 84t-87 33q-29 0 -55 -5.5t-49 -14.5q-5 -2 -13.5 -6.5t-15.5 -9.5
q-8 -5 -17 -8.5t-16 -3.5q-11 0 -19 7.5t-8 18.5q0 21 28 37q40 23 83.5 33.5t90.5 10.5q42 0 74.5 -12.5t54 -34.5t33 -52t11.5 -64q0 -67 -27.5 -116.5t-72.5 -91.5q-27 -28 -50.5 -48.5t-45.5 -38.5q-54 -45 -105 -94t-89 -111h293q13 0 20.5 -8t7.5 -20z" />
    <glyph glyph-name="three" unicode="3" horiz-adv-x="500" 
d="M293 410q41 -1 75.5 -12.5t59 -33t38.5 -52t14 -69.5q0 -40 -15 -84t-45 -81t-75.5 -61.5t-107.5 -24.5q-14 0 -42.5 2t-57 9t-50 19.5t-21.5 32.5q0 14 10.5 25t24.5 11q6 0 17 -6q24 -13 51.5 -24t72.5 -11q49 0 81.5 18.5t52.5 46t28.5 60.5t8.5 62q0 62 -35.5 89
t-92.5 27q-19 0 -38 -8q-11 -5 -15.5 -5h-9.5q-16 0 -21.5 17t8.5 32l228 250h-244q-13 0 -20.5 8t-7.5 20q0 15 11 26.5t26 11.5h286q14 0 22 -9t8 -24q0 -12 -3.5 -18.5t-8.5 -11.5z" />
    <glyph glyph-name="four" unicode="4" horiz-adv-x="500" 
d="M405 24q-2 -14 -12.5 -23t-23.5 -9q-14 0 -22.5 9t-6.5 23l18 129h-262q-14 0 -22 9.5t-8 22.5q0 4 3.5 12.5t8.5 16.5l265 491q6 8 14.5 13.5t16.5 5.5q10 0 18.5 -8.5t8.5 -21.5q0 -10 -3 -14l-252 -465h221l29 207q2 14 13 23.5t25 9.5q13 0 21 -9.5t6 -23.5l-29 -207
h52q11 0 18 -8.5t7 -19.5q0 -14 -10 -24t-24 -10h-52z" />
    <glyph glyph-name="five" unicode="5" horiz-adv-x="500" 
d="M481 256q0 -44 -14 -91t-43 -85.5t-73 -63t-103 -24.5q-15 0 -45.5 2t-60.5 9t-53 19.5t-23 32.5q0 14 10.5 25t24.5 11q6 0 17 -6v1q20 -14 46 -25t68 -11q53 0 88 18.5t56 47.5t29.5 64t8.5 68q0 66 -32 97.5t-83 31.5q-23 0 -43 -6t-39 -16l-23 -14q-8 -5 -15.5 -9
t-16.5 -4q-14 0 -23 10t-6 26l53 305q4 19 17.5 28.5t27.5 9.5h246q14 0 24.5 -6t10.5 -22q0 -18 -14 -25.5t-29 -7.5h-228l-42 -242q30 16 57 23t53 7q78 0 125 -46.5t47 -131.5z" />
    <glyph glyph-name="six" unicode="6" horiz-adv-x="500" 
d="M169 385q36 26 76.5 36.5t76.5 10.5t67.5 -11.5t54 -34t35.5 -56t13 -77.5q0 -51 -15.5 -98.5t-45.5 -83.5t-74.5 -58t-103.5 -22q-47 0 -79.5 18t-52.5 50t-29 76t-9 97q0 103 17 191.5t52 153.5t88 102t125 37q12 0 35.5 -1.5t47.5 -6.5t41.5 -14t17.5 -24
q0 -11 -9.5 -21.5t-23.5 -10.5q-5 0 -10 1t-10 3q-17 5 -38.5 10.5t-45.5 5.5q-49 0 -83.5 -21.5t-58 -58t-37.5 -86.5t-22 -107zM152 280q-6 -44 -6 -85t11.5 -72t37.5 -49.5t71 -18.5t75.5 17.5t49.5 44.5t27 61t8 67q0 63 -31.5 94t-84.5 31q-45 0 -86.5 -18t-67.5 -44z
" />
    <glyph glyph-name="seven" unicode="7" horiz-adv-x="500" 
d="M544 676q0 -5 -2 -11.5t-4 -11.5l-345 -641q-5 -10 -14 -15t-18 -5q-13 0 -21.5 7.5t-8.5 19.5q0 7 5 18v-1l329 606h-288q-11 0 -19 8t-8 20q0 16 11.5 26.5t25.5 10.5h327q14 0 22 -8.5t8 -22.5z" />
    <glyph glyph-name="eight" unicode="8" horiz-adv-x="500" 
d="M498 214q0 -47 -19 -87.5t-52.5 -70.5t-78.5 -47.5t-97 -17.5q-44 0 -79.5 13t-61 36t-39.5 55t-14 70q0 37 13 68t35 56.5t51.5 46t62.5 37.5q-38 26 -62 62.5t-24 84.5q0 44 18 80t48 61.5t69.5 39.5t83.5 14q37 0 68.5 -11t54 -31.5t35 -48.5t12.5 -62
q0 -58 -34.5 -103t-97.5 -80q47 -27 77.5 -67.5t30.5 -97.5zM456 552q0 48 -31 77t-80 29q-30 0 -57 -10t-47.5 -28t-32 -42.5t-11.5 -54.5q0 -48 34 -78.5t82 -39.5q28 6 54 19t46 32t31.5 43t11.5 53zM433 209q0 29 -11.5 52t-30 40t-43 28t-51.5 16q-35 -7 -66.5 -21.5
t-55.5 -36t-38 -50t-14 -62.5q0 -27 10 -50t28 -39.5t43.5 -26t55.5 -9.5q36 0 68 12.5t55 34t36.5 50.5t13.5 62z" />
    <glyph glyph-name="nine" unicode="9" horiz-adv-x="500" 
d="M437 335q-32 -34 -75 -47t-80 -13q-36 0 -67 11t-54.5 33t-36.5 56t-13 79q0 50 14.5 97t44 84t74 59t104.5 22q47 0 79.5 -17.5t53 -50t29.5 -77.5t9 -100q0 -102 -15 -190t-48.5 -152.5t-87 -101t-129.5 -36.5q-12 0 -36 1.5t-47.5 6.5t-41.5 14t-18 24q0 11 10.5 21.5
t23.5 10.5q5 0 20 -5q19 -5 42.5 -10t52.5 -5q46 0 78.5 22.5t55 61.5t36.5 91t22 111zM452 426q7 48 5 89.5t-15.5 71.5t-39.5 47.5t-67 17.5q-44 0 -73.5 -17.5t-48.5 -45.5t-27 -62t-8 -67q0 -63 31.5 -93t86.5 -30q45 0 85.5 17t66.5 43z" />
    <glyph glyph-name="colon" unicode=":" horiz-adv-x="230" 
d="M73 0zM168 44q0 -22 -16 -37.5t-37 -15.5q-18 0 -30 12t-12 30q0 21 17 37t38 16q18 0 29 -12.5t11 -29.5zM210 344q0 -22 -16 -37.5t-37 -15.5q-18 0 -30 12t-12 30q0 21 17 37t38 16q18 0 29 -12.5t11 -29.5z" />
    <glyph glyph-name="semicolon" unicode=";" horiz-adv-x="230" 
d="M64 0zM168 44q0 -22 -10.5 -50.5t-25.5 -54t-30.5 -43t-25.5 -17.5q-5 0 -8.5 2t-3.5 7q0 10 7 20.5t17 24.5q6 9 12.5 19t17.5 37q-20 2 -32.5 14.5t-12.5 30.5q0 20 17 36t38 16q18 0 29 -12.5t11 -29.5zM210 344q0 -22 -16 -37.5t-37 -15.5q-18 0 -30 12t-12 30
q0 21 17 37t38 16q18 0 29 -12.5t11 -29.5z" />
    <glyph glyph-name="less" unicode="&#x3c;" horiz-adv-x="625" 
d="M556 161q8 -5 14 -12t6 -15q0 -9 -4.5 -17t-11 -13t-15 -6.5t-15.5 2.5l-381 214q-10 5 -18.5 13t-8.5 22q0 19 10.5 27t26.5 16l440 214q17 5 28 -3.5t11 -24.5q0 -11 -8.5 -20t-19.5 -14l-407 -191z" />
    <glyph glyph-name="equal" unicode="=" horiz-adv-x="500" 
d="M455 295q12 0 22 -9t10 -23t-9 -23t-23 -9h-325q-14 0 -23 9t-9 23t10 23t22 9h325zM455 479q12 0 22 -9t10 -23t-9 -23t-23 -9h-325q-14 0 -23 9t-9 23t10 23t22 9h325z" />
    <glyph glyph-name="greater" unicode="&#x3e;" horiz-adv-x="625" 
d="M518 353l-380 191q-11 5 -18 13t-7 17q0 17 14 28.5t29 3.5l412 -214q12 -6 20.5 -14t8.5 -25t-9 -25t-21 -14l-411 -214q-15 -8 -29 3.5t-14 28.5q0 8 7 16t18 13z" />
    <glyph glyph-name="question" unicode="?" horiz-adv-x="462" 
d="M304 250q-6 -10 -8.5 -21t-4.5 -22q-2 -13 -12.5 -22.5t-24.5 -9.5q-13 0 -21 8.5t-8 20.5q0 11 3 21.5t8 18.5q16 32 40 59t50 51q10 10 19.5 19t18.5 19q14 15 28 32t25 36t18 41t7 48q0 51 -28.5 84.5t-87.5 33.5q-28 0 -54 -5.5t-49 -14.5q-5 -2 -13.5 -7t-15.5 -9
q-8 -5 -17 -8.5t-16 -3.5q-11 0 -19.5 7.5t-8.5 19.5q0 11 8 19.5t21 16.5q40 23 83.5 33.5t89.5 10.5q42 0 74.5 -12.5t54.5 -34.5t33.5 -52t11.5 -64q0 -67 -28 -116.5t-72 -91.5l-14.5 -14.5t-9.5 -9t-7 -6t-7 -5.5q-20 -17 -37.5 -33.5t-29.5 -36.5zM282 44
q0 -22 -16 -37.5t-37 -15.5q-18 0 -30 12t-12 30q0 21 17 37t38 16q18 0 29 -12.5t11 -29.5z" />
    <glyph glyph-name="at" unicode="@" horiz-adv-x="744" 
d="M518 14q-27 -12 -69.5 -19t-84.5 -7q-62 0 -109.5 20t-80.5 56t-50 86t-17 111q0 80 24.5 148.5t70 118.5t111.5 78.5t150 28.5q67 0 117.5 -21t84.5 -57.5t50.5 -85.5t16.5 -105q0 -40 -7.5 -77t-24 -65t-44 -45t-67.5 -17q-32 0 -52.5 12.5t-33.5 34.5q-35 -31 -64 -44
t-57 -13q-54 0 -81.5 38t-27.5 95q0 41 11.5 75.5t33.5 60t53.5 39.5t72.5 14q64 0 87 -44.5t23 -129.5q0 -13 1.5 -27t6 -25.5t13.5 -19t23 -7.5q29 0 48 30.5t19 104.5q0 48 -13 88t-39 69.5t-65 46t-92 16.5q-67 0 -120 -23.5t-89.5 -65t-55.5 -98t-19 -123.5
q0 -49 13.5 -89.5t40.5 -69.5t67 -45t93 -16q43 0 70 7t44 15q10 4 13.5 5.5t7.5 2.5q10 3 23 -1.5t15 -16.5q2 -15 -12 -26t-29 -18zM490 343q0 13 -2 26t-8 23.5t-17.5 17t-30.5 6.5q-26 0 -44 -10t-29.5 -27.5t-16.5 -41.5t-5 -52q0 -36 14 -56.5t46 -20.5
q22 0 45.5 11.5t48.5 31.5q-2 13 -1.5 31.5t0.5 60.5z" />
    <glyph glyph-name="A" unicode="A" horiz-adv-x="549" 
d="M99 15q-6 -9 -16.5 -16.5t-18.5 -7.5q-14 0 -22.5 7.5t-8.5 21.5q0 5 1.5 10t2.5 7l288 630q9 21 21 35t32 14q19 0 27.5 -14.5t12.5 -34.5l110 -630v-6t-1 -7q-2 -15 -13 -24t-26 -9q-9 0 -18 6.5t-11 17.5l-25 148h-269zM193 228h231l-62 379z" />
    <glyph glyph-name="B" unicode="B" horiz-adv-x="542" 
d="M328 400q28 0 57.5 8.5t53.5 26.5t39.5 45t15.5 64q0 19 -6 37t-19.5 31.5t-35.5 21.5t-54 8h-143l-34 -242h126zM192 335l-38 -270h133q45 0 78.5 11.5t56 31.5t34 47t11.5 59q0 59 -40.5 90t-105.5 31h-129zM120 1q-17 0 -27 12t-8 29l88 622q2 18 16 30t31 12h173
q43 0 74.5 -13t52 -35t30.5 -50t10 -59q0 -37 -11.5 -65t-32 -50.5t-48 -39.5t-59.5 -31q21 -8 43.5 -19t40.5 -27.5t29.5 -40t11.5 -57.5q0 -45 -18 -84.5t-50 -69t-77 -47t-100 -17.5h-169z" />
    <glyph glyph-name="C" unicode="C" horiz-adv-x="482" 
d="M115 463q8 57 28 104t52.5 80t77 51t101.5 18q32 0 61 -6t51.5 -16.5t36 -24.5t13.5 -29q0 -14 -9.5 -23t-23.5 -9q-7 0 -11.5 2.5t-9.5 6.5q-2 2 -4.5 3t-4.5 3q-23 17 -48 25.5t-55 8.5q-45 0 -78 -13.5t-55 -39t-35.5 -61t-19.5 -80.5l-31 -219q-6 -44 -3 -80
t18.5 -61t44.5 -38.5t74 -13.5q61 0 110 32l12 7q16 10 24 10q12 0 18.5 -7t6.5 -18q0 -17 -16 -32t-41.5 -26.5t-59 -18t-67.5 -6.5q-57 0 -96.5 18t-62.5 51t-30 79.5t1 103.5z" />
    <glyph glyph-name="D" unicode="D" horiz-adv-x="554" 
d="M545 263q-7 -51 -27.5 -98.5t-58 -83.5t-92.5 -58t-131 -22h-116q-17 0 -27 12t-8 29l88 623q2 17 16 29.5t31 12.5h116q76 0 125 -21t76 -56t34.5 -81t0.5 -95zM505 454q6 39 1 73.5t-24 60t-52.5 40.5t-85.5 15h-108l-82 -578h108q52 0 90.5 15.5t64.5 42.5t40.5 63
t20.5 77z" />
    <glyph glyph-name="E" unicode="E" horiz-adv-x="474" 
d="M445 38q0 -16 -12 -26.5t-26 -10.5h-271q-23 0 -39 8.5t-13 31.5l88 624q2 16 15.5 28.5t31.5 12.5h277q12 0 19.5 -8.5t7.5 -21.5q0 -14 -11 -24t-25 -10h-252l-36 -255h232q12 0 20 -8t8 -20q0 -15 -11 -25.5t-26 -10.5h-232l-36 -258h262q12 0 20.5 -8t8.5 -19z" />
    <glyph glyph-name="F" unicode="F" horiz-adv-x="474" 
d="M149 24q-2 -14 -12.5 -23.5t-24.5 -9.5t-22.5 9.5t-6.5 23.5l90 641q2 16 15 28.5t31 12.5h277q13 0 20.5 -8.5t7.5 -21.5q0 -14 -11 -24t-26 -10h-252l-35 -255h232q11 0 19 -8t8 -20q0 -15 -11 -25.5t-25 -10.5h-232z" />
    <glyph glyph-name="G" unicode="G" horiz-adv-x="520" 
d="M151 244q-6 -44 -3 -80t18.5 -61t44.5 -38.5t74 -13.5q38 0 69.5 10.5t59.5 30.5l33 232h-107q-11 0 -19 7.5t-8 19.5q0 14 11 24.5t24 10.5h122q22 0 35 -9.5t10 -30.5l-35 -244q-4 -29 -24.5 -49.5t-50.5 -34t-65 -20t-68 -6.5q-57 0 -96.5 18t-62.5 51t-30 79.5
t1 103.5l31 219q8 57 28 104t52.5 80t77 51t101.5 18q32 0 61 -6t51.5 -16.5t36 -24.5t13.5 -29q0 -14 -10 -23t-23 -9q-7 0 -11.5 2.5t-9.5 6.5q-2 2 -5 3t-5 3q-22 17 -47 25.5t-55 8.5q-45 0 -78 -13.5t-55 -39t-35.5 -61t-19.5 -80.5z" />
    <glyph glyph-name="H" unicode="H" horiz-adv-x="580" 
d="M510 25q-2 -14 -13 -24t-25 -10q-13 0 -22 10t-7 24l41 297h-294l-41 -297q-2 -14 -13 -24t-25 -10t-22 10t-6 24l92 658q2 13 13 23t25 10t22 -10t6 -23l-42 -297h294l42 297q2 13 14 23t25 10t21.5 -10t6.5 -23l-92 -658v0z" />
    <glyph glyph-name="I" unicode="I" horiz-adv-x="227" 
d="M176 683q2 13 13.5 23t25.5 10t22 -10t6 -23l-92 -659q-2 -14 -13 -23.5t-25 -9.5t-22.5 9.5t-6.5 23.5z" />
    <glyph glyph-name="J" unicode="J" horiz-adv-x="385" 
d="M341 223q-8 -54 -23.5 -97t-42.5 -73t-67.5 -46t-97.5 -16q-10 0 -23 1t-24.5 4t-19.5 10t-8 19q0 17 11.5 26.5t21.5 9.5q2 0 6.5 -0.5t9.5 -1.5q8 -2 19 -3.5t27 -1.5q37 0 62.5 12t41.5 34t25 53t15 70l64 460q2 14 13.5 23.5t25.5 9.5q13 0 21.5 -10t6.5 -23z" />
    <glyph glyph-name="K" unicode="K" horiz-adv-x="498" 
d="M252 337l-70 -73l-33 -239q-2 -14 -13 -24t-25 -10t-22 10t-6 24l92 658q2 13 13 23t25 10t22 -10t6 -23l-45 -320l320 336q6 7 15.5 12t18.5 5t17.5 -7.5t5.5 -24.5q-3 -13 -11 -23v1l-261 -274l192 -346h-1q2 -3 2 -11q0 -11 -7 -25.5t-27 -14.5q-11 0 -16.5 4
t-10.5 11z" />
    <glyph glyph-name="L" unicode="L" horiz-adv-x="448" 
d="M442 36q0 -14 -11 -24.5t-25 -10.5h-288q-16 0 -26 10.5t-8 27.5l91 644q2 13 13 23t25 10t22 -10t6 -23l-87 -619h261q11 0 19 -8t8 -20z" />
    <glyph glyph-name="M" unicode="M" horiz-adv-x="699" 
d="M633 22q-2 -13 -12.5 -22t-23.5 -9q-14 0 -23.5 9t-7.5 22l75 530q-26 -43 -55.5 -91.5t-60 -98.5t-60.5 -98.5t-57 -91.5q-12 -20 -34 -20t-30 20l-126 380l-75 -530q-2 -13 -13 -22t-26 -9q-13 0 -21 9t-6 22l93 658q2 16 13.5 26t27.5 10q24 0 33 -23v1l145 -443
l268 444v-1q8 12 18 17t21 5q14 0 23 -10.5t7 -25.5z" />
    <glyph glyph-name="N" unicode="N" horiz-adv-x="600" 
d="M488 -9q-10 0 -19.5 5t-13.5 14l-228 571l-78 -556q-2 -14 -13.5 -24t-25.5 -10t-22 10t-6 24l91 653q3 17 15 27.5t28 10.5q25 0 33 -21l228 -572l79 559q2 14 13.5 24t25.5 10t21.5 -10t5.5 -24l-92 -654q-2 -16 -13.5 -26.5t-28.5 -10.5z" />
    <glyph glyph-name="O" unicode="O" horiz-adv-x="551" 
d="M276 -9q-57 0 -96.5 19.5t-63.5 54t-32 80.5t0 99l31 219q7 52 26 98t51 80.5t78 54.5t108 20q61 0 101 -20t62.5 -54.5t29 -80.5t-0.5 -98l-31 -219q-8 -53 -28.5 -99t-54 -80.5t-78.5 -54t-102 -19.5zM369 652q-45 0 -77.5 -13.5t-55 -38.5t-35.5 -60t-19 -77l-31 -219
q-6 -42 -1.5 -76.5t21 -59.5t45 -39t69.5 -14t73 14t55.5 39t38 59.5t20.5 76.5l31 219q6 42 2 77t-19.5 60t-44 38.5t-72.5 13.5z" />
    <glyph glyph-name="P" unicode="P" horiz-adv-x="530" 
d="M183 267l-34 -241q-2 -14 -13 -24.5t-25 -10.5q-13 0 -21.5 10t-6.5 25l89 638q3 17 17 29.5t31 12.5h150q53 0 90 -15t60 -40.5t33 -59.5t10 -71q0 -60 -18.5 -107.5t-52 -79.5t-80 -49t-103.5 -17h-126zM192 331h126q179 0 179 184q0 24 -6 47t-21.5 41t-42 28.5
t-66.5 10.5h-126z" />
    <glyph glyph-name="Q" unicode="Q" horiz-adv-x="551" 
d="M363 -180q-64 0 -94 47t-23 125q-48 6 -82 28t-54 55.5t-26.5 76.5t0.5 92l31 219q7 52 26 98t51.5 80.5t78.5 54.5t108 20q61 0 101 -20t62.5 -54.5t28.5 -80.5t-1 -98l-31 -219q-7 -48 -25 -91t-46.5 -76t-67.5 -55t-87 -29q-8 -64 11 -89.5t61 -25.5q5 0 9 0.5t9 0.5
h11q28 0 28 -26q0 -24 -23 -28.5t-56 -4.5zM370 652q-45 0 -77.5 -13.5t-55 -38.5t-36 -60t-19.5 -77l-31 -219q-6 -42 -1 -76.5t21.5 -59.5t45 -39t69.5 -14t73 14t55.5 39t37.5 59.5t20 76.5l31 219q6 42 2.5 77t-19 60t-44 38.5t-72.5 13.5z" />
    <glyph glyph-name="R" unicode="R" horiz-adv-x="575" 
d="M585 538q0 -91 -52 -146t-139 -72l130 -278l-1 1q2 -6 2 -15q0 -17 -15 -26.5t-26 -9.5q-17 0 -25 15l-139 311h-130l-41 -292q-2 -14 -13.5 -24.5t-25.5 -10.5q-13 0 -21.5 10t-6.5 25l89 638q3 17 16.5 29.5t29.5 12.5h178q54 0 90 -14t58.5 -37.5t32 -54t9.5 -62.5z
M518 531q0 21 -6 41t-21.5 35.5t-42 25t-66.5 9.5h-147l-36 -261h153q81 0 123.5 38.5t42.5 111.5z" />
    <glyph glyph-name="S" unicode="S" horiz-adv-x="486" 
d="M400 208q0 40 -15.5 60.5t-32.5 29.5q-14 8 -34 16t-41 16q-29 10 -57 22t-51 30.5t-37 46t-14 68.5q0 50 16.5 90.5t46.5 69t72.5 44t94.5 15.5q18 0 44.5 -2.5t51.5 -9t43 -17.5t18 -29q0 -14 -10 -24.5t-27 -10.5q-8 0 -17 2.5t-17 6.5q-17 7 -37.5 13.5t-51.5 6.5
q-29 0 -57 -7t-50 -23.5t-35 -43.5t-13 -68q0 -21 5 -36t12.5 -25.5t16 -17.5t16.5 -11q15 -8 35.5 -16.5t40.5 -15.5q28 -9 56 -21.5t50.5 -31.5t36.5 -47t14 -68q0 -54 -19.5 -96.5t-53 -72t-78.5 -45t-96 -15.5q-23 0 -52.5 3.5t-56 11t-45 19.5t-18.5 30q0 14 11 25
t24 11q5 0 14.5 -3t20.5 -8q19 -8 46 -16.5t66 -8.5q82 0 123 41.5t41 111.5z" />
    <glyph glyph-name="T" unicode="T" horiz-adv-x="483" 
d="M300 642h-146q-14 0 -22 8t-8 20t12 24t27 12h359q12 0 21 -8t9 -21q0 -14 -12 -24.5t-27 -10.5h-147l-87 -618q-2 -14 -12.5 -23.5t-24.5 -9.5t-22.5 9.5t-6.5 23.5z" />
    <glyph glyph-name="U" unicode="U" horiz-adv-x="572" 
d="M539 228q-7 -51 -28 -94.5t-53.5 -75t-75.5 -49.5t-94 -18q-53 0 -91.5 18t-61.5 49.5t-31.5 75t-1.5 94.5l64 452q2 16 14 26t26 10t21.5 -10.5t5.5 -25.5l-64 -452q-11 -77 20 -125t108 -48q39 0 69 13t51.5 36t35 54.5t18.5 69.5l64 452q2 14 13 25t25 11t23 -11
t7 -25l-64 -452v0z" />
    <glyph glyph-name="V" unicode="V" horiz-adv-x="529" 
d="M281 99l264 592q5 11 15.5 18t19.5 7q14 0 22.5 -7.5t8.5 -21.5q0 -5 -1.5 -11t-2.5 -7l-287 -630q-10 -20 -22.5 -34t-31.5 -14q-20 0 -28 13.5t-11 34.5l-111 630v8q0 18 12 28.5t28 10.5q8 0 16.5 -8t12.5 -17z" />
    <glyph glyph-name="W" unicode="W" horiz-adv-x="776" 
d="M475 587q-23 -63 -49 -134t-53 -144t-53.5 -144t-48.5 -133q-7 -14 -19.5 -27.5t-33.5 -13.5q-19 0 -29 12t-13 29l-62 648l1 4q2 14 15 21t27 7q9 0 17 -6.5t10 -17.5l53 -578l202 552q10 25 21.5 39.5t32.5 14.5q20 0 27.5 -15t9.5 -39l50 -553l214 579q5 11 13 17.5
t17 6.5q13 0 25.5 -6t12.5 -20q0 -2 -0.5 -6t-2.5 -6v-1l-242 -641q-7 -16 -20.5 -28.5t-32.5 -12.5q-20 0 -30 13t-12 29z" />
    <glyph glyph-name="X" unicode="X" horiz-adv-x="500" 
d="M85 16q-5 -8 -13.5 -16.5t-21.5 -8.5q-11 0 -19 9t-8 21q0 14 8 22l234 325l-132 297l1 -1q-2 8 -2 16q0 14 10.5 25t24.5 11q10 0 18.5 -9.5t13.5 -22.5l112 -268l187 268h-1q8 11 18.5 21.5t24.5 10.5q11 0 17.5 -8.5t6.5 -20.5q0 -7 -2.5 -12.5t-4.5 -10.5l1 1
l-213 -297l142 -325q2 -6 2 -13q0 -16 -11.5 -27.5t-23.5 -11.5q-11 0 -18 8.5t-12 16.5l-126 303z" />
    <glyph glyph-name="Y" unicode="Y" horiz-adv-x="476" 
d="M240 -9q-15 0 -23.5 10t-6.5 25l36 253l-128 386q-2 8 -2 14q0 14 13 25.5t27 11.5q16 0 22 -13v1l113 -351l210 351v-1q5 7 12 10t15 3q12 0 20.5 -9t8.5 -21q0 -5 -2 -11t-4 -10l-238 -390l-35 -249q-2 -14 -13 -24.5t-25 -10.5z" />
    <glyph glyph-name="Z" unicode="Z" horiz-adv-x="484" 
d="M458 39q0 -17 -11 -27.5t-27 -10.5h-350q-14 0 -22.5 9t-8.5 23q0 8 5 18t9 15l403 574h-297q-13 0 -21 8t-8 20q0 15 11.5 26.5t26.5 11.5h346q14 0 23 -9t9 -23q0 -9 -5 -17.5t-9 -14.5l-404 -575h301q13 0 21 -8t8 -20z" />
    <glyph glyph-name="bracketleft" unicode="[" horiz-adv-x="294" 
d="M252 -88q0 -20 -16.5 -27.5t-32.5 -7.5h-104q-13 0 -21.5 9.5t-6.5 21.5l122 864q2 18 16.5 25t33.5 7h104q10 0 18 -8t8 -20q0 -19 -15.5 -26t-31.5 -7h-72l-113 -804h72q15 0 27 -5.5t12 -21.5z" />
    <glyph glyph-name="backslash" unicode="\" horiz-adv-x="280" 
d="M81 718l-1 5q1 13 9.5 23.5t20.5 12.5q11 2 20.5 -3t11.5 -16l159 -740q3 -16 -7 -29t-23 -15q-11 -2 -20 3.5t-11 16.5z" />
    <glyph glyph-name="bracketright" unicode="]" horiz-adv-x="294" 
d="M198 -92q-2 -13 -11.5 -22t-22.5 -9h-105q-16 0 -29 6t-13 22q0 20 16 27t34 7h71l113 804h-71q-15 0 -28 5t-13 21q0 20 16.5 27.5t33.5 7.5h105q11 0 19.5 -10t6.5 -22l-122 -864v0z" />
    <glyph glyph-name="asciicircum" unicode="^" horiz-adv-x="326" 
d="M123 527q-6 -8 -19 -8q-11 0 -17 5t-4 13t8.5 17t14.5 18l133 139q11 13 27 13q14 0 22 -13l94 -139q14 -19 14 -35l-1 1q-3 -19 -25 -19q-12 0 -18 8l-94 142z" />
    <glyph glyph-name="underscore" unicode="_" horiz-adv-x="600" 
d="M605 -179q12 0 21.5 -9.5t9.5 -23.5q0 -13 -9 -22t-22 -9h-603q-14 0 -23.5 9t-9.5 22q0 14 10 23.5t23 9.5h603z" />
    <glyph glyph-name="grave" unicode="`" horiz-adv-x="197" 
d="M257 625q3 -3 3 -8q0 -12 -9.5 -21t-20.5 -9q-8 0 -14 4t-12 12l-68 88q-3 4 -3 10q0 11 9.5 20t18.5 9q8 0 12.5 -4t10.5 -10z" />
    <glyph glyph-name="a" unicode="a" horiz-adv-x="482" 
d="M206 -7q-39 0 -66.5 13.5t-44 38t-21.5 59t1 75.5l19 131q6 45 20.5 82.5t39 64.5t61 42.5t86.5 15.5q46 0 76.5 -13t47.5 -38.5t21.5 -63t-2.5 -86.5l-31 -226q-6 -39 21 -39q3 0 4.5 0.5t3.5 0.5q10 0 14.5 -7t4.5 -16q0 -17 -14 -24t-28 -7q-23 0 -40.5 15.5
t-27.5 41.5q-68 -60 -145 -60zM230 49q32 0 60 12t59 37l34 243q16 119 -90 119q-61 0 -92 -36.5t-42 -113.5l-19 -131q-18 -130 90 -130z" />
    <glyph glyph-name="b" unicode="b" horiz-adv-x="485" 
d="M165 147q-6 -45 22 -70t82 -25q60 0 91.5 31t39.5 85l27 194q7 47 -14.5 73t-77.5 26q-40 0 -73 -15.5t-61 -41.5zM178 701q2 12 11.5 22t25.5 10t23 -10t5 -22l-33 -235q37 24 74 36.5t79 12.5t69 -12t42 -32.5t18.5 -48.5t-0.5 -60l-27 -194q-5 -37 -21 -69t-42 -55.5
t-61.5 -37t-80.5 -13.5q-44 0 -76 12t-52 33t-28.5 49t-3.5 60z" />
    <glyph glyph-name="c" unicode="c" horiz-adv-x="393" 
d="M96 330q6 38 21 71.5t40 58t60.5 38.5t82.5 14q16 0 38 -2.5t41.5 -8.5t33.5 -16t14 -25q0 -12 -9 -21t-22 -9q-5 0 -8 0.5t-6 1.5h1q-18 10 -36.5 17.5t-46.5 7.5q-66 0 -98 -33.5t-41 -93.5l-22 -156q-8 -60 15 -93t89 -33q29 0 49 7.5t40 16.5h-1q10 3 15 3
q11 0 17.5 -7t6.5 -18q0 -17 -15.5 -27.5t-38 -17.5t-47 -9.5t-42.5 -2.5q-47 0 -78.5 14t-50 38.5t-24 57.5t-0.5 71z" />
    <glyph glyph-name="d" unicode="d" horiz-adv-x="488" 
d="M287 511q25 0 56 -5.5t62 -16.5l30 212q2 13 11.5 22.5t25.5 9.5t23 -9.5t5 -22.5l-83 -591q-4 -23 0 -38.5t20 -29.5q2 -6 2 -11q0 -14 -10 -22.5t-22 -8.5q-16 0 -27.5 9.5t-19.5 25.5q-38 -18 -77.5 -30t-76.5 -12q-39 0 -66.5 13.5t-43.5 38t-21.5 59t0.5 75.5
l19 131q6 45 19.5 82t36 63.5t56.5 41t81 14.5zM397 432q-28 12 -58 18.5t-49 6.5q-61 0 -90.5 -35t-40.5 -112l-19 -131q-17 -130 90 -130q27 0 59 9t63 23q-2 13 -1.5 18.5t1.5 10.5z" />
    <glyph glyph-name="e" unicode="e" horiz-adv-x="435" 
d="M243 48q35 0 60 8.5t54 20.5q2 1 5 2t6 1q11 0 18 -7.5t7 -17.5q0 -18 -18.5 -29.5t-45 -19t-55 -10.5t-49.5 -3q-42 0 -73 12.5t-50.5 34.5t-27 51.5t-2.5 64.5l27 192q5 36 21 66.5t42 53t62 35t80 12.5q73 0 107.5 -36t34.5 -97q0 -78 -44 -125t-144 -47
q-25 0 -54 2.5t-58 8.5l-10 -71q-6 -46 20.5 -74t86.5 -28zM382 375q0 44 -23 63.5t-66 19.5q-54 0 -87.5 -27.5t-40.5 -74.5l-12 -85q32 -5 66 -6.5t50 -1.5q63 0 88 30.5t25 81.5z" />
    <glyph glyph-name="f" unicode="f" horiz-adv-x="329" 
d="M157 546q7 47 24.5 81.5t44 57.5t59.5 34.5t71 13.5h19.5t27 -3.5t24 -11t10.5 -20.5q0 -16 -10.5 -25t-24.5 -9q-13 0 -23 2t-19.5 3.5t-19.5 1.5q-25 0 -45 -9.5t-35 -25.5t-24.5 -37t-12.5 -45l-10 -71h116q11 0 17.5 -7.5t6.5 -19.5q0 -14 -9.5 -23.5t-22.5 -9.5
h-116l-84 -599q-2 -14 -11.5 -22.5t-25.5 -8.5t-23 8.5t-5 22.5z" />
    <glyph glyph-name="g" unicode="g" horiz-adv-x="509" 
d="M416 357q7 47 -20.5 73.5t-81.5 26.5q-60 0 -92.5 -32t-40.5 -89l-23 -163q-8 -58 12.5 -91.5t79.5 -33.5q34 0 67.5 12.5t62.5 39.5zM424 -48q-5 -38 -20 -71.5t-40 -58t-60 -38.5t-81 -14q-17 0 -39.5 2.5t-42.5 8.5t-33.5 16t-13.5 25q0 11 9.5 21t21.5 10q6 0 15 -3
h-1q17 -10 35.5 -17t47.5 -7q65 0 97 33t40 93l12 85q-35 -20 -71 -31.5t-74 -11.5q-45 0 -73.5 13.5t-43.5 37.5t-18 57t2 71l23 163q5 38 21 70.5t42 56.5t62 38t81 14q43 0 75 -12.5t52.5 -33.5t28.5 -50t3 -62z" />
    <glyph glyph-name="h" unicode="h" horiz-adv-x="507" 
d="M417 350q8 51 -11 78.5t-71 27.5q-32 0 -69.5 -16t-67.5 -50l-51 -365q-2 -14 -12 -23t-23 -9q-14 0 -22 9t-6 23l95 681q2 12 12 22.5t24 10.5t21.5 -9.5t5.5 -23.5l-34 -243q36 25 73 38.5t72 13.5q39 0 66 -12t43 -34t20.5 -52t-0.5 -66l-36 -261q-6 -35 9 -54
q2 -2 2 -5.5v-6.5q0 -13 -9.5 -22t-23.5 -9q-8 0 -17.5 3t-16.5 13t-10.5 29.5t1.5 51.5z" />
    <glyph glyph-name="i" unicode="i" horiz-adv-x="245" 
d="M262 686q0 -19 -15 -32.5t-33 -13.5q-17 0 -26.5 11t-9.5 25q0 20 14 33.5t34 13.5q15 0 25.5 -10.5t10.5 -26.5zM159 479q2 14 12.5 23.5t24.5 9.5q13 0 21.5 -9.5t6.5 -23.5l-55 -389q-2 -17 0 -29.5t9 -24.5q1 -2 2 -5.5t1 -6.5q0 -13 -10 -22t-24 -9q-8 0 -17.5 3
t-16.5 13t-10.5 29.5t1.5 51.5z" />
    <glyph glyph-name="j" unicode="j" horiz-adv-x="245" 
d="M154 -23q-11 -76 -55 -125t-110 -60q-6 -1 -9.5 -0.5t-8.5 0.5q-9 0 -16 5.5t-8 14.5q-2 17 9 25t21 10q47 10 75 38t36 88l72 506q2 14 12.5 23.5t24.5 9.5q13 0 21.5 -9.5t6.5 -23.5zM262 686q0 -19 -14.5 -32.5t-32.5 -13.5q-17 0 -27 11t-10 26q0 19 14.5 32.5
t34.5 13.5q15 0 25 -10.5t10 -26.5z" />
    <glyph glyph-name="k" unicode="k" horiz-adv-x="439" 
d="M187 297l229 207q7 7 20 7q11 0 18.5 -7.5t7.5 -18.5q0 -6 -2 -13t-8 -12l-179 -159l140 -263q2 -2 3 -7.5t1 -9.5q0 -13 -10.5 -20.5t-24.5 -7.5q-18 0 -25 15l-129 251l-53 -48l-26 -186q-2 -14 -13 -23t-24 -9q-14 0 -22 9t-6 23l94 675q2 14 13 23.5t25 9.5
q13 0 21 -9.5t6 -23.5z" />
    <glyph glyph-name="l" unicode="l" horiz-adv-x="228" 
d="M180 692q2 13 12 23t24 10t22 -9.5t6 -23.5l-85 -602q-5 -35 10 -54q2 -2 2.5 -5.5t0.5 -6.5q0 -13 -10 -22t-24 -9q-8 0 -17.5 3t-16.5 13t-10.5 29.5t1.5 51.5z" />
    <glyph glyph-name="m" unicode="m" horiz-adv-x="778" 
d="M191 466q39 23 79 36t80 13t67 -14.5t44 -41.5q38 26 77 41t81 15q80 0 115.5 -46.5t24.5 -121.5l-36 -257q-6 -32 9 -54q2 -4 2 -12q0 -13 -9.5 -22t-23.5 -9q-8 0 -17.5 3t-16.5 13t-10.5 29.5t1.5 51.5l36 255q3 23 -0.5 43.5t-14 35.5t-28 24t-43.5 9q-35 0 -70 -17
t-59 -43q1 -11 0.5 -23.5t-2.5 -26.5l-45 -322q-2 -14 -11 -22.5t-26 -8.5t-23.5 8.5t-4.5 22.5l42 299q4 29 4 53.5t-7.5 42t-24.5 27.5t-47 10q-35 0 -71 -14t-62 -32v-17.5t-2 -18.5l-49 -350q-2 -14 -11.5 -22.5t-25.5 -8.5q-17 0 -23.5 8.5t-4.5 22.5l49 350
q4 26 2 43.5t-10 32.5q-3 6 -3 14q0 14 10.5 23t22.5 9q10 0 19.5 -7t15.5 -24z" />
    <glyph glyph-name="n" unicode="n" horiz-adv-x="509" 
d="M194 464q41 26 80.5 37.5t76.5 11.5q78 0 109.5 -51.5t19.5 -135.5l-33 -236q-2 -17 -0.5 -30t9.5 -24q2 -4 2 -12q0 -13 -9.5 -22t-23.5 -9q-8 0 -17.5 3t-16.5 13t-10.5 29.5t1.5 51.5l33 236q9 63 -12 97t-72 34q-32 0 -64.5 -13t-64.5 -35q1 -8 0.5 -17t-1.5 -17
l-49 -350q-2 -14 -11.5 -22.5t-25.5 -8.5q-17 0 -24 8.5t-5 22.5l50 350q4 26 2 43.5t-10 32.5q-3 6 -3 14q0 14 10.5 23t22.5 9q10 0 20 -8t16 -25z" />
    <glyph glyph-name="o" unicode="o" horiz-adv-x="464" 
d="M234 -7q-45 0 -77.5 13.5t-52.5 37t-27.5 55.5t-2.5 69l24 172q5 37 21.5 69t43.5 56t63.5 37.5t81.5 13.5t78 -13.5t53 -37.5t27 -56t2 -69l-24 -172q-5 -37 -21.5 -69t-43.5 -55.5t-63.5 -37t-81.5 -13.5zM243 52q60 0 94 31t42 85l24 173q8 54 -17.5 85.5t-85.5 31.5
t-94.5 -31.5t-42.5 -85.5l-24 -173q-8 -54 18 -85t86 -31z" />
    <glyph glyph-name="p" unicode="p" horiz-adv-x="478" 
d="M269 -6q-27 0 -58 5.5t-61 15.5l-28 -199q-2 -13 -11.5 -22t-24.5 -9q-17 0 -24 9t-5 22l79 557q4 26 2 43.5t-10 32.5q-4 8 -4 14q0 14 11 23t23 9q10 0 18.5 -8t15.5 -20q41 20 81.5 34t78.5 14q39 0 66 -13.5t42.5 -38.5t20.5 -59t-1 -76l-18 -134q-6 -44 -19.5 -81
t-36.5 -63.5t-56.5 -41t-80.5 -14.5zM158 72q26 -12 57 -18t52 -6q60 0 89.5 35t40.5 111l18 134q9 64 -12 97.5t-76 33.5q-27 0 -60 -11t-65 -29q1 -11 1 -22.5t-2 -23.5z" />
    <glyph glyph-name="q" unicode="q" horiz-adv-x="485" 
d="M397 357q7 47 -20.5 73.5t-81.5 26.5q-60 0 -92.5 -32t-40.5 -89l-23 -163q-8 -58 12.5 -91.5t79.5 -33.5q34 0 67.5 12.5t62.5 39.5zM386 -184q-2 -13 -11 -22t-25 -9q-17 0 -24 9t-5 22l31 221q-35 -20 -71 -31.5t-74 -11.5q-45 0 -73.5 13.5t-43.5 37.5t-18 57t2 71
l23 163q5 38 21 70.5t42 56.5t62 38t81 14q43 0 75 -12.5t52.5 -33.5t28.5 -50t3 -62z" />
    <glyph glyph-name="r" unicode="r" horiz-adv-x="337" 
d="M153 25q-2 -14 -13 -23t-24 -9q-14 0 -22 9t-6 23l48 348q4 26 2.5 43.5t-9.5 32.5q-4 8 -4 14q0 14 10.5 23t24.5 9q10 0 19 -8.5t15 -22.5q38 23 80 35t70 12q23 0 32.5 -8t9.5 -20q0 -17 -11.5 -28t-25.5 -10q-17 0 -33 -0.5t-33 -4t-36 -12t-42 -23.5v-1v-4
q0 -3 -1 -9.5t-3 -17.5z" />
    <glyph glyph-name="s" unicode="s" horiz-adv-x="406" 
d="M110 356q0 70 46 114.5t134 44.5q19 0 40.5 -2.5t40 -7.5t30.5 -14.5t12 -22.5t-10 -22.5t-24 -9.5q-5 0 -7.5 1t-6.5 3q-17 8 -33.5 14t-45.5 6q-58 0 -85 -24t-27 -69q0 -21 10.5 -35.5t33.5 -27.5q25 -14 54 -25t54 -26t41 -37.5t16 -60.5q0 -74 -47.5 -118
t-139.5 -44q-18 0 -42 2t-45.5 7.5t-36 15t-14.5 23.5q0 12 10 22.5t25 10.5q3 0 6 -1q21 -9 46 -17t59 -8q51 0 83 23t32 74q0 25 -9 38.5t-23 21.5q-26 14 -56.5 25t-57.5 26t-45 38t-18 62z" />
    <glyph glyph-name="t" unicode="t" horiz-adv-x="321" 
d="M170 633q2 13 11 22.5t25 9.5t23 -9.5t5 -22.5l-21 -150h116q11 0 18 -7.5t7 -19.5q0 -14 -10 -23.5t-24 -9.5h-116l-30 -214q-6 -42 -7 -71t6.5 -47t25 -26t47.5 -8q5 0 10 0.5t10 0.5q14 0 27.5 -4.5t13.5 -21.5q0 -24 -17.5 -29.5t-37.5 -5.5q-52 0 -83.5 13t-47 38.5
t-17.5 64t5 89.5z" />
    <glyph glyph-name="u" unicode="u" horiz-adv-x="509" 
d="M434 480q2 14 11 23t26 9q16 0 23 -9t5 -23l-51 -360q-3 -19 -3.5 -30.5t0 -18t2 -10t3.5 -6.5q4 -5 7.5 -12t3.5 -14q0 -12 -10 -21t-24 -9q-13 0 -21.5 9t-16.5 24q-39 -21 -79 -30t-75 -9q-78 0 -110 51t-20 135l42 301q2 14 11.5 23t25.5 9t23 -9t5 -23l-42 -301
q-9 -62 12 -96t72 -34q32 0 64 10t63 28v15.5t2 17.5z" />
    <glyph glyph-name="v" unicode="v" horiz-adv-x="430" 
d="M271 35q-11 -23 -23 -32.5t-29 -9.5q-33 0 -40 41l-81 440q-3 15 9.5 26.5t28.5 11.5q8 0 15.5 -4t9.5 -17l70 -413l184 413q3 8 11.5 15t20.5 6q11 -1 19 -9t8 -20q0 -5 -0.5 -7.5t-1.5 -4.5z" />
    <glyph glyph-name="w" unicode="w" horiz-adv-x="655" 
d="M521 33q-8 -20 -18.5 -30t-30.5 -10q-13 0 -23.5 7.5t-12.5 21.5l-45 389q-17 -44 -36 -94t-39 -101t-40 -101t-39 -93q-13 -29 -45 -29q-17 0 -27 11t-12 29l-58 446v2q2 12 13 21.5t25 9.5q9 0 16.5 -6.5t9.5 -16.5l47 -403q45 107 82.5 204.5t73.5 190.5q6 13 17 22
t27 9q14 0 22 -9t10 -22q4 -37 8 -76t9.5 -85.5t13 -103.5t16.5 -130l158 403q4 10 14 16.5t20 6.5q13 0 20.5 -9.5t5.5 -23.5v-2z" />
    <glyph glyph-name="x" unicode="x" horiz-adv-x="431" 
d="M111 466q-2 2 -2 9q0 17 12.5 27t23.5 10q12 0 18 -6t11 -17l90 -178l140 178q8 11 15.5 17t19.5 6q10 0 18.5 -8t8.5 -20q0 -14 -7 -18l-167 -207l117 -219q2 -4 2 -11q0 -14 -11 -25t-27 -11q-12 0 -18 5.5t-12 17.5l-96 189l-156 -196q-13 -16 -28 -16q-14 0 -22 7.5
t-8 20.5q0 7 1.5 10t4.5 7l181 221z" />
    <glyph glyph-name="y" unicode="y" horiz-adv-x="509" 
d="M137 480q2 14 11.5 23t25.5 9t23 -9t5 -23l-44 -307q-8 -58 12 -91.5t80 -33.5q34 0 67.5 12.5t62.5 39.5l53 380q2 14 11.5 23t26.5 9q16 0 22.5 -9t4.5 -23l-74 -528q-5 -38 -20 -71.5t-40 -58t-60 -38.5t-81 -14q-17 0 -39.5 2.5t-42.5 8.5t-33.5 16t-13.5 25
q0 11 9.5 21t21.5 10q6 0 15 -3h-1q17 -10 35.5 -17t47.5 -7q65 0 97 33t40 93l12 85q-35 -20 -71 -31.5t-74 -11.5q-45 0 -73.5 13.5t-43.5 37.5t-18 57t2 71z" />
    <glyph glyph-name="z" unicode="z" horiz-adv-x="384" 
d="M434 476q0 -8 -4 -17t-7 -13l-316 -387h241q11 0 18.5 -8t7.5 -19q0 -14 -10.5 -23t-24.5 -9h-285q-12 0 -20.5 8.5t-8.5 22.5q0 5 2.5 13t6.5 13l319 389h-230q-11 0 -18.5 7.5t-7.5 18.5q0 14 10 23.5t24 9.5h273q14 0 22 -7.5t8 -21.5z" />
    <glyph glyph-name="braceleft" unicode="{" horiz-adv-x="417" 
d="M99 210q-29 0 -29 25q0 16 10.5 25t26.5 9q43 0 67.5 23.5t34.5 75.5q4 20 8.5 43t8.5 44l20 102q12 54 59.5 86t111.5 32q17 0 32 -5.5t15 -25.5q0 -12 -4 -18.5t-10 -9t-12.5 -2.5t-11.5 1q-9 1 -17.5 2t-10.5 1q-29 0 -55.5 -19t-33.5 -54q-8 -43 -16.5 -86t-16.5 -85
q-8 -45 -33.5 -79.5t-68.5 -55.5q37 -20 52.5 -55t12.5 -80l-16 -170q-4 -35 17 -54t50 -19q7 0 16 0.5t15 1.5q4 1 9.5 1t10.5 -1.5t8 -5.5t3 -12q0 -14 -5.5 -22t-13.5 -12t-18.5 -5.5t-20.5 -1.5q-65 0 -103 31.5t-34 85.5l15 189q5 53 -12.5 76.5t-60.5 23.5z" />
    <glyph glyph-name="bar" unicode="|" horiz-adv-x="227" 
d="M188 732q2 11 11.5 20t21.5 9q13 0 20 -9t5 -20l-133 -948q-2 -11 -11 -19.5t-22 -8.5q-12 0 -19.5 8.5t-5.5 19.5z" />
    <glyph glyph-name="braceright" unicode="}" horiz-adv-x="417" 
d="M382 210q-43 0 -67 -23.5t-35 -76.5q-9 -47 -19 -94t-19 -95q-6 -27 -21 -48.5t-37.5 -37t-51 -23.5t-60.5 -8q-18 0 -33 5t-15 25q0 12 4 18.5t10 9t12.5 2.5t11.5 -1q7 -1 15 -1.5t14 -0.5q15 0 29.5 5t27 14.5t21.5 23t12 30.5q8 42 16 85t16 85q8 46 33.5 80.5
t68.5 54.5q-37 21 -53 55.5t-11 79.5l16 171q2 35 -19.5 54t-50.5 19q-2 0 -11 -1t-19 -2q-9 -1 -20 0.5t-11 18.5q0 27 18.5 34t40.5 7q64 0 101.5 -32t34.5 -86l-8 -102l-7 -87q-5 -52 13 -75.5t61 -23.5q28 0 28 -26q0 -16 -10 -24.5t-26 -8.5z" />
    <glyph glyph-name="asciitilde" unicode="~" horiz-adv-x="454" 
d="M440 357q0 -15 -10 -28t-25.5 -22.5t-33.5 -15t-34 -6.5l1 1q-22 0 -38.5 7t-31.5 15q-11 6 -23 10.5t-32 7.5q-14 0 -27 -7t-24 -15q-6 -5 -11 -8.5t-13 -3.5q-12 0 -19.5 7t-7.5 20q2 15 12 28t24 22.5t32 15t36 5.5q17 0 34.5 -7t31.5 -14q10 -5 23.5 -11t27.5 -8
q23 0 36 6.5t23 14.5q5 4 12 8t14 6q10 -1 16.5 -9t6.5 -19z" />
    <glyph glyph-name="exclamdown" unicode="&#xa1;" horiz-adv-x="227" 
d="M132 297q2 11 9.5 18.5t17.5 7.5q8 0 14 -6.5t6 -16.5q0 -123 -19 -244l-38 -242q-2 -13 -13.5 -23t-25.5 -10t-23 10t-7 23zM226 464q0 -22 -15.5 -37t-37.5 -15q-17 0 -29.5 12t-12.5 29q0 21 17.5 37.5t38.5 16.5q18 0 28.5 -13t10.5 -30z" />
    <glyph glyph-name="cent" unicode="&#xa2;" horiz-adv-x="500" 
d="M236 22q-40 4 -67 19.5t-42.5 39.5t-20.5 55t0 67l15 104q5 35 18.5 66t35.5 54.5t53.5 39t72.5 19.5l7 51q2 8 8.5 14t14.5 6t12.5 -6t2.5 -14l-7 -50q18 -2 37 -5.5t35.5 -9.5t27 -15t10.5 -22q0 -11 -9 -20t-22 -9q-5 0 -8 0.5t-6 1.5h1q-14 7 -29.5 13t-44.5 10
l-49 -353q29 3 46 9.5t34 14.5h-1q9 3 15 3q11 0 17 -7t6 -17q0 -14 -12 -24.5t-31 -17.5t-41 -11t-41 -6l-8 -58q-2 -8 -7.5 -13t-13.5 -5t-13.5 5t-3.5 13zM171 203q-7 -50 9 -81t64 -42l49 349q-51 -10 -75.5 -41t-31.5 -81z" />
    <glyph glyph-name="yen" unicode="&#xa5;" horiz-adv-x="476" 
d="M217 363q-23 72 -49.5 151t-49.5 151q-2 8 -2 14q0 14 13 25.5t27 11.5q16 0 22 -13v1l113 -351l210 351v-1q5 7 12 10t15 3q12 0 20 -9t8 -21q0 -5 -1.5 -11t-3.5 -10l-186 -302h89q11 0 19.5 -8t8.5 -20q0 -13 -11 -23t-25 -10h-116l-17 -27l-6 -45h129q11 0 19.5 -8
t8.5 -20q0 -13 -11.5 -22.5t-25.5 -9.5h-129l-20 -144q-2 -14 -13 -24.5t-25 -10.5q-15 0 -23.5 10t-6.5 25l20 144h-128q-12 0 -20.5 7.5t-8.5 18.5q0 14 12 24t26 10h128l6 49l-8 23h-116q-13 0 -21 8t-8 19q0 14 12 24t25 10h88z" />
    <glyph glyph-name="dieresis" unicode="&#xa8;" horiz-adv-x="403" 
d="M423 651q0 -20 -14 -33.5t-32 -13.5q-15 0 -26 11t-11 26q0 18 15.5 32t33.5 14q15 0 24.5 -11t9.5 -25zM250 651q0 -20 -14 -33.5t-33 -13.5q-15 0 -25 11t-10 26q0 17 14.5 31.5t32.5 14.5q16 0 25.5 -11t9.5 -25z" />
    <glyph glyph-name="copyright" unicode="&#xa9;" horiz-adv-x="740" 
d="M726 365q0 -80 -24 -148t-69.5 -118t-111 -78.5t-149.5 -28.5q-65 0 -114.5 20t-83 55.5t-50.5 85t-17 109.5q0 79 24.5 147.5t70 118.5t111.5 78.5t150 28.5q65 0 114.5 -20t82.5 -55.5t49.5 -85t16.5 -109.5zM680 358q0 51 -14 93.5t-42.5 73t-70.5 47.5t-97 17
q-71 0 -127 -24.5t-95 -67.5t-59.5 -101.5t-20.5 -126.5q0 -51 14 -93.5t42.5 -73t70.5 -47.5t98 -17q71 0 127 24.5t94.5 67.5t59 101.5t20.5 126.5zM292 344q4 30 16 56t31.5 45.5t47.5 30.5t64 11q13 0 30 -2t32.5 -6.5t26 -12t10.5 -19.5q0 -9 -6.5 -15.5t-15.5 -6.5h-7
q-14 9 -30.5 15.5t-38.5 6.5q-53 0 -79 -27t-33 -76l-9 -62q-7 -48 12 -74.5t72 -26.5q23 0 37.5 5t29.5 11h-3l7 2q9 3 11 3q8 0 12 -5.5t4 -12.5q0 -13 -12 -21.5t-29.5 -13.5t-36.5 -7t-33 -2q-36 0 -61 11t-39 30t-18.5 45t-0.5 56z" />
    <glyph glyph-name="guillemotleft" unicode="&#xab;" horiz-adv-x="431" 
d="M275 40q0 -2 0.5 -5t0.5 -6q0 -14 -10.5 -25t-26.5 -11q-12 0 -17.5 5.5t-11.5 17.5q-31 60 -62.5 119t-62.5 119l184 230q8 11 16 17.5t20 6.5q10 0 18 -8t8 -20q0 -14 -6 -18l-166 -206zM400 105q1 -2 1 -9q0 -15 -11.5 -25.5t-23.5 -10.5q-11 0 -17 6t-11 17l-90 171
l138 172q8 11 16 17.5t19 6.5t18.5 -8t7.5 -20q0 -14 -5 -18l-119 -150z" />
    <glyph glyph-name="registered" unicode="&#xae;" horiz-adv-x="700" 
d="M702 474q0 -73 -22 -135t-64 -107.5t-103.5 -71t-139.5 -25.5q-62 0 -108 18t-77.5 50.5t-47 77.5t-15.5 99q0 73 22.5 136.5t65 110t104 73t139.5 26.5q61 0 107.5 -18.5t77 -51.5t46 -79.5t15.5 -102.5zM656 467q0 47 -13 86.5t-38.5 67.5t-64.5 43.5t-90 15.5
q-66 0 -118 -22.5t-87.5 -62t-54 -93t-18.5 -115.5q0 -45 13 -83t39 -65.5t65 -42.5t91 -15q66 0 117 21.5t86.5 60t54 90.5t18.5 114zM529 502q0 -35 -18.5 -59.5t-50.5 -38.5l55 -107q4 -8 -1.5 -13t-14.5 -6.5t-18 0t-12 6.5l-57 114h-59l-14 -103q-2 -7 -10 -12t-17 -5
q-8 0 -14.5 4.5t-4.5 12.5l36 261q2 11 11 19t19 8h79q25 0 42.5 -7t28 -18t15.5 -25.5t5 -30.5zM483 497q0 16 -10.5 28.5t-42.5 12.5h-57l-14 -96h60q32 0 48 15t16 40z" />
    <glyph glyph-name="macron" unicode="&#xaf;" horiz-adv-x="403" 
d="M450 648q0 -14 -9.5 -23.5t-23.5 -9.5h-255q-11 0 -18.5 7t-7.5 18q0 14 10.5 24t24.5 10h255q11 0 17.5 -7.5t6.5 -18.5z" />
    <glyph glyph-name="degree" unicode="&#xb0;" horiz-adv-x="392" 
d="M261 447q-60 0 -90 33t-30 82q0 31 11 59.5t31 49.5t49.5 33.5t66.5 12.5q60 0 89 -33.5t29 -82.5q0 -32 -10.5 -60t-30.5 -49t-49 -33t-66 -12zM268 495q50 0 72.5 27.5t22.5 77.5q0 33 -17 51t-54 18q-49 0 -73 -27.5t-24 -76.5q0 -70 73 -70z" />
    <glyph glyph-name="plusminus" unicode="&#xb1;" horiz-adv-x="500" 
d="M260 354h-171q-14 0 -23 9t-9 22q0 14 10 23.5t22 9.5h171v181q0 12 9.5 22t23.5 10q13 0 22 -9t9 -23v-181h172q12 0 22 -9.5t10 -23.5q0 -13 -9.5 -22t-22.5 -9h-172v-182q0 -14 -9 -23t-22 -9q-14 0 -23.5 9.5t-9.5 22.5v182zM496 65q12 0 22 -9t10 -23t-9.5 -23
t-22.5 -9h-407q-14 0 -23 9t-9 23t10 23t22 9h407z" />
    <glyph glyph-name="twosuperior" unicode="&#xb2;" 
d="M285 414q0 -11 -8 -17.5t-17 -6.5h-162q-24 0 -24 20q0 3 1.5 9.5t6.5 14.5q20 34 48 61t56 51q9 8 25 22.5t24 23.5q13 11 24 27.5t11 39.5q0 22 -12 35.5t-36 13.5q-11 0 -23 -2.5t-23 -6.5l-13 -6q-5 -2 -10 -4.5t-10 -2.5q-8 0 -15.5 5.5t-7.5 13.5t2.5 12t6.5 7
q28 17 52 23.5t47 6.5q45 0 67.5 -25t22.5 -61q0 -35 -14 -61t-34 -47q-8 -8 -17.5 -16.5t-19.5 -16.5l-11 -10q-24 -20 -46 -40t-37 -41h127q8 0 13.5 -6.5t5.5 -15.5z" />
    <glyph glyph-name="threesuperior" unicode="&#xb3;" 
d="M216 599q35 -3 57 -25.5t22 -60.5q0 -20 -7.5 -42.5t-22.5 -41.5t-37.5 -31.5t-53.5 -12.5q-7 0 -23 1.5t-32 5t-28 11t-12 19.5q0 11 8.5 19t19.5 8q3 0 14 -6q8 -5 19.5 -9.5t30.5 -4.5q22 0 36.5 7.5t23.5 19.5t12.5 26t3.5 26q0 27 -16 38.5t-39 11.5q-11 0 -17 -3
l-4 -2q-1 -1 -8 -1q-13 0 -17.5 12.5t5.5 23.5l97 108h-99q-10 0 -16.5 5.5t-6.5 13.5q0 12 9 21t21 9h137q21 0 21 -24q0 -16 -6 -22z" />
    <glyph glyph-name="acute" unicode="&#xb4;" horiz-adv-x="276" 
d="M275 716q5 5 11 9.5t14 4.5q10 0 16 -7.5t6 -16.5q0 -10 -5 -15l-94 -87q-8 -8 -15 -12.5t-15 -4.5q-10 0 -16.5 7t-6.5 18q0 5 1.5 7.5t4.5 5.5z" />
    <glyph glyph-name="periodcentered" unicode="&#xb7;" horiz-adv-x="255" 
d="M211 278q0 -22 -16 -37t-38 -15q-17 0 -29 12t-12 29q0 21 17 37t37 16q19 0 30 -12.5t11 -29.5z" />
    <glyph glyph-name="cedilla" unicode="&#xb8;" horiz-adv-x="300" 
d="M223 -123q0 -25 -13.5 -44.5t-34.5 -32t-47 -17t-50 0.5q-10 2 -19 5.5t-15 8.5t-7.5 11t3.5 12t11 5.5t17 -2.5l18 -4q21 -5 37 -1t27 13t16.5 21t5.5 23t-5.5 18t-14.5 11t-20 5.5t-23 2.5q-23 2 -27 6.5t0 18.5l22 68h35l-18 -61q56 0 79 -20t23 -48z" />
    <glyph glyph-name="onesuperior" unicode="&#xb9;" 
d="M224 685l-58 -36q-14 -9 -24 -9q-9 0 -15 5.5t-6 13.5q0 13 16 24l106 61q7 5 15 5q11 0 17 -7.5t4 -19.5l-45 -315q-1 -8 -9 -15t-18 -7q-11 0 -17.5 7t-5.5 15z" />
    <glyph glyph-name="ordmasculine" unicode="&#xba;" horiz-adv-x="384" 
d="M244 355q-34 0 -58.5 10.5t-39.5 29.5t-20 44t-1 55l11 81q9 60 49 100.5t109 40.5q68 0 97 -40.5t20 -100.5l-11 -81q-4 -30 -16 -55t-32 -44t-47 -29.5t-61 -10.5zM287 667q-47 0 -69.5 -25.5t-28.5 -70.5l-11 -80q-6 -42 10.5 -65t61.5 -23q44 0 67.5 23t29.5 65
l11 80q6 45 -9.5 70.5t-61.5 25.5z" />
    <glyph glyph-name="guillemotright" unicode="&#xbb;" horiz-adv-x="431" 
d="M348 256l-108 206q-3 4 -3 11q0 15 12.5 25t24.5 10q11 0 17 -6.5t12 -17.5l119 -230l-191 -238q-11 -12 -18 -17.5t-18 -5.5q-14 0 -22 8.5t-8 20.5q0 5 1 9t5 9zM184 254l-77 150q-2 6 -2 11q0 14 12 24.5t24 10.5t17.5 -6.5t10.5 -17.5l89 -172l-137 -171
q-8 -11 -15.5 -17t-19.5 -6q-11 0 -19 8t-8 19q0 4 1 8.5t5 9.5z" />
    <glyph glyph-name="questiondown" unicode="&#xbf;" horiz-adv-x="462" 
d="M240 246q5 8 7.5 20t4.5 23q2 14 13 24t25 10q13 0 20.5 -9t7.5 -21q0 -13 -3 -23t-7 -18q-16 -32 -40 -58.5t-50 -50.5l-39 -39q-14 -15 -28 -32t-25 -36.5t-18 -41.5t-7 -46q0 -50 29 -84t88 -34q29 0 55 6t48 14q5 2 13.5 6.5t15.5 8.5q21 13 33 13q11 0 19 -7.5
t8 -19.5t-8 -20t-20 -16q-40 -23 -83.5 -33.5t-89.5 -10.5q-43 0 -75.5 12.5t-54.5 34.5t-33.5 51.5t-11.5 64.5q0 67 28.5 116t72.5 92q18 18 24 23t14 12q19 17 37.5 33.5t29.5 35.5zM261 453q0 21 16.5 37.5t37.5 16.5q18 0 29.5 -13t11.5 -30q0 -22 -16.5 -37t-37.5 -15
q-18 0 -29.5 11.5t-11.5 29.5z" />
    <glyph glyph-name="Agrave" unicode="&#xc0;" horiz-adv-x="549" 
d="M33 0zM99 15q-6 -9 -16.5 -16.5t-18.5 -7.5q-14 0 -22.5 7.5t-8.5 21.5q0 5 1.5 10t2.5 7l288 630q9 21 21 35t32 14q19 0 27.5 -14.5t12.5 -34.5l110 -630v-6t-1 -7q-2 -15 -13 -24t-26 -9q-9 0 -18 6.5t-11 17.5l-25 148h-269zM193 228h231l-62 379zM417 825q3 -3 3 -8
q0 -12 -9.5 -21t-20.5 -9q-8 0 -14 4t-12 12l-68 88q-3 4 -3 10q0 11 9.5 20t18.5 9q8 0 12.5 -4t10.5 -10z" />
    <glyph glyph-name="Aacute" unicode="&#xc1;" horiz-adv-x="549" 
d="M33 0zM99 15q-6 -9 -16.5 -16.5t-18.5 -7.5q-14 0 -22.5 7.5t-8.5 21.5q0 5 1.5 10t2.5 7l288 630q9 21 21 35t32 14q19 0 27.5 -14.5t12.5 -34.5l110 -630v-6t-1 -7q-2 -15 -13 -24t-26 -9q-9 0 -18 6.5t-11 17.5l-25 148h-269zM193 228h231l-62 379zM468 916
q5 5 11 9.5t14 4.5q10 0 16 -7.5t6 -16.5q0 -10 -5 -15l-94 -87q-8 -8 -15 -12.5t-15 -4.5q-10 0 -16.5 7t-6.5 18q0 5 1.5 7.5t4.5 5.5z" />
    <glyph glyph-name="Acircumflex" unicode="&#xc2;" horiz-adv-x="549" 
d="M33 0zM99 15q-6 -9 -16.5 -16.5t-18.5 -7.5q-14 0 -22.5 7.5t-8.5 21.5q0 5 1.5 10t2.5 7l288 630q9 21 21 35t32 14q19 0 27.5 -14.5t12.5 -34.5l110 -630v-6t-1 -7q-2 -15 -13 -24t-26 -9q-9 0 -18 6.5t-11 17.5l-25 148h-269zM193 228h231l-62 379zM303 785
q-1 -2 -6 -2.5t-8 -0.5q-6 0 -10.5 5.5t-4.5 11.5t6.5 13.5t13.5 12.5l90 69h-1q5 2 9.5 4.5t9.5 2.5t9 -2.5t8 -4.5h-1l72 -69q3 -5 7.5 -11.5t4.5 -11.5q0 -7 -7 -13.5t-15 -6.5q-3 0 -6.5 0.5t-4.5 2.5l-74 68z" />
    <glyph glyph-name="Atilde" unicode="&#xc3;" horiz-adv-x="549" 
d="M33 0zM99 15q-6 -9 -16.5 -16.5t-18.5 -7.5q-14 0 -22.5 7.5t-8.5 21.5q0 5 1.5 10t2.5 7l288 630q9 21 21 35t32 14q19 0 27.5 -14.5t12.5 -34.5l110 -630v-6t-1 -7q-2 -15 -13 -24t-26 -9q-9 0 -18 6.5t-11 17.5l-25 148h-269zM193 228h231l-62 379zM529 860
q0 -12 -8 -23t-21 -18.5t-28 -12t-28 -4.5q-17 0 -30.5 5.5t-25.5 12.5q-9 5 -17 10t-25 5q-9 0 -20.5 -3.5t-27.5 -14.5q-6 -5 -10 -7t-10 -2q-8 0 -14 4.5t-6 14.5q0 11 7.5 22t19 19.5t26.5 13.5t30 5t28.5 -5.5t27.5 -13.5q12 -7 21.5 -10t21.5 -4q20 0 31 5t19 12
q4 3 10.5 7.5t12.5 4.5q5 0 10.5 -6t5.5 -17z" />
    <glyph glyph-name="Adieresis" unicode="&#xc4;" horiz-adv-x="549" 
d="M33 0zM99 15q-6 -9 -16.5 -16.5t-18.5 -7.5q-14 0 -22.5 7.5t-8.5 21.5q0 5 1.5 10t2.5 7l288 630q9 21 21 35t32 14q19 0 27.5 -14.5t12.5 -34.5l110 -630v-6t-1 -7q-2 -15 -13 -24t-26 -9q-9 0 -18 6.5t-11 17.5l-25 148h-269zM193 228h231l-62 379zM522 851
q0 -20 -14 -33.5t-32 -13.5q-15 0 -26 11t-11 26q0 18 15.5 32t33.5 14q15 0 24.5 -11t9.5 -25zM349 851q0 -20 -14 -33.5t-33 -13.5q-15 0 -25 11t-10 26q0 17 14.5 31.5t32.5 14.5q16 0 25.5 -11t9.5 -25z" />
    <glyph glyph-name="Aring" unicode="&#xc5;" horiz-adv-x="549" 
d="M486 746q0 -32 -18 -59t-47 -44l107 -606v-6t-1 -7q-2 -15 -13 -24t-26 -9q-9 0 -18 6.5t-11 17.5l-25 148h-269l-66 -148q-6 -9 -16.5 -16.5t-18.5 -7.5q-14 0 -22.5 7.5t-8.5 21.5q0 5 1.5 10t2.5 7l277 606q-19 14 -29.5 35t-10.5 44q0 24 10 45t27 37t39 25.5t46 9.5
q40 0 65 -27t25 -66zM193 228h231l-62 379zM450 742q0 25 -16.5 43.5t-42.5 18.5q-15 0 -30 -6.5t-26 -17t-18 -25t-7 -29.5q0 -26 17.5 -43.5t43.5 -17.5q15 0 29.5 6t25.5 16.5t17.5 24.5t6.5 30z" />
    <glyph glyph-name="AE" unicode="&#xc6;" horiz-adv-x="722" 
d="M419 0q-23 0 -39 8.5t-12 31.5l17 122h-221l-66 -148q-5 -11 -15.5 -17.5t-18.5 -6.5q-14 0 -23 7.5t-9 21.5q0 5 1.5 10t2.5 7l284 620q10 21 22 35t31 14h375q13 0 21 -8.5t8 -21.5q0 -14 -11.5 -24t-26.5 -10h-221l-36 -255h202q11 0 19 -8t8 -20q0 -15 -11 -25.5
t-25 -10.5h-202l-36 -258h231q13 0 21 -8t8 -19q0 -16 -11 -26.5t-27 -10.5h-240zM394 641q-12 0 -15 -3.5t-8 -13.5l-178 -397h201l58 414h-58z" />
    <glyph glyph-name="Ccedilla" unicode="&#xc7;" horiz-adv-x="482" 
d="M345 -126q0 -18 -7.5 -34t-22 -29t-36 -20.5t-49.5 -7.5q-26 0 -30 1q-20 2 -33 13t-5 25v-1q5 6 11.5 6t17.5 -3l17 -4q21 -4 37 0t27 13t16.5 20t5.5 22q0 35 -62 38q-20 1 -26 6t-1 19l18 57q-87 17 -119.5 83t-18.5 166l30 219q8 57 28 104t52.5 80t77 51t101.5 18
q32 0 61.5 -6t52 -16.5t35.5 -24.5t13 -29q0 -14 -9.5 -23t-23.5 -9q-7 0 -11.5 2.5t-9.5 6.5q-2 2 -4.5 3t-4.5 3q-23 17 -47.5 25.5t-54.5 8.5q-45 0 -78 -13.5t-55.5 -39t-36 -61t-19.5 -80.5l-30 -219q-6 -44 -3 -80t18.5 -61t44.5 -38.5t74 -13.5q60 0 109 32l12 7
q16 10 24 10q12 0 19 -7t7 -18q0 -17 -16 -32t-42 -26.5t-59 -18t-68 -6.5h-15l-13 -47q56 -1 78.5 -20t22.5 -51z" />
    <glyph glyph-name="Egrave" unicode="&#xc8;" horiz-adv-x="474" 
d="M81 1zM445 38q0 -16 -12 -26.5t-26 -10.5h-271q-23 0 -39 8.5t-13 31.5l88 624q2 16 15.5 28.5t31.5 12.5h277q12 0 19.5 -8.5t7.5 -21.5q0 -14 -11 -24t-25 -10h-252l-36 -255h232q12 0 20 -8t8 -20q0 -15 -11 -25.5t-26 -10.5h-232l-36 -258h262q12 0 20.5 -8t8.5 -19z
M419 825q3 -3 3 -8q0 -12 -9.5 -21t-20.5 -9q-8 0 -14 4t-12 12l-68 88q-3 4 -3 10q0 11 9.5 20t18.5 9q8 0 12.5 -4t10.5 -10z" />
    <glyph glyph-name="Eacute" unicode="&#xc9;" horiz-adv-x="474" 
d="M81 1zM445 38q0 -16 -12 -26.5t-26 -10.5h-271q-23 0 -39 8.5t-13 31.5l88 624q2 16 15.5 28.5t31.5 12.5h277q12 0 19.5 -8.5t7.5 -21.5q0 -14 -11 -24t-25 -10h-252l-36 -255h232q12 0 20 -8t8 -20q0 -15 -11 -25.5t-26 -10.5h-232l-36 -258h262q12 0 20.5 -8t8.5 -19z
M428 916q5 5 11 9.5t14 4.5q10 0 16 -7.5t6 -16.5q0 -10 -5 -15l-94 -87q-8 -8 -15 -12.5t-15 -4.5q-10 0 -16.5 7t-6.5 18q0 5 1.5 7.5t4.5 5.5z" />
    <glyph glyph-name="Ecircumflex" unicode="&#xca;" horiz-adv-x="474" 
d="M81 1zM445 38q0 -16 -12 -26.5t-26 -10.5h-271q-23 0 -39 8.5t-13 31.5l88 624q2 16 15.5 28.5t31.5 12.5h277q12 0 19.5 -8.5t7.5 -21.5q0 -14 -11 -24t-25 -10h-252l-36 -255h232q12 0 20 -8t8 -20q0 -15 -11 -25.5t-26 -10.5h-232l-36 -258h262q12 0 20.5 -8t8.5 -19z
M290 785q-1 -2 -6 -2.5t-8 -0.5q-6 0 -10.5 5.5t-4.5 11.5t6.5 13.5t13.5 12.5l90 69h-1q5 2 9.5 4.5t9.5 2.5t9 -2.5t8 -4.5h-1l72 -69q3 -5 7.5 -11.5t4.5 -11.5q0 -7 -7 -13.5t-15 -6.5q-3 0 -6.5 0.5t-4.5 2.5l-74 68z" />
    <glyph glyph-name="Edieresis" unicode="&#xcb;" horiz-adv-x="474" 
d="M81 1zM445 38q0 -16 -12 -26.5t-26 -10.5h-271q-23 0 -39 8.5t-13 31.5l88 624q2 16 15.5 28.5t31.5 12.5h277q12 0 19.5 -8.5t7.5 -21.5q0 -14 -11 -24t-25 -10h-252l-36 -255h232q12 0 20 -8t8 -20q0 -15 -11 -25.5t-26 -10.5h-232l-36 -258h262q12 0 20.5 -8t8.5 -19z
M508 851q0 -20 -14 -33.5t-32 -13.5q-15 0 -26 11t-11 26q0 18 15.5 32t33.5 14q15 0 24.5 -11t9.5 -25zM335 851q0 -20 -14 -33.5t-33 -13.5q-15 0 -25 11t-10 26q0 17 14.5 31.5t32.5 14.5q16 0 25.5 -11t9.5 -25z" />
    <glyph glyph-name="Igrave" unicode="&#xcc;" horiz-adv-x="227" 
d="M82 0zM176 683q2 13 13.5 23t25.5 10t22 -10t6 -23l-92 -659q-2 -14 -13 -23.5t-25 -9.5t-22.5 9.5t-6.5 23.5zM269 825q3 -3 3 -8q0 -12 -9.5 -21t-20.5 -9q-8 0 -14 4t-12 12l-68 88q-3 4 -3 10q0 11 9.5 20t18.5 9q8 0 12.5 -4t10.5 -10z" />
    <glyph glyph-name="Iacute" unicode="&#xcd;" horiz-adv-x="227" 
d="M82 0zM176 683q2 13 13.5 23t25.5 10t22 -10t6 -23l-92 -659q-2 -14 -13 -23.5t-25 -9.5t-22.5 9.5t-6.5 23.5zM291 916q5 5 11 9.5t14 4.5q10 0 16 -7.5t6 -16.5q0 -10 -5 -15l-94 -87q-8 -8 -15 -12.5t-15 -4.5q-10 0 -16.5 7t-6.5 18q0 5 1.5 7.5t4.5 5.5z" />
    <glyph glyph-name="Icircumflex" unicode="&#xce;" horiz-adv-x="227" 
d="M82 0zM176 683q2 13 13.5 23t25.5 10t22 -10t6 -23l-92 -659q-2 -14 -13 -23.5t-25 -9.5t-22.5 9.5t-6.5 23.5zM144 785q-1 -2 -6 -2.5t-8 -0.5q-6 0 -10.5 5.5t-4.5 11.5t6.5 13.5t13.5 12.5l90 69h-1q5 2 9.5 4.5t9.5 2.5t9 -2.5t8 -4.5h-1l72 -69q3 -5 7.5 -11.5
t4.5 -11.5q0 -7 -7 -13.5t-15 -6.5q-3 0 -6.5 0.5t-4.5 2.5l-74 68z" />
    <glyph glyph-name="Idieresis" unicode="&#xcf;" horiz-adv-x="227" 
d="M82 0zM176 683q2 13 13.5 23t25.5 10t22 -10t6 -23l-92 -659q-2 -14 -13 -23.5t-25 -9.5t-22.5 9.5t-6.5 23.5zM362 851q0 -20 -14 -33.5t-32 -13.5q-15 0 -26 11t-11 26q0 18 15.5 32t33.5 14q15 0 24.5 -11t9.5 -25zM189 851q0 -20 -14 -33.5t-33 -13.5q-15 0 -25 11
t-10 26q0 17 14.5 31.5t32.5 14.5q16 0 25.5 -11t9.5 -25z" />
    <glyph glyph-name="Eth" unicode="&#xd0;" horiz-adv-x="574" 
d="M565 263q-8 -51 -28.5 -98.5t-57 -83.5t-91.5 -58t-131 -22h-116q-17 0 -28 12t-9 29l40 283h-47q-11 0 -18.5 7t-7.5 18q0 14 10.5 24t24.5 10h47l39 281q2 17 16.5 29.5t31.5 12.5h116q76 0 124.5 -21t75.5 -56t34.5 -81t0.5 -95zM385 358q0 -14 -9.5 -23.5t-23.5 -9.5
h-141l-36 -260h108q52 0 90.5 15.5t64 42.5t40.5 63t21 77l26 191q6 39 1 73.5t-24 60t-52.5 40.5t-85.5 15h-108l-36 -259h141q11 0 17.5 -7.5t6.5 -18.5z" />
    <glyph glyph-name="Ntilde" unicode="&#xd1;" horiz-adv-x="600" 
d="M80 0zM488 -9q-10 0 -19.5 5t-13.5 14l-228 571l-78 -556q-2 -14 -13.5 -24t-25.5 -10t-22 10t-6 24l91 653q3 17 15 27.5t28 10.5q25 0 33 -21l228 -572l79 559q2 14 13.5 24t25.5 10t21.5 -10t5.5 -24l-92 -654q-2 -16 -13.5 -26.5t-28.5 -10.5zM555 860q0 -12 -8 -23
t-21 -18.5t-28 -12t-28 -4.5q-17 0 -30.5 5.5t-25.5 12.5q-9 5 -17 10t-25 5q-9 0 -20.5 -3.5t-27.5 -14.5q-6 -5 -10 -7t-10 -2q-8 0 -14 4.5t-6 14.5q0 11 7.5 22t19 19.5t26.5 13.5t30 5t28.5 -5.5t27.5 -13.5q12 -7 21.5 -10t21.5 -4q20 0 31 5t19 12q4 3 10.5 7.5
t12.5 4.5q5 0 10.5 -6t5.5 -17z" />
    <glyph glyph-name="Ograve" unicode="&#xd2;" horiz-adv-x="551" 
d="M76 0zM276 -9q-57 0 -96.5 19.5t-63.5 54t-32 80.5t0 99l31 219q7 52 26 98t51 80.5t78 54.5t108 20q61 0 101 -20t62.5 -54.5t29 -80.5t-0.5 -98l-31 -219q-8 -53 -28.5 -99t-54 -80.5t-78.5 -54t-102 -19.5zM369 652q-45 0 -77.5 -13.5t-55 -38.5t-35.5 -60t-19 -77
l-31 -219q-6 -42 -1.5 -76.5t21 -59.5t45 -39t69.5 -14t73 14t55.5 39t38 59.5t20.5 76.5l31 219q6 42 2 77t-19.5 60t-44 38.5t-72.5 13.5zM437 825q3 -3 3 -8q0 -12 -9.5 -21t-20.5 -9q-8 0 -14 4t-12 12l-68 88q-3 4 -3 10q0 11 9.5 20t18.5 9q8 0 12.5 -4t10.5 -10z" />
    <glyph glyph-name="Oacute" unicode="&#xd3;" horiz-adv-x="551" 
d="M76 0zM276 -9q-57 0 -96.5 19.5t-63.5 54t-32 80.5t0 99l31 219q7 52 26 98t51 80.5t78 54.5t108 20q61 0 101 -20t62.5 -54.5t29 -80.5t-0.5 -98l-31 -219q-8 -53 -28.5 -99t-54 -80.5t-78.5 -54t-102 -19.5zM369 652q-45 0 -77.5 -13.5t-55 -38.5t-35.5 -60t-19 -77
l-31 -219q-6 -42 -1.5 -76.5t21 -59.5t45 -39t69.5 -14t73 14t55.5 39t38 59.5t20.5 76.5l31 219q6 42 2 77t-19.5 60t-44 38.5t-72.5 13.5zM455 916q5 5 11 9.5t14 4.5q10 0 16 -7.5t6 -16.5q0 -10 -5 -15l-94 -87q-8 -8 -15 -12.5t-15 -4.5q-10 0 -16.5 7t-6.5 18
q0 5 1.5 7.5t4.5 5.5z" />
    <glyph glyph-name="Ocircumflex" unicode="&#xd4;" horiz-adv-x="551" 
d="M76 0zM276 -9q-57 0 -96.5 19.5t-63.5 54t-32 80.5t0 99l31 219q7 52 26 98t51 80.5t78 54.5t108 20q61 0 101 -20t62.5 -54.5t29 -80.5t-0.5 -98l-31 -219q-8 -53 -28.5 -99t-54 -80.5t-78.5 -54t-102 -19.5zM369 652q-45 0 -77.5 -13.5t-55 -38.5t-35.5 -60t-19 -77
l-31 -219q-6 -42 -1.5 -76.5t21 -59.5t45 -39t69.5 -14t73 14t55.5 39t38 59.5t20.5 76.5l31 219q6 42 2 77t-19.5 60t-44 38.5t-72.5 13.5zM304 785q-1 -2 -6 -2.5t-8 -0.5q-6 0 -10.5 5.5t-4.5 11.5t6.5 13.5t13.5 12.5l90 69h-1q5 2 9.5 4.5t9.5 2.5t9 -2.5t8 -4.5h-1
l72 -69q3 -5 7.5 -11.5t4.5 -11.5q0 -7 -7 -13.5t-15 -6.5q-3 0 -6.5 0.5t-4.5 2.5l-74 68z" />
    <glyph glyph-name="Otilde" unicode="&#xd5;" horiz-adv-x="551" 
d="M76 0zM276 -9q-57 0 -96.5 19.5t-63.5 54t-32 80.5t0 99l31 219q7 52 26 98t51 80.5t78 54.5t108 20q61 0 101 -20t62.5 -54.5t29 -80.5t-0.5 -98l-31 -219q-8 -53 -28.5 -99t-54 -80.5t-78.5 -54t-102 -19.5zM369 652q-45 0 -77.5 -13.5t-55 -38.5t-35.5 -60t-19 -77
l-31 -219q-6 -42 -1.5 -76.5t21 -59.5t45 -39t69.5 -14t73 14t55.5 39t38 59.5t20.5 76.5l31 219q6 42 2 77t-19.5 60t-44 38.5t-72.5 13.5zM530 860q0 -12 -8 -23t-21 -18.5t-28 -12t-28 -4.5q-17 0 -30.5 5.5t-25.5 12.5q-9 5 -17 10t-25 5q-9 0 -20.5 -3.5t-27.5 -14.5
q-6 -5 -10 -7t-10 -2q-8 0 -14 4.5t-6 14.5q0 11 7.5 22t19 19.5t26.5 13.5t30 5t28.5 -5.5t27.5 -13.5q12 -7 21.5 -10t21.5 -4q20 0 31 5t19 12q4 3 10.5 7.5t12.5 4.5q5 0 10.5 -6t5.5 -17z" />
    <glyph glyph-name="Odieresis" unicode="&#xd6;" horiz-adv-x="551" 
d="M76 0zM276 -9q-57 0 -96.5 19.5t-63.5 54t-32 80.5t0 99l31 219q7 52 26 98t51 80.5t78 54.5t108 20q61 0 101 -20t62.5 -54.5t29 -80.5t-0.5 -98l-31 -219q-8 -53 -28.5 -99t-54 -80.5t-78.5 -54t-102 -19.5zM369 652q-45 0 -77.5 -13.5t-55 -38.5t-35.5 -60t-19 -77
l-31 -219q-6 -42 -1.5 -76.5t21 -59.5t45 -39t69.5 -14t73 14t55.5 39t38 59.5t20.5 76.5l31 219q6 42 2 77t-19.5 60t-44 38.5t-72.5 13.5zM523 851q0 -20 -14 -33.5t-32 -13.5q-15 0 -26 11t-11 26q0 18 15.5 32t33.5 14q15 0 24.5 -11t9.5 -25zM350 851q0 -20 -14 -33.5
t-33 -13.5q-15 0 -25 11t-10 26q0 17 14.5 31.5t32.5 14.5q16 0 25.5 -11t9.5 -25z" />
    <glyph glyph-name="multiply" unicode="&#xd7;" horiz-adv-x="500" 
d="M348 355l109 -128q8 -8 8 -20q0 -13 -12.5 -24t-24.5 -11q-6 0 -12.5 2t-10.5 7l-109 128l-147 -128q-9 -9 -24 -9q-11 0 -19.5 9.5t-8.5 19.5q0 13 14 26l146 128l-111 127q-7 7 -7 20q0 12 13.5 24t23.5 12q14 0 23 -10l110 -127l145 127q7 6 13 8t12 2q9 0 18.5 -9
t9.5 -20q0 -15 -14 -27z" />
    <glyph glyph-name="Oslash" unicode="&#xd8;" horiz-adv-x="551" 
d="M97 104q-23 66 -12 140l30 219q7 52 26.5 98t51.5 80.5t78 54.5t108 20q60 0 100 -20.5t66 -56.5l52 60q5 7 13 8.5t14 -3.5q5 -5 6 -12t-6 -15l-63 -75q11 -31 12.5 -66t-3.5 -73l-30 -219q-8 -53 -28.5 -99t-54 -80.5t-78.5 -54t-102 -19.5q-56 0 -97 20t-67 57
l-52 -61q-5 -7 -13 -8.5t-14 3.5q-5 5 -6.5 12t5.5 15zM370 652q-45 0 -77.5 -13.5t-55.5 -38.5t-36.5 -60t-19.5 -77l-30 -219q-4 -26 0 -75l346 411q-16 34 -46 53t-81 19zM503 463q5 30 3 73l-345 -410q16 -33 47 -52t78 -19q41 0 73 14t55.5 39t38 59.5t20.5 76.5z" />
    <glyph glyph-name="Ugrave" unicode="&#xd9;" horiz-adv-x="572" 
d="M95 0zM539 228q-7 -51 -28 -94.5t-53.5 -75t-75.5 -49.5t-94 -18q-53 0 -91.5 18t-61.5 49.5t-31.5 75t-1.5 94.5l64 452q2 16 14 26t26 10t21.5 -10.5t5.5 -25.5l-64 -452q-11 -77 20 -125t108 -48q39 0 69 13t51.5 36t35 54.5t18.5 69.5l64 452q2 14 13 25t25 11
t23 -11t7 -25l-64 -452v0zM434 825q3 -3 3 -8q0 -12 -9.5 -21t-20.5 -9q-8 0 -14 4t-12 12l-68 88q-3 4 -3 10q0 11 9.5 20t18.5 9q8 0 12.5 -4t10.5 -10z" />
    <glyph glyph-name="Uacute" unicode="&#xda;" horiz-adv-x="572" 
d="M95 0zM539 228q-7 -51 -28 -94.5t-53.5 -75t-75.5 -49.5t-94 -18q-53 0 -91.5 18t-61.5 49.5t-31.5 75t-1.5 94.5l64 452q2 16 14 26t26 10t21.5 -10.5t5.5 -25.5l-64 -452q-11 -77 20 -125t108 -48q39 0 69 13t51.5 36t35 54.5t18.5 69.5l64 452q2 14 13 25t25 11
t23 -11t7 -25l-64 -452v0zM472 916q5 5 11 9.5t14 4.5q10 0 16 -7.5t6 -16.5q0 -10 -5 -15l-94 -87q-8 -8 -15 -12.5t-15 -4.5q-10 0 -16.5 7t-6.5 18q0 5 1.5 7.5t4.5 5.5z" />
    <glyph glyph-name="Ucircumflex" unicode="&#xdb;" horiz-adv-x="572" 
d="M95 0zM539 228q-7 -51 -28 -94.5t-53.5 -75t-75.5 -49.5t-94 -18q-53 0 -91.5 18t-61.5 49.5t-31.5 75t-1.5 94.5l64 452q2 16 14 26t26 10t21.5 -10.5t5.5 -25.5l-64 -452q-11 -77 20 -125t108 -48q39 0 69 13t51.5 36t35 54.5t18.5 69.5l64 452q2 14 13 25t25 11
t23 -11t7 -25l-64 -452v0zM315 785q-1 -2 -6 -2.5t-8 -0.5q-6 0 -10.5 5.5t-4.5 11.5t6.5 13.5t13.5 12.5l90 69h-1q5 2 9.5 4.5t9.5 2.5t9 -2.5t8 -4.5h-1l72 -69q3 -5 7.5 -11.5t4.5 -11.5q0 -7 -7 -13.5t-15 -6.5q-3 0 -6.5 0.5t-4.5 2.5l-74 68z" />
    <glyph glyph-name="Udieresis" unicode="&#xdc;" horiz-adv-x="572" 
d="M95 0zM539 228q-7 -51 -28 -94.5t-53.5 -75t-75.5 -49.5t-94 -18q-53 0 -91.5 18t-61.5 49.5t-31.5 75t-1.5 94.5l64 452q2 16 14 26t26 10t21.5 -10.5t5.5 -25.5l-64 -452q-11 -77 20 -125t108 -48q39 0 69 13t51.5 36t35 54.5t18.5 69.5l64 452q2 14 13 25t25 11
t23 -11t7 -25l-64 -452v0zM533 851q0 -20 -14 -33.5t-32 -13.5q-15 0 -26 11t-11 26q0 18 15.5 32t33.5 14q15 0 24.5 -11t9.5 -25zM360 851q0 -20 -14 -33.5t-33 -13.5q-15 0 -25 11t-10 26q0 17 14.5 31.5t32.5 14.5q16 0 25.5 -11t9.5 -25z" />
    <glyph glyph-name="Yacute" unicode="&#xdd;" horiz-adv-x="476" 
d="M116 0zM240 -9q-15 0 -23.5 10t-6.5 25l36 253l-128 386q-2 8 -2 14q0 14 13 25.5t27 11.5q16 0 22 -13v1l113 -351l210 351v-1q5 7 12 10t15 3q12 0 20.5 -9t8.5 -21q0 -5 -2 -11t-4 -10l-238 -390l-35 -249q-2 -14 -13 -24.5t-25 -10.5zM389 916q5 5 11 9.5t14 4.5
q10 0 16 -7.5t6 -16.5q0 -10 -5 -15l-94 -87q-8 -8 -15 -12.5t-15 -4.5q-10 0 -16.5 7t-6.5 18q0 5 1.5 7.5t4.5 5.5z" />
    <glyph glyph-name="Thorn" unicode="&#xde;" horiz-adv-x="530" 
d="M175 683q2 13 13 23t25 10t22 -10t6 -23l-14 -99h126q53 0 90 -15t60 -40.5t33 -59.5t10 -71q0 -60 -18.5 -107t-52 -80t-80.5 -50t-104 -17h-126l-16 -120q-2 -14 -13 -23.5t-25 -9.5t-22 9.5t-6 23.5zM174 208h126q180 0 180 184q0 24 -6 47t-21.5 41t-42 29t-66.5 11
h-126z" />
    <glyph glyph-name="germandbls" unicode="&#xdf;" horiz-adv-x="544" 
d="M541 183q0 -41 -13.5 -75.5t-39 -59t-62.5 -38t-85 -13.5q-8 0 -28 0.5t-40.5 4.5t-36 11t-15.5 21q0 9 8.5 20.5t30.5 11.5q13 0 36 -5q13 -2 25.5 -4t26.5 -2q21 0 43 6.5t41 20.5t31 36.5t12 55.5q0 30 -12 52t-30 38.5t-39.5 27.5t-40.5 17q-12 4 -24.5 8.5t-22 11
t-16 16t-6.5 22.5q0 25 13 39t30 22q30 13 55.5 25t45 27.5t30.5 36t11 52.5q0 45 -29.5 68t-79.5 23q-66 0 -100.5 -38t-45.5 -117l-75 -539q-2 -14 -13 -23t-24 -9q-14 0 -22 9t-6 23l75 536q14 103 72 160t153 57q71 0 115.5 -34.5t44.5 -100.5q0 -60 -30 -100t-75 -59
q-10 -4 -24 -8.5t-26.5 -10.5t-21 -13.5t-6.5 -16.5q1 -10 14.5 -15.5t51.5 -19.5q54 -20 89 -58.5t35 -99.5z" />
    <glyph glyph-name="agrave" unicode="&#xe0;" horiz-adv-x="482" 
d="M69 0zM206 -7q-39 0 -66.5 13.5t-44 38t-21.5 59t1 75.5l19 131q6 45 20.5 82.5t39 64.5t61 42.5t86.5 15.5q46 0 76.5 -13t47.5 -38.5t21.5 -63t-2.5 -86.5l-31 -226q-6 -39 21 -39q3 0 4.5 0.5t3.5 0.5q10 0 14.5 -7t4.5 -16q0 -17 -14 -24t-28 -7q-23 0 -40.5 15.5
t-27.5 41.5q-68 -60 -145 -60zM230 49q32 0 60 12t59 37l34 243q16 119 -90 119q-61 0 -92 -36.5t-42 -113.5l-19 -131q-18 -130 90 -130zM375 625q3 -3 3 -8q0 -12 -9.5 -21t-20.5 -9q-8 0 -14 4t-12 12l-68 88q-3 4 -3 10q0 11 9.5 20t18.5 9q8 0 12.5 -4t10.5 -10z" />
    <glyph glyph-name="aacute" unicode="&#xe1;" horiz-adv-x="482" 
d="M69 0zM206 -7q-39 0 -66.5 13.5t-44 38t-21.5 59t1 75.5l19 131q6 45 20.5 82.5t39 64.5t61 42.5t86.5 15.5q46 0 76.5 -13t47.5 -38.5t21.5 -63t-2.5 -86.5l-31 -226q-6 -39 21 -39q3 0 4.5 0.5t3.5 0.5q10 0 14.5 -7t4.5 -16q0 -17 -14 -24t-28 -7q-23 0 -40.5 15.5
t-27.5 41.5q-68 -60 -145 -60zM230 49q32 0 60 12t59 37l34 243q16 119 -90 119q-61 0 -92 -36.5t-42 -113.5l-19 -131q-18 -130 90 -130zM393 716q5 5 11 9.5t14 4.5q10 0 16 -7.5t6 -16.5q0 -10 -5 -15l-94 -87q-8 -8 -15 -12.5t-15 -4.5q-10 0 -16.5 7t-6.5 18
q0 5 1.5 7.5t4.5 5.5z" />
    <glyph glyph-name="acircumflex" unicode="&#xe2;" horiz-adv-x="482" 
d="M69 0zM206 -7q-39 0 -66.5 13.5t-44 38t-21.5 59t1 75.5l19 131q6 45 20.5 82.5t39 64.5t61 42.5t86.5 15.5q46 0 76.5 -13t47.5 -38.5t21.5 -63t-2.5 -86.5l-31 -226q-6 -39 21 -39q3 0 4.5 0.5t3.5 0.5q10 0 14.5 -7t4.5 -16q0 -17 -14 -24t-28 -7q-23 0 -40.5 15.5
t-27.5 41.5q-68 -60 -145 -60zM230 49q32 0 60 12t59 37l34 243q16 119 -90 119q-61 0 -92 -36.5t-42 -113.5l-19 -131q-18 -130 90 -130zM242 585q-1 -2 -6 -2.5t-8 -0.5q-6 0 -10.5 5.5t-4.5 11.5t6.5 13.5t13.5 12.5l90 69h-1q5 2 9.5 4.5t9.5 2.5t9 -2.5t8 -4.5h-1
l72 -69q3 -5 7.5 -11.5t4.5 -11.5q0 -7 -7 -13.5t-15 -6.5q-3 0 -6.5 0.5t-4.5 2.5l-74 68z" />
    <glyph glyph-name="atilde" unicode="&#xe3;" horiz-adv-x="482" 
d="M69 0zM206 -7q-39 0 -66.5 13.5t-44 38t-21.5 59t1 75.5l19 131q6 45 20.5 82.5t39 64.5t61 42.5t86.5 15.5q46 0 76.5 -13t47.5 -38.5t21.5 -63t-2.5 -86.5l-31 -226q-6 -39 21 -39q3 0 4.5 0.5t3.5 0.5q10 0 14.5 -7t4.5 -16q0 -17 -14 -24t-28 -7q-23 0 -40.5 15.5
t-27.5 41.5q-68 -60 -145 -60zM230 49q32 0 60 12t59 37l34 243q16 119 -90 119q-61 0 -92 -36.5t-42 -113.5l-19 -131q-18 -130 90 -130zM468 660q0 -12 -8 -23t-21 -18.5t-28 -12t-28 -4.5q-17 0 -30.5 5.5t-25.5 12.5q-9 5 -17 10t-25 5q-9 0 -20.5 -3.5t-27.5 -14.5
q-6 -5 -10 -7t-10 -2q-8 0 -14 4.5t-6 14.5q0 11 7.5 22t19 19.5t26.5 13.5t30 5t28.5 -5.5t27.5 -13.5q12 -7 21.5 -10t21.5 -4q20 0 31 5t19 12q4 3 10.5 7.5t12.5 4.5q5 0 10.5 -6t5.5 -17z" />
    <glyph glyph-name="adieresis" unicode="&#xe4;" horiz-adv-x="482" 
d="M69 0zM206 -7q-39 0 -66.5 13.5t-44 38t-21.5 59t1 75.5l19 131q6 45 20.5 82.5t39 64.5t61 42.5t86.5 15.5q46 0 76.5 -13t47.5 -38.5t21.5 -63t-2.5 -86.5l-31 -226q-6 -39 21 -39q3 0 4.5 0.5t3.5 0.5q10 0 14.5 -7t4.5 -16q0 -17 -14 -24t-28 -7q-23 0 -40.5 15.5
t-27.5 41.5q-68 -60 -145 -60zM230 49q32 0 60 12t59 37l34 243q16 119 -90 119q-61 0 -92 -36.5t-42 -113.5l-19 -131q-18 -130 90 -130zM460 651q0 -20 -14 -33.5t-32 -13.5q-15 0 -26 11t-11 26q0 18 15.5 32t33.5 14q15 0 24.5 -11t9.5 -25zM287 651q0 -20 -14 -33.5
t-33 -13.5q-15 0 -25 11t-10 26q0 17 14.5 31.5t32.5 14.5q16 0 25.5 -11t9.5 -25z" />
    <glyph glyph-name="aring" unicode="&#xe5;" horiz-adv-x="482" 
d="M69 0zM206 -7q-39 0 -66.5 13.5t-44 38t-21.5 59t1 75.5l19 131q6 45 20.5 82.5t39 64.5t61 42.5t86.5 15.5q46 0 76.5 -13t47.5 -38.5t21.5 -63t-2.5 -86.5l-31 -226q-6 -39 21 -39q3 0 4.5 0.5t3.5 0.5q10 0 14.5 -7t4.5 -16q0 -17 -14 -24t-28 -7q-23 0 -40.5 15.5
t-27.5 41.5q-68 -60 -145 -60zM230 49q32 0 60 12t59 37l34 243q16 119 -90 119q-61 0 -92 -36.5t-42 -113.5l-19 -131q-18 -130 90 -130zM432 662q0 -21 -8.5 -40t-23.5 -33.5t-34.5 -22.5t-40.5 -8q-36 0 -59.5 23.5t-23.5 58.5q0 21 9 40.5t24 33.5t35 22.5t41 8.5
q36 0 58.5 -24t22.5 -59zM401 659q0 23 -15 39.5t-39 16.5q-29 0 -51 -21t-22 -50q0 -23 15.5 -39t39.5 -16q29 0 50.5 20.5t21.5 49.5z" />
    <glyph glyph-name="ae" unicode="&#xe6;" horiz-adv-x="712" 
d="M541 210q-25 0 -54 2.5t-58 8.5l-10 -71q-7 -46 19.5 -74t86.5 -28q35 0 60 8.5t54 20.5q6 3 13 3q11 0 17 -7.5t6 -17.5q0 -18 -18.5 -29.5t-44.5 -19t-54 -10.5t-46 -3q-50 0 -82.5 21t-48.5 56q-44 -39 -88 -58t-95 -19q-76 0 -108 40.5t-23 106.5l1 4q20 146 194 146
q26 0 53.5 -5t56.5 -13l9 69q18 119 -101 119q-28 0 -46.5 -6t-36.5 -16q-2 0 -6 -3q-3 -2 -9 -3.5t-11 -1.5q-11 0 -14.5 8t-3.5 16q0 16 13 28t34 19t46.5 10.5t51.5 3.5q52 0 82.5 -24t44.5 -72q28 44 69.5 70t96.5 26q69 0 104 -36.5t35 -97.5q0 -77 -44.5 -124
t-144.5 -47zM665 375q0 44 -23 63.5t-65 19.5q-54 0 -88.5 -27.5t-40.5 -74.5l-12 -85q16 -2 33 -3.5t33 -2.5t29 -1.5t21 -0.5q62 0 87.5 31t25.5 81zM364 218q-29 10 -58 14.5t-52 4.5q-35 0 -57 -7.5t-35.5 -20.5t-20 -30t-9.5 -36l-1 -4q-3 -20 -0.5 -36.5t12.5 -28.5
t28 -18.5t46 -6.5q35 0 66 12t64 37z" />
    <glyph glyph-name="ccedilla" unicode="&#xe7;" horiz-adv-x="393" 
d="M315 -127q0 -18 -7.5 -34t-22.5 -29t-37 -20.5t-50 -7.5h-20t-9 1q-20 2 -34 13t-4 25v-1q5 6 11 6t16 -3l19 -4q21 -5 37 -1t27 13t16.5 20.5t5.5 22.5q0 35 -63 38q-20 1 -26 6t-2 19l18 58q-36 6 -60 22t-38 40t-18 54t1 63l21 156q6 38 21 71.5t40 58t60.5 38.5
t82.5 14q16 0 38.5 -2.5t42 -8.5t33.5 -16t14 -25q0 -12 -9.5 -21t-22.5 -9q-5 0 -7.5 0.5t-6.5 1.5h1q-17 10 -36 17.5t-47 7.5q-66 0 -98 -33.5t-41 -93.5l-21 -156q-9 -60 14 -93t89 -33q29 0 49 7.5t40 16.5h-1q10 3 16 3q10 0 16.5 -7t6.5 -18q0 -16 -15.5 -27
t-37.5 -18t-47 -10t-44 -3l-15 -48q57 -1 80.5 -20t23.5 -51z" />
    <glyph glyph-name="egrave" unicode="&#xe8;" horiz-adv-x="435" 
d="M67 0zM243 48q35 0 60 8.5t54 20.5q2 1 5 2t6 1q11 0 18 -7.5t7 -17.5q0 -18 -18.5 -29.5t-45 -19t-55 -10.5t-49.5 -3q-42 0 -73 12.5t-50.5 34.5t-27 51.5t-2.5 64.5l27 192q5 36 21 66.5t42 53t62 35t80 12.5q73 0 107.5 -36t34.5 -97q0 -78 -44 -125t-144 -47
q-25 0 -54 2.5t-58 8.5l-10 -71q-6 -46 20.5 -74t86.5 -28zM382 375q0 44 -23 63.5t-66 19.5q-54 0 -87.5 -27.5t-40.5 -74.5l-12 -85q32 -5 66 -6.5t50 -1.5q63 0 88 30.5t25 81.5zM332 625q3 -3 3 -8q0 -12 -9.5 -21t-20.5 -9q-8 0 -14 4t-12 12l-68 88q-3 4 -3 10
q0 11 9.5 20t18.5 9q8 0 12.5 -4t10.5 -10z" />
    <glyph glyph-name="eacute" unicode="&#xe9;" horiz-adv-x="435" 
d="M67 0zM243 48q35 0 60 8.5t54 20.5q2 1 5 2t6 1q11 0 18 -7.5t7 -17.5q0 -18 -18.5 -29.5t-45 -19t-55 -10.5t-49.5 -3q-42 0 -73 12.5t-50.5 34.5t-27 51.5t-2.5 64.5l27 192q5 36 21 66.5t42 53t62 35t80 12.5q73 0 107.5 -36t34.5 -97q0 -78 -44 -125t-144 -47
q-25 0 -54 2.5t-58 8.5l-10 -71q-6 -46 20.5 -74t86.5 -28zM382 375q0 44 -23 63.5t-66 19.5q-54 0 -87.5 -27.5t-40.5 -74.5l-12 -85q32 -5 66 -6.5t50 -1.5q63 0 88 30.5t25 81.5zM377 716q5 5 11 9.5t14 4.5q10 0 16 -7.5t6 -16.5q0 -10 -5 -15l-94 -87q-8 -8 -15 -12.5
t-15 -4.5q-10 0 -16.5 7t-6.5 18q0 5 1.5 7.5t4.5 5.5z" />
    <glyph glyph-name="ecircumflex" unicode="&#xea;" horiz-adv-x="435" 
d="M67 0zM243 48q35 0 60 8.5t54 20.5q2 1 5 2t6 1q11 0 18 -7.5t7 -17.5q0 -18 -18.5 -29.5t-45 -19t-55 -10.5t-49.5 -3q-42 0 -73 12.5t-50.5 34.5t-27 51.5t-2.5 64.5l27 192q5 36 21 66.5t42 53t62 35t80 12.5q73 0 107.5 -36t34.5 -97q0 -78 -44 -125t-144 -47
q-25 0 -54 2.5t-58 8.5l-10 -71q-6 -46 20.5 -74t86.5 -28zM382 375q0 44 -23 63.5t-66 19.5q-54 0 -87.5 -27.5t-40.5 -74.5l-12 -85q32 -5 66 -6.5t50 -1.5q63 0 88 30.5t25 81.5zM218 585q-1 -2 -6 -2.5t-8 -0.5q-6 0 -10.5 5.5t-4.5 11.5t6.5 13.5t13.5 12.5l90 69h-1
q5 2 9.5 4.5t9.5 2.5t9 -2.5t8 -4.5h-1l72 -69q3 -5 7.5 -11.5t4.5 -11.5q0 -7 -7 -13.5t-15 -6.5q-3 0 -6.5 0.5t-4.5 2.5l-74 68z" />
    <glyph glyph-name="edieresis" unicode="&#xeb;" horiz-adv-x="435" 
d="M67 0zM243 48q35 0 60 8.5t54 20.5q2 1 5 2t6 1q11 0 18 -7.5t7 -17.5q0 -18 -18.5 -29.5t-45 -19t-55 -10.5t-49.5 -3q-42 0 -73 12.5t-50.5 34.5t-27 51.5t-2.5 64.5l27 192q5 36 21 66.5t42 53t62 35t80 12.5q73 0 107.5 -36t34.5 -97q0 -78 -44 -125t-144 -47
q-25 0 -54 2.5t-58 8.5l-10 -71q-6 -46 20.5 -74t86.5 -28zM382 375q0 44 -23 63.5t-66 19.5q-54 0 -87.5 -27.5t-40.5 -74.5l-12 -85q32 -5 66 -6.5t50 -1.5q63 0 88 30.5t25 81.5zM437 651q0 -20 -14 -33.5t-32 -13.5q-15 0 -26 11t-11 26q0 18 15.5 32t33.5 14
q15 0 24.5 -11t9.5 -25zM264 651q0 -20 -14 -33.5t-33 -13.5q-15 0 -25 11t-10 26q0 17 14.5 31.5t32.5 14.5q16 0 25.5 -11t9.5 -25z" />
    <glyph glyph-name="igrave" unicode="&#xec;" horiz-adv-x="245" 
d="M99 0zM159 479q2 14 12.5 23.5t24.5 9.5q13 0 21.5 -9.5t6.5 -23.5l-55 -389q-2 -17 0 -29.5t9 -24.5q1 -2 2 -5.5t1 -6.5q0 -13 -10 -22t-24 -9q-8 0 -17.5 3t-16.5 13t-10.5 29.5t1.5 51.5zM246 625q3 -3 3 -8q0 -12 -9.5 -21t-20.5 -9q-8 0 -14 4t-12 12l-68 88
q-3 4 -3 10q0 11 9.5 20t18.5 9q8 0 12.5 -4t10.5 -10z" />
    <glyph glyph-name="iacute" unicode="&#xed;" horiz-adv-x="245" 
d="M99 0zM159 479q2 14 12.5 23.5t24.5 9.5q13 0 21.5 -9.5t6.5 -23.5l-55 -389q-2 -17 0 -29.5t9 -24.5q1 -2 2 -5.5t1 -6.5q0 -13 -10 -22t-24 -9q-8 0 -17.5 3t-16.5 13t-10.5 29.5t1.5 51.5zM280 716q5 5 11 9.5t14 4.5q10 0 16 -7.5t6 -16.5q0 -10 -5 -15l-94 -87
q-8 -8 -15 -12.5t-15 -4.5q-10 0 -16.5 7t-6.5 18q0 5 1.5 7.5t4.5 5.5z" />
    <glyph glyph-name="icircumflex" unicode="&#xee;" horiz-adv-x="245" 
d="M96 0zM159 479q2 14 12.5 23.5t24.5 9.5q13 0 21.5 -9.5t6.5 -23.5l-55 -389q-2 -17 0 -29.5t9 -24.5q1 -2 2 -5.5t1 -6.5q0 -13 -10 -22t-24 -9q-8 0 -17.5 3t-16.5 13t-10.5 29.5t1.5 51.5zM125 585q-1 -2 -6 -2.5t-8 -0.5q-6 0 -10.5 5.5t-4.5 11.5t6.5 13.5
t13.5 12.5l90 69h-1q5 2 9.5 4.5t9.5 2.5t9 -2.5t8 -4.5h-1l72 -69q3 -5 7.5 -11.5t4.5 -11.5q0 -7 -7 -13.5t-15 -6.5q-3 0 -6.5 0.5t-4.5 2.5l-74 68z" />
    <glyph glyph-name="idieresis" unicode="&#xef;" horiz-adv-x="245" 
d="M88 0zM159 479q2 14 12.5 23.5t24.5 9.5q13 0 21.5 -9.5t6.5 -23.5l-55 -389q-2 -17 0 -29.5t9 -24.5q1 -2 2 -5.5t1 -6.5q0 -13 -10 -22t-24 -9q-8 0 -17.5 3t-16.5 13t-10.5 29.5t1.5 51.5zM343 651q0 -20 -14 -33.5t-32 -13.5q-15 0 -26 11t-11 26q0 18 15.5 32
t33.5 14q15 0 24.5 -11t9.5 -25zM170 651q0 -20 -14 -33.5t-33 -13.5q-15 0 -25 11t-10 26q0 17 14.5 31.5t32.5 14.5q16 0 25.5 -11t9.5 -25z" />
    <glyph glyph-name="eth" unicode="&#xf0;" horiz-adv-x="500" 
d="M573 677q8 0 12 -5.5t4.5 -12.5t-3 -14t-10.5 -11l-74 -36q8 -29 11.5 -72t3.5 -87q0 -127 -16.5 -212.5t-48.5 -138t-80.5 -75t-111.5 -22.5q-50 0 -85.5 14t-58.5 38.5t-34 58t-11 72.5q0 52 15 99.5t43.5 83.5t69 57.5t92.5 21.5q14 0 33 -2.5t39.5 -9t41.5 -17.5
t40 -28q9 66 9 112t-7 78l-81 -40q-8 -4 -13.5 -5t-7.5 -1q-8 0 -14 7.5t-3 16.5q2 5 5 10.5t9 8.5l88 44q-25 32 -53 41t-54 12q-8 1 -16 5t-4 21q3 14 13.5 20.5t40.5 6.5q42 0 75 -19t55 -59l66 33q12 6 20 6zM438 314q-12 14 -29.5 25.5t-38 20t-41.5 13t-39 4.5
q-35 0 -63 -14t-48 -39t-31 -61t-11 -79q0 -28 7 -52t22 -42t39 -28t59 -10q39 0 67 13.5t47.5 41.5t32.5 71.5t22 103.5z" />
    <glyph glyph-name="ntilde" unicode="&#xf1;" horiz-adv-x="509" 
d="M84 0zM194 464q41 26 80.5 37.5t76.5 11.5q78 0 109.5 -51.5t19.5 -135.5l-33 -236q-2 -17 -0.5 -30t9.5 -24q2 -4 2 -12q0 -13 -9.5 -22t-23.5 -9q-8 0 -17.5 3t-16.5 13t-10.5 29.5t1.5 51.5l33 236q9 63 -12 97t-72 34q-32 0 -64.5 -13t-64.5 -35q1 -8 0.5 -17
t-1.5 -17l-49 -350q-2 -14 -11.5 -22.5t-25.5 -8.5q-17 0 -24 8.5t-5 22.5l50 350q4 26 2 43.5t-10 32.5q-3 6 -3 14q0 14 10.5 23t22.5 9q10 0 20 -8t16 -25zM470 660q0 -12 -8 -23t-21 -18.5t-28 -12t-28 -4.5q-17 0 -30.5 5.5t-25.5 12.5q-9 5 -17 10t-25 5
q-9 0 -20.5 -3.5t-27.5 -14.5q-6 -5 -10 -7t-10 -2q-8 0 -14 4.5t-6 14.5q0 11 7.5 22t19 19.5t26.5 13.5t30 5t28.5 -5.5t27.5 -13.5q12 -7 21.5 -10t21.5 -4q20 0 31 5t19 12q4 3 10.5 7.5t12.5 4.5q5 0 10.5 -6t5.5 -17z" />
    <glyph glyph-name="ograve" unicode="&#xf2;" horiz-adv-x="464" 
d="M69 0zM234 -7q-45 0 -77.5 13.5t-52.5 37t-27.5 55.5t-2.5 69l24 172q5 37 21.5 69t43.5 56t63.5 37.5t81.5 13.5t78 -13.5t53 -37.5t27 -56t2 -69l-24 -172q-5 -37 -21.5 -69t-43.5 -55.5t-63.5 -37t-81.5 -13.5zM243 52q60 0 94 31t42 85l24 173q8 54 -17.5 85.5
t-85.5 31.5t-94.5 -31.5t-42.5 -85.5l-24 -173q-8 -54 18 -85t86 -31zM359 625q3 -3 3 -8q0 -12 -9.5 -21t-20.5 -9q-8 0 -14 4t-12 12l-68 88q-3 4 -3 10q0 11 9.5 20t18.5 9q8 0 12.5 -4t10.5 -10z" />
    <glyph glyph-name="oacute" unicode="&#xf3;" horiz-adv-x="464" 
d="M69 0zM234 -7q-45 0 -77.5 13.5t-52.5 37t-27.5 55.5t-2.5 69l24 172q5 37 21.5 69t43.5 56t63.5 37.5t81.5 13.5t78 -13.5t53 -37.5t27 -56t2 -69l-24 -172q-5 -37 -21.5 -69t-43.5 -55.5t-63.5 -37t-81.5 -13.5zM243 52q60 0 94 31t42 85l24 173q8 54 -17.5 85.5
t-85.5 31.5t-94.5 -31.5t-42.5 -85.5l-24 -173q-8 -54 18 -85t86 -31zM354 716q5 5 11 9.5t14 4.5q10 0 16 -7.5t6 -16.5q0 -10 -5 -15l-94 -87q-8 -8 -15 -12.5t-15 -4.5q-10 0 -16.5 7t-6.5 18q0 5 1.5 7.5t4.5 5.5z" />
    <glyph glyph-name="ocircumflex" unicode="&#xf4;" horiz-adv-x="464" 
d="M69 0zM234 -7q-45 0 -77.5 13.5t-52.5 37t-27.5 55.5t-2.5 69l24 172q5 37 21.5 69t43.5 56t63.5 37.5t81.5 13.5t78 -13.5t53 -37.5t27 -56t2 -69l-24 -172q-5 -37 -21.5 -69t-43.5 -55.5t-63.5 -37t-81.5 -13.5zM243 52q60 0 94 31t42 85l24 173q8 54 -17.5 85.5
t-85.5 31.5t-94.5 -31.5t-42.5 -85.5l-24 -173q-8 -54 18 -85t86 -31zM233 585q-1 -2 -6 -2.5t-8 -0.5q-6 0 -10.5 5.5t-4.5 11.5t6.5 13.5t13.5 12.5l90 69h-1q5 2 9.5 4.5t9.5 2.5t9 -2.5t8 -4.5h-1l72 -69q3 -5 7.5 -11.5t4.5 -11.5q0 -7 -7 -13.5t-15 -6.5
q-3 0 -6.5 0.5t-4.5 2.5l-74 68z" />
    <glyph glyph-name="otilde" unicode="&#xf5;" horiz-adv-x="464" 
d="M69 0zM234 -7q-45 0 -77.5 13.5t-52.5 37t-27.5 55.5t-2.5 69l24 172q5 37 21.5 69t43.5 56t63.5 37.5t81.5 13.5t78 -13.5t53 -37.5t27 -56t2 -69l-24 -172q-5 -37 -21.5 -69t-43.5 -55.5t-63.5 -37t-81.5 -13.5zM243 52q60 0 94 31t42 85l24 173q8 54 -17.5 85.5
t-85.5 31.5t-94.5 -31.5t-42.5 -85.5l-24 -173q-8 -54 18 -85t86 -31zM459 660q0 -12 -8 -23t-21 -18.5t-28 -12t-28 -4.5q-17 0 -30.5 5.5t-25.5 12.5q-9 5 -17 10t-25 5q-9 0 -20.5 -3.5t-27.5 -14.5q-6 -5 -10 -7t-10 -2q-8 0 -14 4.5t-6 14.5q0 11 7.5 22t19 19.5
t26.5 13.5t30 5t28.5 -5.5t27.5 -13.5q12 -7 21.5 -10t21.5 -4q20 0 31 5t19 12q4 3 10.5 7.5t12.5 4.5q5 0 10.5 -6t5.5 -17z" />
    <glyph glyph-name="odieresis" unicode="&#xf6;" horiz-adv-x="464" 
d="M69 0zM234 -7q-45 0 -77.5 13.5t-52.5 37t-27.5 55.5t-2.5 69l24 172q5 37 21.5 69t43.5 56t63.5 37.5t81.5 13.5t78 -13.5t53 -37.5t27 -56t2 -69l-24 -172q-5 -37 -21.5 -69t-43.5 -55.5t-63.5 -37t-81.5 -13.5zM243 52q60 0 94 31t42 85l24 173q8 54 -17.5 85.5
t-85.5 31.5t-94.5 -31.5t-42.5 -85.5l-24 -173q-8 -54 18 -85t86 -31zM451 651q0 -20 -14 -33.5t-32 -13.5q-15 0 -26 11t-11 26q0 18 15.5 32t33.5 14q15 0 24.5 -11t9.5 -25zM278 651q0 -20 -14 -33.5t-33 -13.5q-15 0 -25 11t-10 26q0 17 14.5 31.5t32.5 14.5
q16 0 25.5 -11t9.5 -25z" />
    <glyph glyph-name="oslash" unicode="&#xf8;" horiz-adv-x="464" 
d="M89 63q-12 23 -16 50t0 55l24 172q5 37 21.5 69t43.5 56t63.5 37.5t81.5 13.5q39 0 70.5 -12t54.5 -33l39 47q6 7 14 8.5t13 -3.5q15 -13 2 -27l-46 -55q21 -45 13 -101l-24 -172q-5 -37 -21.5 -69t-43 -55.5t-63 -37t-81.5 -13.5q-38 0 -69 10.5t-54 29.5l-37 -45
q-5 -7 -13.5 -8t-14.5 4q-5 5 -5 12.5t4 13.5zM138 168q-1 -4 -1.5 -18t0.5 -29l250 298q-28 39 -88 39t-94.5 -31.5t-42.5 -85.5zM242 52q60 0 94 31t42 85l24 173q1 5 1.5 11.5t0.5 28.5l-249 -296q28 -33 87 -33z" />
    <glyph glyph-name="ugrave" unicode="&#xf9;" horiz-adv-x="509" 
d="M93 0zM434 480q2 14 11 23t26 9q16 0 23 -9t5 -23l-51 -360q-3 -19 -3.5 -30.5t0 -18t2 -10t3.5 -6.5q4 -5 7.5 -12t3.5 -14q0 -12 -10 -21t-24 -9q-13 0 -21.5 9t-16.5 24q-39 -21 -79 -30t-75 -9q-78 0 -110 51t-20 135l42 301q2 14 11.5 23t25.5 9t23 -9t5 -23
l-42 -301q-9 -62 12 -96t72 -34q32 0 64 10t63 28v15.5t2 17.5zM368 625q3 -3 3 -8q0 -12 -9.5 -21t-20.5 -9q-8 0 -14 4t-12 12l-68 88q-3 4 -3 10q0 11 9.5 20t18.5 9q8 0 12.5 -4t10.5 -10z" />
    <glyph glyph-name="uacute" unicode="&#xfa;" horiz-adv-x="509" 
d="M93 0zM434 480q2 14 11 23t26 9q16 0 23 -9t5 -23l-51 -360q-3 -19 -3.5 -30.5t0 -18t2 -10t3.5 -6.5q4 -5 7.5 -12t3.5 -14q0 -12 -10 -21t-24 -9q-13 0 -21.5 9t-16.5 24q-39 -21 -79 -30t-75 -9q-78 0 -110 51t-20 135l42 301q2 14 11.5 23t25.5 9t23 -9t5 -23
l-42 -301q-9 -62 12 -96t72 -34q32 0 64 10t63 28v15.5t2 17.5zM410 716q5 5 11 9.5t14 4.5q10 0 16 -7.5t6 -16.5q0 -10 -5 -15l-94 -87q-8 -8 -15 -12.5t-15 -4.5q-10 0 -16.5 7t-6.5 18q0 5 1.5 7.5t4.5 5.5z" />
    <glyph glyph-name="ucircumflex" unicode="&#xfb;" horiz-adv-x="509" 
d="M93 0zM434 480q2 14 11 23t26 9q16 0 23 -9t5 -23l-51 -360q-3 -19 -3.5 -30.5t0 -18t2 -10t3.5 -6.5q4 -5 7.5 -12t3.5 -14q0 -12 -10 -21t-24 -9q-13 0 -21.5 9t-16.5 24q-39 -21 -79 -30t-75 -9q-78 0 -110 51t-20 135l42 301q2 14 11.5 23t25.5 9t23 -9t5 -23
l-42 -301q-9 -62 12 -96t72 -34q32 0 64 10t63 28v15.5t2 17.5zM255 585q-1 -2 -6 -2.5t-8 -0.5q-6 0 -10.5 5.5t-4.5 11.5t6.5 13.5t13.5 12.5l90 69h-1q5 2 9.5 4.5t9.5 2.5t9 -2.5t8 -4.5h-1l72 -69q3 -5 7.5 -11.5t4.5 -11.5q0 -7 -7 -13.5t-15 -6.5q-3 0 -6.5 0.5
t-4.5 2.5l-74 68z" />
    <glyph glyph-name="udieresis" unicode="&#xfc;" horiz-adv-x="509" 
d="M93 0zM434 480q2 14 11 23t26 9q16 0 23 -9t5 -23l-51 -360q-3 -19 -3.5 -30.5t0 -18t2 -10t3.5 -6.5q4 -5 7.5 -12t3.5 -14q0 -12 -10 -21t-24 -9q-13 0 -21.5 9t-16.5 24q-39 -21 -79 -30t-75 -9q-78 0 -110 51t-20 135l42 301q2 14 11.5 23t25.5 9t23 -9t5 -23
l-42 -301q-9 -62 12 -96t72 -34q32 0 64 10t63 28v15.5t2 17.5zM474 651q0 -20 -14 -33.5t-32 -13.5q-15 0 -26 11t-11 26q0 18 15.5 32t33.5 14q15 0 24.5 -11t9.5 -25zM301 651q0 -20 -14 -33.5t-33 -13.5q-15 0 -25 11t-10 26q0 17 14.5 31.5t32.5 14.5q16 0 25.5 -11
t9.5 -25z" />
    <glyph glyph-name="yacute" unicode="&#xfd;" horiz-adv-x="509" 
d="M88 0zM137 480q2 14 11.5 23t25.5 9t23 -9t5 -23l-44 -307q-8 -58 12 -91.5t80 -33.5q34 0 67.5 12.5t62.5 39.5l53 380q2 14 11.5 23t26.5 9q16 0 22.5 -9t4.5 -23l-74 -528q-5 -38 -20 -71.5t-40 -58t-60 -38.5t-81 -14q-17 0 -39.5 2.5t-42.5 8.5t-33.5 16t-13.5 25
q0 11 9.5 21t21.5 10q6 0 15 -3h-1q17 -10 35.5 -17t47.5 -7q65 0 97 33t40 93l12 85q-35 -20 -71 -31.5t-74 -11.5q-45 0 -73.5 13.5t-43.5 37.5t-18 57t2 71zM414 716q5 5 11 9.5t14 4.5q10 0 16 -7.5t6 -16.5q0 -10 -5 -15l-94 -87q-8 -8 -15 -12.5t-15 -4.5
q-10 0 -16.5 7t-6.5 18q0 5 1.5 7.5t4.5 5.5z" />
    <glyph glyph-name="thorn" unicode="&#xfe;" horiz-adv-x="485" 
d="M162 126q20 -26 48.5 -41t69.5 -15q56 0 84.5 26t35.5 72l27 194q7 47 -14.5 73t-77.5 26q-40 0 -73 -15.5t-61 -41.5zM177 693q2 12 11.5 22t25.5 10t23 -10t5 -22l-32 -227q37 24 74 36.5t79 12.5t69 -12t42 -32.5t18.5 -48.5t-0.5 -60l-27 -194q-5 -32 -16.5 -60
t-32.5 -48.5t-51.5 -32.5t-72.5 -12t-75 13t-64 36l-35 -250q-2 -12 -11 -21.5t-25 -9.5t-23.5 9.5t-5.5 21.5z" />
    <glyph glyph-name="ydieresis" unicode="&#xff;" horiz-adv-x="509" 
d="M88 0zM137 480q2 14 11.5 23t25.5 9t23 -9t5 -23l-44 -307q-8 -58 12 -91.5t80 -33.5q34 0 67.5 12.5t62.5 39.5l53 380q2 14 11.5 23t26.5 9q16 0 22.5 -9t4.5 -23l-74 -528q-5 -38 -20 -71.5t-40 -58t-60 -38.5t-81 -14q-17 0 -39.5 2.5t-42.5 8.5t-33.5 16t-13.5 25
q0 11 9.5 21t21.5 10q6 0 15 -3h-1q17 -10 35.5 -17t47.5 -7q65 0 97 33t40 93l12 85q-35 -20 -71 -31.5t-74 -11.5q-45 0 -73.5 13.5t-43.5 37.5t-18 57t2 71zM472 651q0 -20 -14 -33.5t-32 -13.5q-15 0 -26 11t-11 26q0 18 15.5 32t33.5 14q15 0 24.5 -11t9.5 -25z
M299 651q0 -20 -14 -33.5t-33 -13.5q-15 0 -25 11t-10 26q0 17 14.5 31.5t32.5 14.5q16 0 25.5 -11t9.5 -25z" />
    <glyph glyph-name="Amacron" unicode="&#x100;" horiz-adv-x="549" 
d="M33 0zM99 15q-6 -9 -16.5 -16.5t-18.5 -7.5q-14 0 -22.5 7.5t-8.5 21.5q0 5 1.5 10t2.5 7l288 630q9 21 21 35t32 14q19 0 27.5 -14.5t12.5 -34.5l110 -630v-6t-1 -7q-2 -15 -13 -24t-26 -9q-9 0 -18 6.5t-11 17.5l-25 148h-269zM193 228h231l-62 379zM551 848
q0 -14 -9.5 -23.5t-23.5 -9.5h-255q-11 0 -18.5 7t-7.5 18q0 14 10.5 24t24.5 10h255q11 0 17.5 -7.5t6.5 -18.5z" />
    <glyph glyph-name="amacron" unicode="&#x101;" horiz-adv-x="482" 
d="M69 0zM206 -7q-39 0 -66.5 13.5t-44 38t-21.5 59t1 75.5l19 131q6 45 20.5 82.5t39 64.5t61 42.5t86.5 15.5q46 0 76.5 -13t47.5 -38.5t21.5 -63t-2.5 -86.5l-31 -226q-6 -39 21 -39q3 0 4.5 0.5t3.5 0.5q10 0 14.5 -7t4.5 -16q0 -17 -14 -24t-28 -7q-23 0 -40.5 15.5
t-27.5 41.5q-68 -60 -145 -60zM230 49q32 0 60 12t59 37l34 243q16 119 -90 119q-61 0 -92 -36.5t-42 -113.5l-19 -131q-18 -130 90 -130zM467 648q0 -14 -9.5 -23.5t-23.5 -9.5h-255q-11 0 -18.5 7t-7.5 18q0 14 10.5 24t24.5 10h255q11 0 17.5 -7.5t6.5 -18.5z" />
    <glyph glyph-name="Abreve" unicode="&#x102;" horiz-adv-x="549" 
d="M33 0zM99 15q-6 -9 -16.5 -16.5t-18.5 -7.5q-14 0 -22.5 7.5t-8.5 21.5q0 5 1.5 10t2.5 7l288 630q9 21 21 35t32 14q19 0 27.5 -14.5t12.5 -34.5l110 -630v-6t-1 -7q-2 -15 -13 -24t-26 -9q-9 0 -18 6.5t-11 17.5l-25 148h-269zM193 228h231l-62 379zM393 832
q18 0 38.5 10.5t40.5 34.5q11 14 27 14q10 0 15.5 -6.5t-1.5 -22.5q-8 -19 -22.5 -33.5t-32 -24t-36.5 -14.5t-35 -5t-34.5 5t-34.5 14.5t-27 24t-12 33.5q-1 14 8.5 21.5t17.5 7.5q15 0 22 -14q14 -24 30 -34.5t36 -10.5z" />
    <glyph glyph-name="abreve" unicode="&#x103;" horiz-adv-x="482" 
d="M69 0zM206 -7q-39 0 -66.5 13.5t-44 38t-21.5 59t1 75.5l19 131q6 45 20.5 82.5t39 64.5t61 42.5t86.5 15.5q46 0 76.5 -13t47.5 -38.5t21.5 -63t-2.5 -86.5l-31 -226q-6 -39 21 -39q3 0 4.5 0.5t3.5 0.5q10 0 14.5 -7t4.5 -16q0 -17 -14 -24t-28 -7q-23 0 -40.5 15.5
t-27.5 41.5q-68 -60 -145 -60zM230 49q32 0 60 12t59 37l34 243q16 119 -90 119q-61 0 -92 -36.5t-42 -113.5l-19 -131q-18 -130 90 -130zM332 632q18 0 38.5 10.5t40.5 34.5q11 14 27 14q10 0 15.5 -6.5t-1.5 -22.5q-8 -19 -22.5 -33.5t-32 -24t-36.5 -14.5t-35 -5t-34.5 5
t-34.5 14.5t-27 24t-12 33.5q-1 14 8.5 21.5t17.5 7.5q15 0 22 -14q14 -24 30 -34.5t36 -10.5z" />
    <glyph glyph-name="Aogonek" unicode="&#x104;" horiz-adv-x="549" 
d="M570 -164q0 -11 -7.5 -18t-19 -10.5t-24.5 -4.5t-24 -1q-40 0 -63.5 17t-23.5 54q0 30 18 63t44 62q-12 9 -12 17l-25 148h-268l-66 -148q-6 -9 -16.5 -16.5t-18.5 -7.5q-14 0 -23 7.5t-9 21.5q0 5 1.5 10t2.5 7l289 630q9 21 21 35t32 14q19 0 27 -14.5t13 -34.5
l110 -630v-6t-1 -7q-2 -9 -6.5 -15.5t-9.5 -11.5q-23 -22 -35.5 -52t-12.5 -51q0 -20 11.5 -32.5t35.5 -12.5q12 0 18.5 1t12.5 2q10 2 12 2q8 0 12.5 -5.5t4.5 -12.5zM193 228h231l-62 379z" />
    <glyph glyph-name="aogonek" unicode="&#x105;" horiz-adv-x="482" 
d="M351 53q-68 -60 -145 -60q-39 0 -66.5 13.5t-44 38t-21.5 59t1 75.5l19 131q6 45 20.5 82.5t39 64.5t61 42.5t86.5 15.5q46 0 76.5 -13t47.5 -38.5t21.5 -63t-2.5 -86.5l-31 -226q-6 -39 20 -39q4 0 5.5 0.5t3.5 0.5q10 0 14 -7t4 -16q0 -11 -4.5 -16t-10.5 -10
q-15 -12 -25 -26.5t-16.5 -29.5t-9.5 -29t-3 -23q0 -20 11 -33t35 -13q13 0 19.5 1.5t11.5 2.5q10 2 14 2q8 0 12 -6t4 -13q0 -11 -7.5 -18t-19 -10.5t-25 -4.5t-24.5 -1q-41 0 -64.5 17.5t-23.5 54.5q0 29 18 61t47 64q-34 15 -48 56zM230 49q32 0 60 12t59 37l34 243
q16 119 -90 119q-61 0 -92 -36.5t-42 -113.5l-19 -131q-18 -130 90 -130z" />
    <glyph glyph-name="Cacute" unicode="&#x106;" horiz-adv-x="482" 
d="M76 0zM115 463q8 57 28 104t52.5 80t77 51t101.5 18q32 0 61 -6t51.5 -16.5t36 -24.5t13.5 -29q0 -14 -9.5 -23t-23.5 -9q-7 0 -11.5 2.5t-9.5 6.5q-2 2 -4.5 3t-4.5 3q-23 17 -48 25.5t-55 8.5q-45 0 -78 -13.5t-55 -39t-35.5 -61t-19.5 -80.5l-31 -219q-6 -44 -3 -80
t18.5 -61t44.5 -38.5t74 -13.5q61 0 110 32l12 7q16 10 24 10q12 0 18.5 -7t6.5 -18q0 -17 -16 -32t-41.5 -26.5t-59 -18t-67.5 -6.5q-57 0 -96.5 18t-62.5 51t-30 79.5t1 103.5zM459 916q5 5 11 9.5t14 4.5q10 0 16 -7.5t6 -16.5q0 -10 -5 -15l-94 -87q-8 -8 -15 -12.5
t-15 -4.5q-10 0 -16.5 7t-6.5 18q0 5 1.5 7.5t4.5 5.5z" />
    <glyph glyph-name="cacute" unicode="&#x107;" horiz-adv-x="393" 
d="M69 0zM96 330q6 38 21 71.5t40 58t60.5 38.5t82.5 14q16 0 38 -2.5t41.5 -8.5t33.5 -16t14 -25q0 -12 -9 -21t-22 -9q-5 0 -8 0.5t-6 1.5h1q-18 10 -36.5 17.5t-46.5 7.5q-66 0 -98 -33.5t-41 -93.5l-22 -156q-8 -60 15 -93t89 -33q29 0 49 7.5t40 16.5h-1q10 3 15 3
q11 0 17.5 -7t6.5 -18q0 -17 -15.5 -27.5t-38 -17.5t-47 -9.5t-42.5 -2.5q-47 0 -78.5 14t-50 38.5t-24 57.5t-0.5 71zM369 716q5 5 11 9.5t14 4.5q10 0 16 -7.5t6 -16.5q0 -10 -5 -15l-94 -87q-8 -8 -15 -12.5t-15 -4.5q-10 0 -16.5 7t-6.5 18q0 5 1.5 7.5t4.5 5.5z" />
    <glyph glyph-name="Ccircumflex" unicode="&#x108;" horiz-adv-x="482" 
d="M76 0zM115 463q8 57 28 104t52.5 80t77 51t101.5 18q32 0 61 -6t51.5 -16.5t36 -24.5t13.5 -29q0 -14 -9.5 -23t-23.5 -9q-7 0 -11.5 2.5t-9.5 6.5q-2 2 -4.5 3t-4.5 3q-23 17 -48 25.5t-55 8.5q-45 0 -78 -13.5t-55 -39t-35.5 -61t-19.5 -80.5l-31 -219q-6 -44 -3 -80
t18.5 -61t44.5 -38.5t74 -13.5q61 0 110 32l12 7q16 10 24 10q12 0 18.5 -7t6.5 -18q0 -17 -16 -32t-41.5 -26.5t-59 -18t-67.5 -6.5q-57 0 -96.5 18t-62.5 51t-30 79.5t1 103.5zM296 785q-1 -2 -6 -2.5t-8 -0.5q-6 0 -10.5 5.5t-4.5 11.5t6.5 13.5t13.5 12.5l90 69h-1
q5 2 9.5 4.5t9.5 2.5t9 -2.5t8 -4.5h-1l72 -69q3 -5 7.5 -11.5t4.5 -11.5q0 -7 -7 -13.5t-15 -6.5q-3 0 -6.5 0.5t-4.5 2.5l-74 68z" />
    <glyph glyph-name="ccircumflex" unicode="&#x109;" horiz-adv-x="393" 
d="M69 0zM96 330q6 38 21 71.5t40 58t60.5 38.5t82.5 14q16 0 38 -2.5t41.5 -8.5t33.5 -16t14 -25q0 -12 -9 -21t-22 -9q-5 0 -8 0.5t-6 1.5h1q-18 10 -36.5 17.5t-46.5 7.5q-66 0 -98 -33.5t-41 -93.5l-22 -156q-8 -60 15 -93t89 -33q29 0 49 7.5t40 16.5h-1q10 3 15 3
q11 0 17.5 -7t6.5 -18q0 -17 -15.5 -27.5t-38 -17.5t-47 -9.5t-42.5 -2.5q-47 0 -78.5 14t-50 38.5t-24 57.5t-0.5 71zM198 585q-1 -2 -6 -2.5t-8 -0.5q-6 0 -10.5 5.5t-4.5 11.5t6.5 13.5t13.5 12.5l90 69h-1q5 2 9.5 4.5t9.5 2.5t9 -2.5t8 -4.5h-1l72 -69q3 -5 7.5 -11.5
t4.5 -11.5q0 -7 -7 -13.5t-15 -6.5q-3 0 -6.5 0.5t-4.5 2.5l-74 68z" />
    <glyph glyph-name="Cdotaccent" unicode="&#x10a;" horiz-adv-x="482" 
d="M76 0zM115 463q8 57 28 104t52.5 80t77 51t101.5 18q32 0 61 -6t51.5 -16.5t36 -24.5t13.5 -29q0 -14 -9.5 -23t-23.5 -9q-7 0 -11.5 2.5t-9.5 6.5q-2 2 -4.5 3t-4.5 3q-23 17 -48 25.5t-55 8.5q-45 0 -78 -13.5t-55 -39t-35.5 -61t-19.5 -80.5l-31 -219q-6 -44 -3 -80
t18.5 -61t44.5 -38.5t74 -13.5q61 0 110 32l12 7q16 10 24 10q12 0 18.5 -7t6.5 -18q0 -17 -16 -32t-41.5 -26.5t-59 -18t-67.5 -6.5q-57 0 -96.5 18t-62.5 51t-30 79.5t1 103.5zM401 851q0 -20 -14 -33.5t-33 -13.5q-15 0 -25 11t-10 26q0 17 14.5 31.5t32.5 14.5
q16 0 25.5 -11t9.5 -25z" />
    <glyph glyph-name="cdotaccent" unicode="&#x10b;" horiz-adv-x="393" 
d="M69 0zM96 330q6 38 21 71.5t40 58t60.5 38.5t82.5 14q16 0 38 -2.5t41.5 -8.5t33.5 -16t14 -25q0 -12 -9 -21t-22 -9q-5 0 -8 0.5t-6 1.5h1q-18 10 -36.5 17.5t-46.5 7.5q-66 0 -98 -33.5t-41 -93.5l-22 -156q-8 -60 15 -93t89 -33q29 0 49 7.5t40 16.5h-1q10 3 15 3
q11 0 17.5 -7t6.5 -18q0 -17 -15.5 -27.5t-38 -17.5t-47 -9.5t-42.5 -2.5q-47 0 -78.5 14t-50 38.5t-24 57.5t-0.5 71zM328 651q0 -20 -14 -33.5t-33 -13.5q-15 0 -25 11t-10 26q0 17 14.5 31.5t32.5 14.5q16 0 25.5 -11t9.5 -25z" />
    <glyph glyph-name="Ccaron" unicode="&#x10c;" horiz-adv-x="482" 
d="M76 0zM115 463q8 57 28 104t52.5 80t77 51t101.5 18q32 0 61 -6t51.5 -16.5t36 -24.5t13.5 -29q0 -14 -9.5 -23t-23.5 -9q-7 0 -11.5 2.5t-9.5 6.5q-2 2 -4.5 3t-4.5 3q-23 17 -48 25.5t-55 8.5q-45 0 -78 -13.5t-55 -39t-35.5 -61t-19.5 -80.5l-31 -219q-6 -44 -3 -80
t18.5 -61t44.5 -38.5t74 -13.5q61 0 110 32l12 7q16 10 24 10q12 0 18.5 -7t6.5 -18q0 -17 -16 -32t-41.5 -26.5t-59 -18t-67.5 -6.5q-57 0 -96.5 18t-62.5 51t-30 79.5t1 103.5zM387 775q-13 0 -18 7l-80 75q-6 6 -10.5 12.5t-4.5 14.5q0 11 9.5 17.5t17.5 6.5q7 0 13 -6
l80 -73l100 73q7 6 15 6t14 -5.5t6 -13.5q0 -11 -6 -17.5t-16 -14.5l-101 -75q-7 -7 -19 -7z" />
    <glyph glyph-name="ccaron" unicode="&#x10d;" horiz-adv-x="393" 
d="M69 0zM96 330q6 38 21 71.5t40 58t60.5 38.5t82.5 14q16 0 38 -2.5t41.5 -8.5t33.5 -16t14 -25q0 -12 -9 -21t-22 -9q-5 0 -8 0.5t-6 1.5h1q-18 10 -36.5 17.5t-46.5 7.5q-66 0 -98 -33.5t-41 -93.5l-22 -156q-8 -60 15 -93t89 -33q29 0 49 7.5t40 16.5h-1q10 3 15 3
q11 0 17.5 -7t6.5 -18q0 -17 -15.5 -27.5t-38 -17.5t-47 -9.5t-42.5 -2.5q-47 0 -78.5 14t-50 38.5t-24 57.5t-0.5 71zM306 575q-13 0 -18 7l-80 75q-6 6 -10.5 12.5t-4.5 14.5q0 11 9.5 17.5t17.5 6.5q7 0 13 -6l80 -73l100 73q7 6 15 6t14 -5.5t6 -13.5q0 -11 -6 -17.5
t-16 -14.5l-101 -75q-7 -7 -19 -7z" />
    <glyph glyph-name="Dcaron" unicode="&#x10e;" horiz-adv-x="554" 
d="M83 1zM545 263q-7 -51 -27.5 -98.5t-58 -83.5t-92.5 -58t-131 -22h-116q-17 0 -27 12t-8 29l88 623q2 17 16 29.5t31 12.5h116q76 0 125 -21t76 -56t34.5 -81t0.5 -95zM505 454q6 39 1 73.5t-24 60t-52.5 40.5t-85.5 15h-108l-82 -578h108q52 0 90.5 15.5t64.5 42.5
t40.5 63t20.5 77zM388 775q-13 0 -18 7l-80 75q-6 6 -10.5 12.5t-4.5 14.5q0 11 9.5 17.5t17.5 6.5q7 0 13 -6l80 -73l100 73q7 6 15 6t14 -5.5t6 -13.5q0 -11 -6 -17.5t-16 -14.5l-101 -75q-7 -7 -19 -7z" />
    <glyph glyph-name="dcaron" unicode="&#x10f;" horiz-adv-x="605" 
d="M69 0zM287 511q25 0 56 -5.5t62 -16.5l30 212q2 13 11.5 22.5t25.5 9.5t23 -9.5t5 -22.5l-83 -591q-4 -23 0 -38.5t20 -29.5q2 -6 2 -11q0 -14 -10 -22.5t-22 -8.5q-16 0 -27.5 9.5t-19.5 25.5q-38 -18 -77.5 -30t-76.5 -12q-39 0 -66.5 13.5t-43.5 38t-21.5 59t0.5 75.5
l19 131q6 45 19.5 82t36 63.5t56.5 41t81 14.5zM397 432q-28 12 -58 18.5t-49 6.5q-61 0 -90.5 -35t-40.5 -112l-19 -131q-17 -130 90 -130q27 0 59 9t63 23q-2 13 -1.5 18.5t1.5 10.5zM671 685q0 -22 -10.5 -50.5t-25.5 -54t-30.5 -43t-25.5 -17.5q-5 0 -8.5 1.5t-3.5 6.5
q0 11 7 21t17 24q7 9 13 19.5t17 36.5q-20 2 -32.5 15t-12.5 30q0 21 17 36.5t38 15.5q18 0 29 -12t11 -29z" />
    <glyph glyph-name="Dcroat" unicode="&#x110;" horiz-adv-x="574" 
d="M71 1zM565 263q-8 -51 -28.5 -98.5t-57 -83.5t-91.5 -58t-131 -22h-116q-17 0 -28 12t-9 29l40 283h-47q-11 0 -18.5 7t-7.5 18q0 14 10.5 24t24.5 10h47l39 281q2 17 16.5 29.5t31.5 12.5h116q76 0 124.5 -21t75.5 -56t34.5 -81t0.5 -95zM385 358q0 -14 -9.5 -23.5
t-23.5 -9.5h-141l-36 -260h108q52 0 90.5 15.5t64 42.5t40.5 63t21 77l26 191q6 39 1 73.5t-24 60t-52.5 40.5t-85.5 15h-108l-36 -259h141q11 0 17.5 -7.5t6.5 -18.5z" />
    <glyph glyph-name="dcroat" unicode="&#x111;" horiz-adv-x="488" 
d="M573 621q0 -14 -9.5 -23.5t-22.5 -9.5h-57l-67 -478q-4 -23 0 -38.5t20 -29.5q2 -6 2 -11q0 -14 -10.5 -22.5t-21.5 -8.5q-17 0 -28 9.5t-19 25.5q-38 -18 -77.5 -30t-77.5 -12q-39 0 -66 13.5t-43.5 38t-22 59t0.5 75.5l19 131q6 45 19.5 82t36.5 63.5t56.5 41
t80.5 14.5q25 0 56.5 -5.5t62.5 -16.5l14 99h-135q-13 0 -20 7.5t-7 18.5q0 14 10.5 24t24.5 10h135l8 53q2 13 11 22.5t26 9.5q16 0 23 -9.5t5 -22.5l-8 -53h57q11 0 17.5 -8t6.5 -19zM397 432q-28 12 -58.5 18.5t-48.5 6.5q-62 0 -91.5 -35t-40.5 -112l-19 -131
q-8 -64 13.5 -97t77.5 -33q27 0 59 9t63 23q-2 13 -1.5 18.5t1.5 10.5z" />
    <glyph glyph-name="Emacron" unicode="&#x112;" horiz-adv-x="474" 
d="M81 1zM445 38q0 -16 -12 -26.5t-26 -10.5h-271q-23 0 -39 8.5t-13 31.5l88 624q2 16 15.5 28.5t31.5 12.5h277q12 0 19.5 -8.5t7.5 -21.5q0 -14 -11 -24t-25 -10h-252l-36 -255h232q12 0 20 -8t8 -20q0 -15 -11 -25.5t-26 -10.5h-232l-36 -258h262q12 0 20.5 -8t8.5 -19z
M514 848q0 -14 -9.5 -23.5t-23.5 -9.5h-255q-11 0 -18.5 7t-7.5 18q0 14 10.5 24t24.5 10h255q11 0 17.5 -7.5t6.5 -18.5z" />
    <glyph glyph-name="emacron" unicode="&#x113;" horiz-adv-x="435" 
d="M67 0zM243 48q35 0 60 8.5t54 20.5q2 1 5 2t6 1q11 0 18 -7.5t7 -17.5q0 -18 -18.5 -29.5t-45 -19t-55 -10.5t-49.5 -3q-42 0 -73 12.5t-50.5 34.5t-27 51.5t-2.5 64.5l27 192q5 36 21 66.5t42 53t62 35t80 12.5q73 0 107.5 -36t34.5 -97q0 -78 -44 -125t-144 -47
q-25 0 -54 2.5t-58 8.5l-10 -71q-6 -46 20.5 -74t86.5 -28zM382 375q0 44 -23 63.5t-66 19.5q-54 0 -87.5 -27.5t-40.5 -74.5l-12 -85q32 -5 66 -6.5t50 -1.5q63 0 88 30.5t25 81.5zM466 648q0 -14 -9.5 -23.5t-23.5 -9.5h-255q-11 0 -18.5 7t-7.5 18q0 14 10.5 24t24.5 10
h255q11 0 17.5 -7.5t6.5 -18.5z" />
    <glyph glyph-name="Ebreve" unicode="&#x114;" horiz-adv-x="474" 
d="M81 1zM445 38q0 -16 -12 -26.5t-26 -10.5h-271q-23 0 -39 8.5t-13 31.5l88 624q2 16 15.5 28.5t31.5 12.5h277q12 0 19.5 -8.5t7.5 -21.5q0 -14 -11 -24t-25 -10h-252l-36 -255h232q12 0 20 -8t8 -20q0 -15 -11 -25.5t-26 -10.5h-232l-36 -258h262q12 0 20.5 -8t8.5 -19z
M356 832q18 0 38.5 10.5t40.5 34.5q11 14 27 14q10 0 15.5 -6.5t-1.5 -22.5q-8 -19 -22.5 -33.5t-32 -24t-36.5 -14.5t-35 -5t-34.5 5t-34.5 14.5t-27 24t-12 33.5q-1 14 8.5 21.5t17.5 7.5q15 0 22 -14q14 -24 30 -34.5t36 -10.5z" />
    <glyph glyph-name="ebreve" unicode="&#x115;" horiz-adv-x="435" 
d="M67 0zM243 48q35 0 60 8.5t54 20.5q2 1 5 2t6 1q11 0 18 -7.5t7 -17.5q0 -18 -18.5 -29.5t-45 -19t-55 -10.5t-49.5 -3q-42 0 -73 12.5t-50.5 34.5t-27 51.5t-2.5 64.5l27 192q5 36 21 66.5t42 53t62 35t80 12.5q73 0 107.5 -36t34.5 -97q0 -78 -44 -125t-144 -47
q-25 0 -54 2.5t-58 8.5l-10 -71q-6 -46 20.5 -74t86.5 -28zM382 375q0 44 -23 63.5t-66 19.5q-54 0 -87.5 -27.5t-40.5 -74.5l-12 -85q32 -5 66 -6.5t50 -1.5q63 0 88 30.5t25 81.5zM308 632q18 0 38.5 10.5t40.5 34.5q11 14 27 14q10 0 15.5 -6.5t-1.5 -22.5
q-8 -19 -22.5 -33.5t-32 -24t-36.5 -14.5t-35 -5t-34.5 5t-34.5 14.5t-27 24t-12 33.5q-1 14 8.5 21.5t17.5 7.5q15 0 22 -14q14 -24 30 -34.5t36 -10.5z" />
    <glyph glyph-name="Edotaccent" unicode="&#x116;" horiz-adv-x="474" 
d="M81 1zM445 38q0 -16 -12 -26.5t-26 -10.5h-271q-23 0 -39 8.5t-13 31.5l88 624q2 16 15.5 28.5t31.5 12.5h277q12 0 19.5 -8.5t7.5 -21.5q0 -14 -11 -24t-25 -10h-252l-36 -255h232q12 0 20 -8t8 -20q0 -15 -11 -25.5t-26 -10.5h-232l-36 -258h262q12 0 20.5 -8t8.5 -19z
M397 851q0 -20 -14 -33.5t-33 -13.5q-15 0 -25 11t-10 26q0 17 14.5 31.5t32.5 14.5q16 0 25.5 -11t9.5 -25z" />
    <glyph glyph-name="edotaccent" unicode="&#x117;" horiz-adv-x="435" 
d="M67 0zM243 48q35 0 60 8.5t54 20.5q2 1 5 2t6 1q11 0 18 -7.5t7 -17.5q0 -18 -18.5 -29.5t-45 -19t-55 -10.5t-49.5 -3q-42 0 -73 12.5t-50.5 34.5t-27 51.5t-2.5 64.5l27 192q5 36 21 66.5t42 53t62 35t80 12.5q73 0 107.5 -36t34.5 -97q0 -78 -44 -125t-144 -47
q-25 0 -54 2.5t-58 8.5l-10 -71q-6 -46 20.5 -74t86.5 -28zM382 375q0 44 -23 63.5t-66 19.5q-54 0 -87.5 -27.5t-40.5 -74.5l-12 -85q32 -5 66 -6.5t50 -1.5q63 0 88 30.5t25 81.5zM349 651q0 -20 -14 -33.5t-33 -13.5q-15 0 -25 11t-10 26q0 17 14.5 31.5t32.5 14.5
q16 0 25.5 -11t9.5 -25z" />
    <glyph glyph-name="Eogonek" unicode="&#x118;" horiz-adv-x="474" 
d="M458 -164q0 -11 -7.5 -18t-18.5 -10.5t-24 -4.5t-24 -1q-41 0 -64.5 17t-23.5 54q0 29 18 61.5t47 66.5h-225q-23 0 -39 8.5t-13 31.5l88 624q2 16 15.5 28.5t31.5 12.5h276q13 0 20.5 -8.5t7.5 -21.5q0 -14 -11 -24t-26 -10h-251l-36 -255h232q11 0 19.5 -8t8.5 -21
q0 -14 -11.5 -24.5t-25.5 -10.5h-232l-36 -258h262q11 0 19.5 -8t8.5 -19q0 -16 -13 -26.5t-29 -10.5l-9 -13q-14 -23 -27.5 -47.5t-13.5 -46.5q0 -20 11.5 -32.5t34.5 -12.5q12 0 19 1t13 2q10 2 12 2q8 0 12 -5.5t4 -12.5z" />
    <glyph glyph-name="eogonek" unicode="&#x119;" horiz-adv-x="435" 
d="M371 -166q0 -11 -7.5 -18t-19 -10.5t-25 -4.5t-24.5 -1q-41 0 -64.5 17.5t-23.5 54.5q0 28 15 59t43 63q-5 0 -15.5 -0.5t-13.5 -0.5h-11q-42 0 -73 12.5t-50.5 34.5t-27 51.5t-2.5 64.5l27 192q5 36 21 66.5t42 53t62 35t80 12.5q73 0 107.5 -36t34.5 -97
q0 -78 -44 -125t-144 -47q-25 0 -54 2.5t-58 8.5l-10 -71q-6 -46 20.5 -74t86.5 -28q35 0 60 8.5t54 20.5q2 1 5 2t6 1q11 0 18 -7.5t7 -17.5q0 -13 -13 -21t-30 -16l-29 -15q-17 -11 -28 -26t-18 -31t-9.5 -30t-2.5 -23q0 -20 11.5 -33t36.5 -13q12 0 18.5 1.5t11.5 2.5
t8 1.5t5 0.5q8 0 12.5 -6t4.5 -13zM382 375q0 44 -23 63.5t-66 19.5q-54 0 -87.5 -27.5t-40.5 -74.5l-12 -85q32 -5 66 -6.5t50 -1.5q63 0 88 30.5t25 81.5z" />
    <glyph glyph-name="Ecaron" unicode="&#x11a;" horiz-adv-x="474" 
d="M81 1zM445 38q0 -16 -12 -26.5t-26 -10.5h-271q-23 0 -39 8.5t-13 31.5l88 624q2 16 15.5 28.5t31.5 12.5h277q12 0 19.5 -8.5t7.5 -21.5q0 -14 -11 -24t-25 -10h-252l-36 -255h232q12 0 20 -8t8 -20q0 -15 -11 -25.5t-26 -10.5h-232l-36 -258h262q12 0 20.5 -8t8.5 -19z
M378 775q-13 0 -18 7l-80 75q-6 6 -10.5 12.5t-4.5 14.5q0 11 9.5 17.5t17.5 6.5q7 0 13 -6l80 -73l100 73q7 6 15 6t14 -5.5t6 -13.5q0 -11 -6 -17.5t-16 -14.5l-101 -75q-7 -7 -19 -7z" />
    <glyph glyph-name="ecaron" unicode="&#x11b;" horiz-adv-x="435" 
d="M67 0zM243 48q35 0 60 8.5t54 20.5q2 1 5 2t6 1q11 0 18 -7.5t7 -17.5q0 -18 -18.5 -29.5t-45 -19t-55 -10.5t-49.5 -3q-42 0 -73 12.5t-50.5 34.5t-27 51.5t-2.5 64.5l27 192q5 36 21 66.5t42 53t62 35t80 12.5q73 0 107.5 -36t34.5 -97q0 -78 -44 -125t-144 -47
q-25 0 -54 2.5t-58 8.5l-10 -71q-6 -46 20.5 -74t86.5 -28zM382 375q0 44 -23 63.5t-66 19.5q-54 0 -87.5 -27.5t-40.5 -74.5l-12 -85q32 -5 66 -6.5t50 -1.5q63 0 88 30.5t25 81.5zM300 575q-13 0 -18 7l-80 75q-6 6 -10.5 12.5t-4.5 14.5q0 11 9.5 17.5t17.5 6.5
q7 0 13 -6l80 -73l100 73q7 6 15 6t14 -5.5t6 -13.5q0 -11 -6 -17.5t-16 -14.5l-101 -75q-7 -7 -19 -7z" />
    <glyph glyph-name="Gcircumflex" unicode="&#x11c;" horiz-adv-x="520" 
d="M76 0zM151 244q-6 -44 -3 -80t18.5 -61t44.5 -38.5t74 -13.5q38 0 69.5 10.5t59.5 30.5l33 232h-107q-11 0 -19 7.5t-8 19.5q0 14 11 24.5t24 10.5h122q22 0 35 -9.5t10 -30.5l-35 -244q-4 -29 -24.5 -49.5t-50.5 -34t-65 -20t-68 -6.5q-57 0 -96.5 18t-62.5 51t-30 79.5
t1 103.5l31 219q8 57 28 104t52.5 80t77 51t101.5 18q32 0 61 -6t51.5 -16.5t36 -24.5t13.5 -29q0 -14 -10 -23t-23 -9q-7 0 -11.5 2.5t-9.5 6.5q-2 2 -5 3t-5 3q-22 17 -47 25.5t-55 8.5q-45 0 -78 -13.5t-55 -39t-35.5 -61t-19.5 -80.5zM289 785q-1 -2 -6 -2.5t-8 -0.5
q-6 0 -10.5 5.5t-4.5 11.5t6.5 13.5t13.5 12.5l90 69h-1q5 2 9.5 4.5t9.5 2.5t9 -2.5t8 -4.5h-1l72 -69q3 -5 7.5 -11.5t4.5 -11.5q0 -7 -7 -13.5t-15 -6.5q-3 0 -6.5 0.5t-4.5 2.5l-74 68z" />
    <glyph glyph-name="gcircumflex" unicode="&#x11d;" horiz-adv-x="509" 
d="M88 0zM416 357q7 47 -20.5 73.5t-81.5 26.5q-60 0 -92.5 -32t-40.5 -89l-23 -163q-8 -58 12.5 -91.5t79.5 -33.5q34 0 67.5 12.5t62.5 39.5zM424 -48q-5 -38 -20 -71.5t-40 -58t-60 -38.5t-81 -14q-17 0 -39.5 2.5t-42.5 8.5t-33.5 16t-13.5 25q0 11 9.5 21t21.5 10
q6 0 15 -3h-1q17 -10 35.5 -17t47.5 -7q65 0 97 33t40 93l12 85q-35 -20 -71 -31.5t-74 -11.5q-45 0 -73.5 13.5t-43.5 37.5t-18 57t2 71l23 163q5 38 21 70.5t42 56.5t62 38t81 14q43 0 75 -12.5t52.5 -33.5t28.5 -50t3 -62zM253 585q-1 -2 -6 -2.5t-8 -0.5q-6 0 -10.5 5.5
t-4.5 11.5t6.5 13.5t13.5 12.5l90 69h-1q5 2 9.5 4.5t9.5 2.5t9 -2.5t8 -4.5h-1l72 -69q3 -5 7.5 -11.5t4.5 -11.5q0 -7 -7 -13.5t-15 -6.5q-3 0 -6.5 0.5t-4.5 2.5l-74 68z" />
    <glyph glyph-name="Gbreve" unicode="&#x11e;" horiz-adv-x="520" 
d="M76 0zM151 244q-6 -44 -3 -80t18.5 -61t44.5 -38.5t74 -13.5q38 0 69.5 10.5t59.5 30.5l33 232h-107q-11 0 -19 7.5t-8 19.5q0 14 11 24.5t24 10.5h122q22 0 35 -9.5t10 -30.5l-35 -244q-4 -29 -24.5 -49.5t-50.5 -34t-65 -20t-68 -6.5q-57 0 -96.5 18t-62.5 51t-30 79.5
t1 103.5l31 219q8 57 28 104t52.5 80t77 51t101.5 18q32 0 61 -6t51.5 -16.5t36 -24.5t13.5 -29q0 -14 -10 -23t-23 -9q-7 0 -11.5 2.5t-9.5 6.5q-2 2 -5 3t-5 3q-22 17 -47 25.5t-55 8.5q-45 0 -78 -13.5t-55 -39t-35.5 -61t-19.5 -80.5zM379 832q18 0 38.5 10.5t40.5 34.5
q11 14 27 14q10 0 15.5 -6.5t-1.5 -22.5q-8 -19 -22.5 -33.5t-32 -24t-36.5 -14.5t-35 -5t-34.5 5t-34.5 14.5t-27 24t-12 33.5q-1 14 8.5 21.5t17.5 7.5q15 0 22 -14q14 -24 30 -34.5t36 -10.5z" />
    <glyph glyph-name="gbreve" unicode="&#x11f;" horiz-adv-x="509" 
d="M88 0zM416 357q7 47 -20.5 73.5t-81.5 26.5q-60 0 -92.5 -32t-40.5 -89l-23 -163q-8 -58 12.5 -91.5t79.5 -33.5q34 0 67.5 12.5t62.5 39.5zM424 -48q-5 -38 -20 -71.5t-40 -58t-60 -38.5t-81 -14q-17 0 -39.5 2.5t-42.5 8.5t-33.5 16t-13.5 25q0 11 9.5 21t21.5 10
q6 0 15 -3h-1q17 -10 35.5 -17t47.5 -7q65 0 97 33t40 93l12 85q-35 -20 -71 -31.5t-74 -11.5q-45 0 -73.5 13.5t-43.5 37.5t-18 57t2 71l23 163q5 38 21 70.5t42 56.5t62 38t81 14q43 0 75 -12.5t52.5 -33.5t28.5 -50t3 -62zM344 632q18 0 38.5 10.5t40.5 34.5q11 14 27 14
q10 0 15.5 -6.5t-1.5 -22.5q-8 -19 -22.5 -33.5t-32 -24t-36.5 -14.5t-35 -5t-34.5 5t-34.5 14.5t-27 24t-12 33.5q-1 14 8.5 21.5t17.5 7.5q15 0 22 -14q14 -24 30 -34.5t36 -10.5z" />
    <glyph glyph-name="Gdotaccent" unicode="&#x120;" horiz-adv-x="520" 
d="M76 0zM151 244q-6 -44 -3 -80t18.5 -61t44.5 -38.5t74 -13.5q38 0 69.5 10.5t59.5 30.5l33 232h-107q-11 0 -19 7.5t-8 19.5q0 14 11 24.5t24 10.5h122q22 0 35 -9.5t10 -30.5l-35 -244q-4 -29 -24.5 -49.5t-50.5 -34t-65 -20t-68 -6.5q-57 0 -96.5 18t-62.5 51t-30 79.5
t1 103.5l31 219q8 57 28 104t52.5 80t77 51t101.5 18q32 0 61 -6t51.5 -16.5t36 -24.5t13.5 -29q0 -14 -10 -23t-23 -9q-7 0 -11.5 2.5t-9.5 6.5q-2 2 -5 3t-5 3q-22 17 -47 25.5t-55 8.5q-45 0 -78 -13.5t-55 -39t-35.5 -61t-19.5 -80.5zM420 851q0 -20 -14 -33.5
t-33 -13.5q-15 0 -25 11t-10 26q0 17 14.5 31.5t32.5 14.5q16 0 25.5 -11t9.5 -25z" />
    <glyph glyph-name="gdotaccent" unicode="&#x121;" horiz-adv-x="509" 
d="M88 0zM416 357q7 47 -20.5 73.5t-81.5 26.5q-60 0 -92.5 -32t-40.5 -89l-23 -163q-8 -58 12.5 -91.5t79.5 -33.5q34 0 67.5 12.5t62.5 39.5zM424 -48q-5 -38 -20 -71.5t-40 -58t-60 -38.5t-81 -14q-17 0 -39.5 2.5t-42.5 8.5t-33.5 16t-13.5 25q0 11 9.5 21t21.5 10
q6 0 15 -3h-1q17 -10 35.5 -17t47.5 -7q65 0 97 33t40 93l12 85q-35 -20 -71 -31.5t-74 -11.5q-45 0 -73.5 13.5t-43.5 37.5t-18 57t2 71l23 163q5 38 21 70.5t42 56.5t62 38t81 14q43 0 75 -12.5t52.5 -33.5t28.5 -50t3 -62zM386 651q0 -20 -14 -33.5t-33 -13.5
q-15 0 -25 11t-10 26q0 17 14.5 31.5t32.5 14.5q16 0 25.5 -11t9.5 -25z" />
    <glyph glyph-name="uni0122" unicode="&#x122;" horiz-adv-x="520" 
d="M76 0zM151 244q-6 -44 -3 -80t18.5 -61t44.5 -38.5t74 -13.5q38 0 69.5 10.5t59.5 30.5l33 232h-107q-11 0 -19 7.5t-8 19.5q0 14 11 24.5t24 10.5h122q22 0 35 -9.5t10 -30.5l-35 -244q-4 -29 -24.5 -49.5t-50.5 -34t-65 -20t-68 -6.5q-57 0 -96.5 18t-62.5 51t-30 79.5
t1 103.5l31 219q8 57 28 104t52.5 80t77 51t101.5 18q32 0 61 -6t51.5 -16.5t36 -24.5t13.5 -29q0 -14 -10 -23t-23 -9q-7 0 -11.5 2.5t-9.5 6.5q-2 2 -5 3t-5 3q-22 17 -47 25.5t-55 8.5q-45 0 -78 -13.5t-55 -39t-35.5 -61t-19.5 -80.5zM313 -108q0 -19 -10 -42t-24 -43.5
t-29 -34.5t-25 -14q-11 0 -11 8q0 5 6 13t14 16q5 7 14.5 17t17.5 25q-21 2 -34 14.5t-13 30.5q0 21 16 36.5t39 15.5q17 0 28 -12.5t11 -29.5z" />
    <glyph glyph-name="uni0123" unicode="&#x123;" horiz-adv-x="509" 
d="M294 644q0 19 10 42.5t24.5 44.5t29.5 35t26 14q10 0 10 -9q0 -8 -6 -14.5t-14 -14.5q-13 -13 -32 -42q22 -2 35 -15t13 -31q0 -20 -16.5 -35.5t-38.5 -15.5q-17 0 -29 12t-12 29zM416 357q7 47 -20.5 73.5t-81.5 26.5q-60 0 -92.5 -32t-40.5 -89l-23 -163
q-8 -58 12.5 -91.5t79.5 -33.5q34 0 67.5 12.5t62.5 39.5zM424 -48q-5 -38 -20 -71.5t-40 -58t-60 -38.5t-81 -14q-17 0 -39.5 2.5t-42.5 8.5t-33.5 16t-13.5 25q0 11 9.5 21t21.5 10q6 0 15 -3h-1q17 -10 35.5 -17t47.5 -7q65 0 97 33t40 93l12 85q-35 -20 -71 -31.5
t-74 -11.5q-45 0 -73.5 13.5t-43.5 37.5t-18 57t2 71l23 163q5 38 21 70.5t42 56.5t62 38t81 14q43 0 75 -12.5t52.5 -33.5t28.5 -50t3 -62z" />
    <glyph glyph-name="Hcircumflex" unicode="&#x124;" horiz-adv-x="580" 
d="M81 0zM510 25q-2 -14 -13 -24t-25 -10q-13 0 -22 10t-7 24l41 297h-294l-41 -297q-2 -14 -13 -24t-25 -10t-22 10t-6 24l92 658q2 13 13 23t25 10t22 -10t6 -23l-42 -297h294l42 297q2 13 14 23t25 10t21.5 -10t6.5 -23l-92 -658v0zM319 785q-1 -2 -6 -2.5t-8 -0.5
q-6 0 -10.5 5.5t-4.5 11.5t6.5 13.5t13.5 12.5l90 69h-1q5 2 9.5 4.5t9.5 2.5t9 -2.5t8 -4.5h-1l72 -69q3 -5 7.5 -11.5t4.5 -11.5q0 -7 -7 -13.5t-15 -6.5q-3 0 -6.5 0.5t-4.5 2.5l-74 68z" />
    <glyph glyph-name="Itilde" unicode="&#x128;" horiz-adv-x="227" 
d="M82 0zM176 683q2 13 13.5 23t25.5 10t22 -10t6 -23l-92 -659q-2 -14 -13 -23.5t-25 -9.5t-22.5 9.5t-6.5 23.5zM370 860q0 -12 -8 -23t-21 -18.5t-28 -12t-28 -4.5q-17 0 -30.5 5.5t-25.5 12.5q-9 5 -17 10t-25 5q-9 0 -20.5 -3.5t-27.5 -14.5q-6 -5 -10 -7t-10 -2
q-8 0 -14 4.5t-6 14.5q0 11 7.5 22t19 19.5t26.5 13.5t30 5t28.5 -5.5t27.5 -13.5q12 -7 21.5 -10t21.5 -4q20 0 31 5t19 12q4 3 10.5 7.5t12.5 4.5q5 0 10.5 -6t5.5 -17z" />
    <glyph glyph-name="itilde" unicode="&#x129;" horiz-adv-x="245" 
d="M80 0zM159 479q2 14 12.5 23.5t24.5 9.5q13 0 21.5 -9.5t6.5 -23.5l-55 -389q-2 -17 0 -29.5t9 -24.5q1 -2 2 -5.5t1 -6.5q0 -13 -10 -22t-24 -9q-8 0 -17.5 3t-16.5 13t-10.5 29.5t1.5 51.5zM351 660q0 -12 -8 -23t-21 -18.5t-28 -12t-28 -4.5q-17 0 -30.5 5.5
t-25.5 12.5q-9 5 -17 10t-25 5q-9 0 -20.5 -3.5t-27.5 -14.5q-6 -5 -10 -7t-10 -2q-8 0 -14 4.5t-6 14.5q0 11 7.5 22t19 19.5t26.5 13.5t30 5t28.5 -5.5t27.5 -13.5q12 -7 21.5 -10t21.5 -4q20 0 31 5t19 12q4 3 10.5 7.5t12.5 4.5q5 0 10.5 -6t5.5 -17z" />
    <glyph glyph-name="Imacron" unicode="&#x12a;" horiz-adv-x="227" 
d="M78 0zM176 683q2 13 13.5 23t25.5 10t22 -10t6 -23l-92 -659q-2 -14 -13 -23.5t-25 -9.5t-22.5 9.5t-6.5 23.5zM392 848q0 -14 -9.5 -23.5t-23.5 -9.5h-255q-11 0 -18.5 7t-7.5 18q0 14 10.5 24t24.5 10h255q11 0 17.5 -7.5t6.5 -18.5z" />
    <glyph glyph-name="imacron" unicode="&#x12b;" horiz-adv-x="245" 
d="M59 0zM159 479q2 14 12.5 23.5t24.5 9.5q13 0 21.5 -9.5t6.5 -23.5l-55 -389q-2 -17 0 -29.5t9 -24.5q1 -2 2 -5.5t1 -6.5q0 -13 -10 -22t-24 -9q-8 0 -17.5 3t-16.5 13t-10.5 29.5t1.5 51.5zM373 648q0 -14 -9.5 -23.5t-23.5 -9.5h-255q-11 0 -18.5 7t-7.5 18
q0 14 10.5 24t24.5 10h255q11 0 17.5 -7.5t6.5 -18.5z" />
    <glyph glyph-name="Ibreve" unicode="&#x12c;" horiz-adv-x="227" 
d="M82 0zM176 683q2 13 13.5 23t25.5 10t22 -10t6 -23l-92 -659q-2 -14 -13 -23.5t-25 -9.5t-22.5 9.5t-6.5 23.5zM234 832q18 0 38.5 10.5t40.5 34.5q11 14 27 14q10 0 15.5 -6.5t-1.5 -22.5q-8 -19 -22.5 -33.5t-32 -24t-36.5 -14.5t-35 -5t-34.5 5t-34.5 14.5t-27 24
t-12 33.5q-1 14 8.5 21.5t17.5 7.5q15 0 22 -14q14 -24 30 -34.5t36 -10.5z" />
    <glyph glyph-name="ibreve" unicode="&#x12d;" horiz-adv-x="245" 
d="M99 0zM159 479q2 14 12.5 23.5t24.5 9.5q13 0 21.5 -9.5t6.5 -23.5l-55 -389q-2 -17 0 -29.5t9 -24.5q1 -2 2 -5.5t1 -6.5q0 -13 -10 -22t-24 -9q-8 0 -17.5 3t-16.5 13t-10.5 29.5t1.5 51.5zM215 632q18 0 38.5 10.5t40.5 34.5q11 14 27 14q10 0 15.5 -6.5t-1.5 -22.5
q-8 -19 -22.5 -33.5t-32 -24t-36.5 -14.5t-35 -5t-34.5 5t-34.5 14.5t-27 24t-12 33.5q-1 14 8.5 21.5t17.5 7.5q15 0 22 -14q14 -24 30 -34.5t36 -10.5z" />
    <glyph glyph-name="Iogonek" unicode="&#x12e;" horiz-adv-x="227" 
d="M193 -164q0 -11 -7.5 -18t-19 -10.5t-24.5 -4.5t-24 -1q-41 0 -64 17t-23 54q0 29 17 60.5t46 62.5q-13 15 -10 28l92 659q2 13 13.5 23t25.5 10t22 -10t6 -23l-92 -659q-2 -8 -7 -14.5t-10 -11.5q-20 -23 -33.5 -52t-13.5 -52q0 -20 11 -32.5t35 -12.5q12 0 18.5 1
t11.5 2t8.5 1.5t5.5 0.5q8 0 12 -5.5t4 -12.5z" />
    <glyph glyph-name="iogonek" unicode="&#x12f;" horiz-adv-x="245" 
d="M202 -166q0 -11 -8 -18t-19.5 -10.5t-25 -4.5t-24.5 -1q-40 0 -63.5 17.5t-23.5 54.5q0 31 17.5 63t47.5 63q-9 14 -8 27l64 454q2 14 12.5 23.5t24.5 9.5q13 0 21.5 -9.5t6.5 -23.5l-64 -454q-2 -8 -6.5 -14t-9.5 -11q-23 -24 -36.5 -54.5t-13.5 -52.5q0 -20 11.5 -33
t35.5 -13q12 0 18.5 1.5t12.5 2.5q10 2 13 2q8 0 12.5 -6t4.5 -13zM261 686q0 -19 -14.5 -32.5t-32.5 -13.5q-17 0 -27 11t-10 26q0 19 14.5 32.5t34.5 13.5q15 0 25 -10.5t10 -26.5z" />
    <glyph glyph-name="Idotaccent" unicode="&#x130;" horiz-adv-x="227" 
d="M82 0zM176 683q2 13 13.5 23t25.5 10t22 -10t6 -23l-92 -659q-2 -14 -13 -23.5t-25 -9.5t-22.5 9.5t-6.5 23.5zM274 851q0 -20 -14 -33.5t-33 -13.5q-15 0 -25 11t-10 26q0 17 14.5 31.5t32.5 14.5q16 0 25.5 -11t9.5 -25z" />
    <glyph glyph-name="dotlessi" unicode="&#x131;" horiz-adv-x="245" 
d="M159 479q2 14 12.5 23.5t24.5 9.5q13 0 21.5 -9.5t6.5 -23.5l-55 -389q-2 -17 0 -29.5t9 -24.5q1 -2 2 -5.5t1 -6.5q0 -13 -10 -22t-24 -9q-8 0 -17.5 3t-16.5 13t-10.5 29.5t1.5 51.5z" />
    <glyph glyph-name="Jcircumflex" unicode="&#x134;" horiz-adv-x="385" 
d="M35 0zM341 223q-8 -54 -23.5 -97t-42.5 -73t-67.5 -46t-97.5 -16q-10 0 -23 1t-24.5 4t-19.5 10t-8 19q0 17 11.5 26.5t21.5 9.5q2 0 6.5 -0.5t9.5 -1.5q8 -2 19 -3.5t27 -1.5q37 0 62.5 12t41.5 34t25 53t15 70l64 460q2 14 13.5 23.5t25.5 9.5q13 0 21.5 -10t6.5 -23z
M299 785q-1 -2 -6 -2.5t-8 -0.5q-6 0 -10.5 5.5t-4.5 11.5t6.5 13.5t13.5 12.5l90 69h-1q5 2 9.5 4.5t9.5 2.5t9 -2.5t8 -4.5h-1l72 -69q3 -5 7.5 -11.5t4.5 -11.5q0 -7 -7 -13.5t-15 -6.5q-3 0 -6.5 0.5t-4.5 2.5l-74 68z" />
    <glyph glyph-name="jcircumflex" unicode="&#x135;" horiz-adv-x="245" 
d="M0 0zM154 -23q-11 -76 -55 -125t-109 -60q-7 -1 -10.5 -0.5t-8.5 0.5q-9 0 -16 5.5t-8 14.5q-2 17 9.5 25t20.5 10q47 10 75 38t36 88l72 506q2 14 12.5 23.5t24.5 9.5q13 0 21.5 -9.5t6.5 -23.5zM125 585q-1 -2 -6 -2.5t-8 -0.5q-6 0 -10.5 5.5t-4.5 11.5t6.5 13.5
t13.5 12.5l90 69h-1q5 2 9.5 4.5t9.5 2.5t9 -2.5t8 -4.5h-1l72 -69q3 -5 7.5 -11.5t4.5 -11.5q0 -7 -7 -13.5t-15 -6.5q-3 0 -6.5 0.5t-4.5 2.5l-74 68z" />
    <glyph glyph-name="uni0136" unicode="&#x136;" horiz-adv-x="498" 
d="M81 0zM252 337l-70 -73l-33 -239q-2 -14 -13 -24t-25 -10t-22 10t-6 24l92 658q2 13 13 23t25 10t22 -10t6 -23l-45 -320l320 336q6 7 15.5 12t18.5 5t17.5 -7.5t5.5 -24.5q-3 -13 -11 -23v1l-261 -274l192 -346h-1q2 -3 2 -11q0 -11 -7 -25.5t-27 -14.5q-11 0 -16.5 4
t-10.5 11zM320 -108q0 -19 -10 -42t-24 -43.5t-29 -34.5t-25 -14q-11 0 -11 8q0 5 6 13t14 16q5 7 14.5 17t17.5 25q-21 2 -34 14.5t-13 30.5q0 21 16 36.5t39 15.5q17 0 28 -12.5t11 -29.5z" />
    <glyph glyph-name="uni0137" unicode="&#x137;" horiz-adv-x="439" 
d="M82 0zM187 297l229 207q7 7 20 7q11 0 18.5 -7.5t7.5 -18.5q0 -6 -2 -13t-8 -12l-179 -159l140 -263q2 -2 3 -7.5t1 -9.5q0 -13 -10.5 -20.5t-24.5 -7.5q-18 0 -25 15l-129 251l-53 -48l-26 -186q-2 -14 -13 -23t-24 -9q-14 0 -22 9t-6 23l94 675q2 14 13 23.5t25 9.5
q13 0 21 -9.5t6 -23.5zM279 -108q0 -19 -10 -42t-24 -43.5t-29 -34.5t-25 -14q-11 0 -11 8q0 5 6 13t14 16q5 7 14.5 17t17.5 25q-21 2 -34 14.5t-13 30.5q0 21 16 36.5t39 15.5q17 0 28 -12.5t11 -29.5z" />
    <glyph glyph-name="Lacute" unicode="&#x139;" horiz-adv-x="448" 
d="M82 1zM442 36q0 -14 -11 -24.5t-25 -10.5h-288q-16 0 -26 10.5t-8 27.5l91 644q2 13 13 23t25 10t22 -10t6 -23l-87 -619h261q11 0 19 -8t8 -20zM315 916q5 5 11 9.5t14 4.5q10 0 16 -7.5t6 -16.5q0 -10 -5 -15l-94 -87q-8 -8 -15 -12.5t-15 -4.5q-10 0 -16.5 7t-6.5 18
q0 5 1.5 7.5t4.5 5.5z" />
    <glyph glyph-name="lacute" unicode="&#x13a;" horiz-adv-x="228" 
d="M90 0zM180 692q2 13 12 23t24 10t22 -9.5t6 -23.5l-85 -602q-5 -35 10 -54q2 -2 2.5 -5.5t0.5 -6.5q0 -13 -10 -22t-24 -9q-8 0 -17.5 3t-16.5 13t-10.5 29.5t1.5 51.5zM305 902q5 5 11 9.5t14 4.5q10 0 16 -7.5t6 -16.5q0 -10 -5 -15l-94 -87q-8 -8 -15 -12.5t-15 -4.5
q-10 0 -16.5 7t-6.5 18q0 5 1.5 7.5t4.5 5.5z" />
    <glyph glyph-name="uni013B" unicode="&#x13b;" horiz-adv-x="448" 
d="M82 0zM442 36q0 -14 -11 -24.5t-25 -10.5h-288q-16 0 -26 10.5t-8 27.5l91 644q2 13 13 23t25 10t22 -10t6 -23l-87 -619h261q11 0 19 -8t8 -20zM302 -108q0 -19 -10 -42t-24 -43.5t-29 -34.5t-25 -14q-11 0 -11 8q0 5 6 13t14 16q5 7 14.5 17t17.5 25q-21 2 -34 14.5
t-13 30.5q0 21 16 36.5t39 15.5q17 0 28 -12.5t11 -29.5z" />
    <glyph glyph-name="uni013C" unicode="&#x13c;" horiz-adv-x="228" 
d="M49 0zM180 692q2 13 12 23t24 10t22 -9.5t6 -23.5l-85 -602q-5 -35 10 -54q2 -2 2.5 -5.5t0.5 -6.5q0 -13 -10 -22t-24 -9q-8 0 -17.5 3t-16.5 13t-10.5 29.5t1.5 51.5zM148 -108q0 -19 -10 -42t-24 -43.5t-29 -34.5t-25 -14q-11 0 -11 8q0 5 6 13t14 16q5 7 14.5 17
t17.5 25q-21 2 -34 14.5t-13 30.5q0 21 16 36.5t39 15.5q17 0 28 -12.5t11 -29.5z" />
    <glyph glyph-name="Lcaron" unicode="&#x13d;" horiz-adv-x="448" 
d="M82 1zM442 36q0 -14 -11 -24.5t-25 -10.5h-288q-16 0 -26 10.5t-8 27.5l91 644q2 13 13 23t25 10t22 -10t6 -23l-87 -619h261q11 0 19 -8t8 -20zM487 685q0 -22 -10.5 -50.5t-25.5 -54t-30.5 -43t-25.5 -17.5q-5 0 -8.5 1.5t-3.5 6.5q0 11 7 21t17 24q7 9 13 19.5
t17 36.5q-20 2 -32.5 15t-12.5 30q0 21 17 36.5t38 15.5q18 0 29 -12t11 -29z" />
    <glyph glyph-name="lcaron" unicode="&#x13e;" horiz-adv-x="359" 
d="M90 0zM180 692q2 13 12 23t24 10t22 -9.5t6 -23.5l-85 -602q-5 -35 10 -54q2 -2 2.5 -5.5t0.5 -6.5q0 -13 -10 -22t-24 -9q-8 0 -17.5 3t-16.5 13t-10.5 29.5t1.5 51.5zM424 685q0 -22 -10.5 -50.5t-25.5 -54t-30.5 -43t-25.5 -17.5q-5 0 -8.5 1.5t-3.5 6.5q0 11 7 21
t17 24q7 9 13 19.5t17 36.5q-20 2 -32.5 15t-12.5 30q0 21 17 36.5t38 15.5q18 0 29 -12t11 -29z" />
    <glyph glyph-name="Lslash" unicode="&#x141;" horiz-adv-x="494" 
d="M489 36q0 -14 -11 -24.5t-25 -10.5h-288q-16 0 -25.5 10.5t-7.5 27.5l37 265l-57 -33q-5 -3 -10.5 -6t-10.5 -3q-11 0 -20.5 6t-9.5 20q0 18 18 29l100 60l43 306q2 13 13.5 23t25.5 10t21.5 -10t5.5 -23l-37 -263l75 45q6 4 12 6.5t14 2.5t15 -6t9 -14v-5
q0 -10 -4.5 -17t-11.5 -12l-119 -72l-40 -284h261q11 0 19 -8t8 -20z" />
    <glyph glyph-name="lslash" unicode="&#x142;" horiz-adv-x="337" 
d="M171 309l-58 -36q-5 -3 -10.5 -6t-10.5 -3q-12 0 -21.5 6.5t-9.5 20.5q0 17 19 28l101 61l45 320q2 13 13 23t25 10t21.5 -9.5t5.5 -23.5l-38 -276l75 45q8 4 13.5 6.5t13.5 2.5t15 -6t9 -14v-5q0 -10 -4.5 -17t-11.5 -12l-121 -74l-36 -260q-6 -35 10 -54q2 -2 2 -5.5
v-6.5q0 -13 -10 -22t-23 -9q-9 0 -18.5 3t-17 13t-10.5 29.5t2 51.5z" />
    <glyph glyph-name="Nacute" unicode="&#x143;" horiz-adv-x="600" 
d="M80 0zM488 -9q-10 0 -19.5 5t-13.5 14l-228 571l-78 -556q-2 -14 -13.5 -24t-25.5 -10t-22 10t-6 24l91 653q3 17 15 27.5t28 10.5q25 0 33 -21l228 -572l79 559q2 14 13.5 24t25.5 10t21.5 -10t5.5 -24l-92 -654q-2 -16 -13.5 -26.5t-28.5 -10.5zM491 916q5 5 11 9.5
t14 4.5q10 0 16 -7.5t6 -16.5q0 -10 -5 -15l-94 -87q-8 -8 -15 -12.5t-15 -4.5q-10 0 -16.5 7t-6.5 18q0 5 1.5 7.5t4.5 5.5z" />
    <glyph glyph-name="nacute" unicode="&#x144;" horiz-adv-x="509" 
d="M84 0zM194 464q41 26 80.5 37.5t76.5 11.5q78 0 109.5 -51.5t19.5 -135.5l-33 -236q-2 -17 -0.5 -30t9.5 -24q2 -4 2 -12q0 -13 -9.5 -22t-23.5 -9q-8 0 -17.5 3t-16.5 13t-10.5 29.5t1.5 51.5l33 236q9 63 -12 97t-72 34q-32 0 -64.5 -13t-64.5 -35q1 -8 0.5 -17
t-1.5 -17l-49 -350q-2 -14 -11.5 -22.5t-25.5 -8.5q-17 0 -24 8.5t-5 22.5l50 350q4 26 2 43.5t-10 32.5q-3 6 -3 14q0 14 10.5 23t22.5 9q10 0 20 -8t16 -25zM377 716q5 5 11 9.5t14 4.5q10 0 16 -7.5t6 -16.5q0 -10 -5 -15l-94 -87q-8 -8 -15 -12.5t-15 -4.5
q-10 0 -16.5 7t-6.5 18q0 5 1.5 7.5t4.5 5.5z" />
    <glyph glyph-name="uni0145" unicode="&#x145;" horiz-adv-x="600" 
d="M80 0zM488 -9q-10 0 -19.5 5t-13.5 14l-228 571l-78 -556q-2 -14 -13.5 -24t-25.5 -10t-22 10t-6 24l91 653q3 17 15 27.5t28 10.5q25 0 33 -21l228 -572l79 559q2 14 13.5 24t25.5 10t21.5 -10t5.5 -24l-92 -654q-2 -16 -13.5 -26.5t-28.5 -10.5zM333 -108
q0 -19 -10 -42t-24 -43.5t-29 -34.5t-25 -14q-11 0 -11 8q0 5 6 13t14 16q5 7 14.5 17t17.5 25q-21 2 -34 14.5t-13 30.5q0 21 16 36.5t39 15.5q17 0 28 -12.5t11 -29.5z" />
    <glyph glyph-name="uni0146" unicode="&#x146;" horiz-adv-x="509" 
d="M84 0zM194 464q41 26 80.5 37.5t76.5 11.5q78 0 109.5 -51.5t19.5 -135.5l-33 -236q-2 -17 -0.5 -30t9.5 -24q2 -4 2 -12q0 -13 -9.5 -22t-23.5 -9q-8 0 -17.5 3t-16.5 13t-10.5 29.5t1.5 51.5l33 236q9 63 -12 97t-72 34q-32 0 -64.5 -13t-64.5 -35q1 -8 0.5 -17
t-1.5 -17l-49 -350q-2 -14 -11.5 -22.5t-25.5 -8.5q-17 0 -24 8.5t-5 22.5l50 350q4 26 2 43.5t-10 32.5q-3 6 -3 14q0 14 10.5 23t22.5 9q10 0 20 -8t16 -25zM287 -108q0 -19 -10 -42t-24 -43.5t-29 -34.5t-25 -14q-11 0 -11 8q0 5 6 13t14 16q5 7 14.5 17t17.5 25
q-21 2 -34 14.5t-13 30.5q0 21 16 36.5t39 15.5q17 0 28 -12.5t11 -29.5z" />
    <glyph glyph-name="Ncaron" unicode="&#x147;" horiz-adv-x="600" 
d="M80 0zM488 -9q-10 0 -19.5 5t-13.5 14l-228 571l-78 -556q-2 -14 -13.5 -24t-25.5 -10t-22 10t-6 24l91 653q3 17 15 27.5t28 10.5q25 0 33 -21l228 -572l79 559q2 14 13.5 24t25.5 10t21.5 -10t5.5 -24l-92 -654q-2 -16 -13.5 -26.5t-28.5 -10.5zM411 775q-13 0 -18 7
l-80 75q-6 6 -10.5 12.5t-4.5 14.5q0 11 9.5 17.5t17.5 6.5q7 0 13 -6l80 -73l100 73q7 6 15 6t14 -5.5t6 -13.5q0 -11 -6 -17.5t-16 -14.5l-101 -75q-7 -7 -19 -7z" />
    <glyph glyph-name="ncaron" unicode="&#x148;" horiz-adv-x="509" 
d="M84 0zM194 464q41 26 80.5 37.5t76.5 11.5q78 0 109.5 -51.5t19.5 -135.5l-33 -236q-2 -17 -0.5 -30t9.5 -24q2 -4 2 -12q0 -13 -9.5 -22t-23.5 -9q-8 0 -17.5 3t-16.5 13t-10.5 29.5t1.5 51.5l33 236q9 63 -12 97t-72 34q-32 0 -64.5 -13t-64.5 -35q1 -8 0.5 -17
t-1.5 -17l-49 -350q-2 -14 -11.5 -22.5t-25.5 -8.5q-17 0 -24 8.5t-5 22.5l50 350q4 26 2 43.5t-10 32.5q-3 6 -3 14q0 14 10.5 23t22.5 9q10 0 20 -8t16 -25zM337 575q-13 0 -18 7l-80 75q-6 6 -10.5 12.5t-4.5 14.5q0 11 9.5 17.5t17.5 6.5q7 0 13 -6l80 -73l100 73
q7 6 15 6t14 -5.5t6 -13.5q0 -11 -6 -17.5t-16 -14.5l-101 -75q-7 -7 -19 -7z" />
    <glyph glyph-name="Omacron" unicode="&#x14c;" horiz-adv-x="551" 
d="M76 0zM276 -9q-57 0 -96.5 19.5t-63.5 54t-32 80.5t0 99l31 219q7 52 26 98t51 80.5t78 54.5t108 20q61 0 101 -20t62.5 -54.5t29 -80.5t-0.5 -98l-31 -219q-8 -53 -28.5 -99t-54 -80.5t-78.5 -54t-102 -19.5zM369 652q-45 0 -77.5 -13.5t-55 -38.5t-35.5 -60t-19 -77
l-31 -219q-6 -42 -1.5 -76.5t21 -59.5t45 -39t69.5 -14t73 14t55.5 39t38 59.5t20.5 76.5l31 219q6 42 2 77t-19.5 60t-44 38.5t-72.5 13.5zM552 848q0 -14 -9.5 -23.5t-23.5 -9.5h-255q-11 0 -18.5 7t-7.5 18q0 14 10.5 24t24.5 10h255q11 0 17.5 -7.5t6.5 -18.5z" />
    <glyph glyph-name="omacron" unicode="&#x14d;" horiz-adv-x="464" 
d="M69 0zM234 -7q-45 0 -77.5 13.5t-52.5 37t-27.5 55.5t-2.5 69l24 172q5 37 21.5 69t43.5 56t63.5 37.5t81.5 13.5t78 -13.5t53 -37.5t27 -56t2 -69l-24 -172q-5 -37 -21.5 -69t-43.5 -55.5t-63.5 -37t-81.5 -13.5zM243 52q60 0 94 31t42 85l24 173q8 54 -17.5 85.5
t-85.5 31.5t-94.5 -31.5t-42.5 -85.5l-24 -173q-8 -54 18 -85t86 -31zM481 648q0 -14 -9.5 -23.5t-23.5 -9.5h-255q-11 0 -18.5 7t-7.5 18q0 14 10.5 24t24.5 10h255q11 0 17.5 -7.5t6.5 -18.5z" />
    <glyph glyph-name="Obreve" unicode="&#x14e;" horiz-adv-x="551" 
d="M76 0zM276 -9q-57 0 -96.5 19.5t-63.5 54t-32 80.5t0 99l31 219q7 52 26 98t51 80.5t78 54.5t108 20q61 0 101 -20t62.5 -54.5t29 -80.5t-0.5 -98l-31 -219q-8 -53 -28.5 -99t-54 -80.5t-78.5 -54t-102 -19.5zM369 652q-45 0 -77.5 -13.5t-55 -38.5t-35.5 -60t-19 -77
l-31 -219q-6 -42 -1.5 -76.5t21 -59.5t45 -39t69.5 -14t73 14t55.5 39t38 59.5t20.5 76.5l31 219q6 42 2 77t-19.5 60t-44 38.5t-72.5 13.5zM394 832q18 0 38.5 10.5t40.5 34.5q11 14 27 14q10 0 15.5 -6.5t-1.5 -22.5q-8 -19 -22.5 -33.5t-32 -24t-36.5 -14.5t-35 -5
t-34.5 5t-34.5 14.5t-27 24t-12 33.5q-1 14 8.5 21.5t17.5 7.5q15 0 22 -14q14 -24 30 -34.5t36 -10.5z" />
    <glyph glyph-name="obreve" unicode="&#x14f;" horiz-adv-x="464" 
d="M69 0zM234 -7q-45 0 -77.5 13.5t-52.5 37t-27.5 55.5t-2.5 69l24 172q5 37 21.5 69t43.5 56t63.5 37.5t81.5 13.5t78 -13.5t53 -37.5t27 -56t2 -69l-24 -172q-5 -37 -21.5 -69t-43.5 -55.5t-63.5 -37t-81.5 -13.5zM243 52q60 0 94 31t42 85l24 173q8 54 -17.5 85.5
t-85.5 31.5t-94.5 -31.5t-42.5 -85.5l-24 -173q-8 -54 18 -85t86 -31zM323 632q18 0 38.5 10.5t40.5 34.5q11 14 27 14q10 0 15.5 -6.5t-1.5 -22.5q-8 -19 -22.5 -33.5t-32 -24t-36.5 -14.5t-35 -5t-34.5 5t-34.5 14.5t-27 24t-12 33.5q-1 14 8.5 21.5t17.5 7.5q15 0 22 -14
q14 -24 30 -34.5t36 -10.5z" />
    <glyph glyph-name="Ohungarumlaut" unicode="&#x150;" horiz-adv-x="551" 
d="M76 0zM276 -9q-57 0 -96.5 19.5t-63.5 54t-32 80.5t0 99l31 219q7 52 26 98t51 80.5t78 54.5t108 20q61 0 101 -20t62.5 -54.5t29 -80.5t-0.5 -98l-31 -219q-8 -53 -28.5 -99t-54 -80.5t-78.5 -54t-102 -19.5zM369 652q-45 0 -77.5 -13.5t-55 -38.5t-35.5 -60t-19 -77
l-31 -219q-6 -42 -1.5 -76.5t21 -59.5t45 -39t69.5 -14t73 14t55.5 39t38 59.5t20.5 76.5l31 219q6 42 2 77t-19.5 60t-44 38.5t-72.5 13.5zM509 913l14 16t17 8q9 0 16.5 -8t7.5 -17q0 -7 -3 -11l-88 -107q-5 -7 -10 -10.5t-13 -3.5q-10 0 -17 7t-7 16q0 7 3 12zM376 919
q6 8 12 13t14 5q13 0 18 -10.5t5 -18.5q0 -2 -1 -4l-2 -4q-6 -8 -15 -19.5t-19.5 -25t-22 -27.5t-21.5 -26q-10 -11 -17.5 -16.5t-15.5 -5.5q-9 0 -16 7t-7 17q0 5 0.5 7t2.5 4z" />
    <glyph glyph-name="ohungarumlaut" unicode="&#x151;" horiz-adv-x="464" 
d="M69 0zM234 -7q-45 0 -77.5 13.5t-52.5 37t-27.5 55.5t-2.5 69l24 172q5 37 21.5 69t43.5 56t63.5 37.5t81.5 13.5t78 -13.5t53 -37.5t27 -56t2 -69l-24 -172q-5 -37 -21.5 -69t-43.5 -55.5t-63.5 -37t-81.5 -13.5zM243 52q60 0 94 31t42 85l24 173q8 54 -17.5 85.5
t-85.5 31.5t-94.5 -31.5t-42.5 -85.5l-24 -173q-8 -54 18 -85t86 -31zM445 713l14 16t17 8q9 0 16.5 -8t7.5 -17q0 -7 -3 -11l-88 -107q-5 -7 -10 -10.5t-13 -3.5q-10 0 -17 7t-7 16q0 7 3 12zM312 719q6 8 12 13t14 5q13 0 18 -10.5t5 -18.5q0 -2 -1 -4l-2 -4
q-6 -8 -15 -19.5t-19.5 -25t-22 -27.5t-21.5 -26q-10 -11 -17.5 -16.5t-15.5 -5.5q-9 0 -16 7t-7 17q0 5 0.5 7t2.5 4z" />
    <glyph glyph-name="OE" unicode="&#x152;" horiz-adv-x="756" 
d="M731 38q0 -16 -11 -26.5t-26 -10.5h-240q-23 0 -38.5 11.5t-11.5 43.5q-33 -30 -70.5 -47.5t-79.5 -17.5q-51 0 -87.5 18.5t-58 50t-28.5 74t0 90.5l37 259q7 48 24 90.5t46.5 74t71 50t97.5 18.5q42 0 74 -15.5t55 -43.5q6 19 20.5 34t30.5 15h246q13 0 20.5 -8.5
t7.5 -21.5q0 -14 -10.5 -24t-26.5 -10h-220l-36 -255h201q11 0 19.5 -8t8.5 -21q0 -14 -11.5 -24.5t-25.5 -10.5h-201l-36 -258h231q11 0 19.5 -8t8.5 -19zM347 652q-39 0 -67.5 -12t-48 -34.5t-31.5 -53.5t-17 -69l-37 -259q-5 -37 -1 -68t18 -53.5t39 -35t61 -12.5
t64 12.5t48.5 35t33.5 53.5t18 68l37 259q5 38 2 69t-16.5 53.5t-38.5 34.5t-64 12z" />
    <glyph glyph-name="oe" unicode="&#x153;" horiz-adv-x="731" 
d="M228 -7q-43 0 -75 13.5t-51.5 37t-27 55.5t-2.5 69l24 172q5 37 22 69t43.5 56t62 37.5t78.5 13.5q56 0 90.5 -26.5t51.5 -71.5q27 45 69 71t98 26q69 0 103.5 -36.5t34.5 -97.5q0 -39 -10.5 -70.5t-33 -54t-58.5 -34.5t-86 -12q-24 0 -53.5 2.5t-58.5 8.5l-10 -71
q-6 -46 20 -74t86 -28q35 0 60.5 8.5t54.5 20.5q2 1 5 2t6 1q11 0 18 -7.5t7 -17.5q0 -18 -18.5 -29.5t-45 -19t-54.5 -10.5t-47 -3q-54 0 -87 26t-47 69q-29 -44 -71.5 -69.5t-97.5 -25.5zM240 52q60 0 94.5 31t42.5 85l24 173q8 54 -17.5 85.5t-85.5 31.5t-94.5 -31.5
t-42.5 -85.5l-24 -173q-8 -54 17.5 -85t85.5 -31zM685 375q0 44 -23 63.5t-65 19.5q-54 0 -88 -27.5t-41 -74.5l-12 -85q16 -2 33 -3.5t33 -2.5t28.5 -1.5t20.5 -0.5q64 0 89 30.5t25 81.5z" />
    <glyph glyph-name="Racute" unicode="&#x154;" horiz-adv-x="575" 
d="M80 0zM585 538q0 -91 -52 -146t-139 -72l130 -278l-1 1q2 -6 2 -15q0 -17 -15 -26.5t-26 -9.5q-17 0 -25 15l-139 311h-130l-41 -292q-2 -14 -13.5 -24.5t-25.5 -10.5q-13 0 -21.5 10t-6.5 25l89 638q3 17 16.5 29.5t29.5 12.5h178q54 0 90 -14t58.5 -37.5t32 -54
t9.5 -62.5zM518 531q0 21 -6 41t-21.5 35.5t-42 25t-66.5 9.5h-147l-36 -261h153q81 0 123.5 38.5t42.5 111.5zM438 916q5 5 11 9.5t14 4.5q10 0 16 -7.5t6 -16.5q0 -10 -5 -15l-94 -87q-8 -8 -15 -12.5t-15 -4.5q-10 0 -16.5 7t-6.5 18q0 5 1.5 7.5t4.5 5.5z" />
    <glyph glyph-name="racute" unicode="&#x155;" horiz-adv-x="337" 
d="M86 0zM153 25q-2 -14 -13 -23t-24 -9q-14 0 -22 9t-6 23l48 348q4 26 2.5 43.5t-9.5 32.5q-4 8 -4 14q0 14 10.5 23t24.5 9q10 0 19 -8.5t15 -22.5q38 23 80 35t70 12q23 0 32.5 -8t9.5 -20q0 -17 -11.5 -28t-25.5 -10q-17 0 -33 -0.5t-33 -4t-36 -12t-42 -23.5v-1v-4
q0 -3 -1 -9.5t-3 -17.5zM355 716q5 5 11 9.5t14 4.5q10 0 16 -7.5t6 -16.5q0 -10 -5 -15l-94 -87q-8 -8 -15 -12.5t-15 -4.5q-10 0 -16.5 7t-6.5 18q0 5 1.5 7.5t4.5 5.5z" />
    <glyph glyph-name="uni0156" unicode="&#x156;" horiz-adv-x="575" 
d="M80 0zM585 538q0 -91 -52 -146t-139 -72l130 -278l-1 1q2 -6 2 -15q0 -17 -15 -26.5t-26 -9.5q-17 0 -25 15l-139 311h-130l-41 -292q-2 -14 -13.5 -24.5t-25.5 -10.5q-13 0 -21.5 10t-6.5 25l89 638q3 17 16.5 29.5t29.5 12.5h178q54 0 90 -14t58.5 -37.5t32 -54
t9.5 -62.5zM518 531q0 21 -6 41t-21.5 35.5t-42 25t-66.5 9.5h-147l-36 -261h153q81 0 123.5 38.5t42.5 111.5zM320 -108q0 -19 -10 -42t-24 -43.5t-29 -34.5t-25 -14q-11 0 -11 8q0 5 6 13t14 16q5 7 14.5 17t17.5 25q-21 2 -34 14.5t-13 30.5q0 21 16 36.5t39 15.5
q17 0 28 -12.5t11 -29.5z" />
    <glyph glyph-name="uni0157" unicode="&#x157;" horiz-adv-x="337" 
d="M49 0zM153 25q-2 -14 -13 -23t-24 -9q-14 0 -22 9t-6 23l48 348q4 26 2.5 43.5t-9.5 32.5q-4 8 -4 14q0 14 10.5 23t24.5 9q10 0 19 -8.5t15 -22.5q38 23 80 35t70 12q23 0 32.5 -8t9.5 -20q0 -17 -11.5 -28t-25.5 -10q-17 0 -33 -0.5t-33 -4t-36 -12t-42 -23.5v-1v-4
q0 -3 -1 -9.5t-3 -17.5zM148 -108q0 -19 -10 -42t-24 -43.5t-29 -34.5t-25 -14q-11 0 -11 8q0 5 6 13t14 16q5 7 14.5 17t17.5 25q-21 2 -34 14.5t-13 30.5q0 21 16 36.5t39 15.5q17 0 28 -12.5t11 -29.5z" />
    <glyph glyph-name="Rcaron" unicode="&#x158;" horiz-adv-x="575" 
d="M80 0zM585 538q0 -91 -52 -146t-139 -72l130 -278l-1 1q2 -6 2 -15q0 -17 -15 -26.5t-26 -9.5q-17 0 -25 15l-139 311h-130l-41 -292q-2 -14 -13.5 -24.5t-25.5 -10.5q-13 0 -21.5 10t-6.5 25l89 638q3 17 16.5 29.5t29.5 12.5h178q54 0 90 -14t58.5 -37.5t32 -54
t9.5 -62.5zM518 531q0 21 -6 41t-21.5 35.5t-42 25t-66.5 9.5h-147l-36 -261h153q81 0 123.5 38.5t42.5 111.5zM398 775q-13 0 -18 7l-80 75q-6 6 -10.5 12.5t-4.5 14.5q0 11 9.5 17.5t17.5 6.5q7 0 13 -6l80 -73l100 73q7 6 15 6t14 -5.5t6 -13.5q0 -11 -6 -17.5t-16 -14.5
l-101 -75q-7 -7 -19 -7z" />
    <glyph glyph-name="rcaron" unicode="&#x159;" horiz-adv-x="337" 
d="M86 0zM153 25q-2 -14 -13 -23t-24 -9q-14 0 -22 9t-6 23l48 348q4 26 2.5 43.5t-9.5 32.5q-4 8 -4 14q0 14 10.5 23t24.5 9q10 0 19 -8.5t15 -22.5q38 23 80 35t70 12q23 0 32.5 -8t9.5 -20q0 -17 -11.5 -28t-25.5 -10q-17 0 -33 -0.5t-33 -4t-36 -12t-42 -23.5v-1v-4
q0 -3 -1 -9.5t-3 -17.5zM253 575q-13 0 -18 7l-80 75q-6 6 -10.5 12.5t-4.5 14.5q0 11 9.5 17.5t17.5 6.5q7 0 13 -6l80 -73l100 73q7 6 15 6t14 -5.5t6 -13.5q0 -11 -6 -17.5t-16 -14.5l-101 -75q-7 -7 -19 -7z" />
    <glyph glyph-name="Sacute" unicode="&#x15a;" horiz-adv-x="486" 
d="M54 0zM400 208q0 40 -15.5 60.5t-32.5 29.5q-14 8 -34 16t-41 16q-29 10 -57 22t-51 30.5t-37 46t-14 68.5q0 50 16.5 90.5t46.5 69t72.5 44t94.5 15.5q18 0 44.5 -2.5t51.5 -9t43 -17.5t18 -29q0 -14 -10 -24.5t-27 -10.5q-8 0 -17 2.5t-17 6.5q-17 7 -37.5 13.5
t-51.5 6.5q-29 0 -57 -7t-50 -23.5t-35 -43.5t-13 -68q0 -21 5 -36t12.5 -25.5t16 -17.5t16.5 -11q15 -8 35.5 -16.5t40.5 -15.5q28 -9 56 -21.5t50.5 -31.5t36.5 -47t14 -68q0 -54 -19.5 -96.5t-53 -72t-78.5 -45t-96 -15.5q-23 0 -52.5 3.5t-56 11t-45 19.5t-18.5 30
q0 14 11 25t24 11q5 0 14.5 -3t20.5 -8q19 -8 46 -16.5t66 -8.5q82 0 123 41.5t41 111.5zM439 916q5 5 11 9.5t14 4.5q10 0 16 -7.5t6 -16.5q0 -10 -5 -15l-94 -87q-8 -8 -15 -12.5t-15 -4.5q-10 0 -16.5 7t-6.5 18q0 5 1.5 7.5t4.5 5.5z" />
    <glyph glyph-name="sacute" unicode="&#x15b;" horiz-adv-x="406" 
d="M58 0zM110 356q0 70 46 114.5t134 44.5q19 0 40.5 -2.5t40 -7.5t30.5 -14.5t12 -22.5t-10 -22.5t-24 -9.5q-5 0 -7.5 1t-6.5 3q-17 8 -33.5 14t-45.5 6q-58 0 -85 -24t-27 -69q0 -21 10.5 -35.5t33.5 -27.5q25 -14 54 -25t54 -26t41 -37.5t16 -60.5q0 -74 -47.5 -118
t-139.5 -44q-18 0 -42 2t-45.5 7.5t-36 15t-14.5 23.5q0 12 10 22.5t25 10.5q3 0 6 -1q21 -9 46 -17t59 -8q51 0 83 23t32 74q0 25 -9 38.5t-23 21.5q-26 14 -56.5 25t-57.5 26t-45 38t-18 62zM369 716q5 5 11 9.5t14 4.5q10 0 16 -7.5t6 -16.5q0 -10 -5 -15l-94 -87
q-8 -8 -15 -12.5t-15 -4.5q-10 0 -16.5 7t-6.5 18q0 5 1.5 7.5t4.5 5.5z" />
    <glyph glyph-name="Scircumflex" unicode="&#x15c;" horiz-adv-x="486" 
d="M54 0zM400 208q0 40 -15.5 60.5t-32.5 29.5q-14 8 -34 16t-41 16q-29 10 -57 22t-51 30.5t-37 46t-14 68.5q0 50 16.5 90.5t46.5 69t72.5 44t94.5 15.5q18 0 44.5 -2.5t51.5 -9t43 -17.5t18 -29q0 -14 -10 -24.5t-27 -10.5q-8 0 -17 2.5t-17 6.5q-17 7 -37.5 13.5
t-51.5 6.5q-29 0 -57 -7t-50 -23.5t-35 -43.5t-13 -68q0 -21 5 -36t12.5 -25.5t16 -17.5t16.5 -11q15 -8 35.5 -16.5t40.5 -15.5q28 -9 56 -21.5t50.5 -31.5t36.5 -47t14 -68q0 -54 -19.5 -96.5t-53 -72t-78.5 -45t-96 -15.5q-23 0 -52.5 3.5t-56 11t-45 19.5t-18.5 30
q0 14 11 25t24 11q5 0 14.5 -3t20.5 -8q19 -8 46 -16.5t66 -8.5q82 0 123 41.5t41 111.5zM272 785q-1 -2 -6 -2.5t-8 -0.5q-6 0 -10.5 5.5t-4.5 11.5t6.5 13.5t13.5 12.5l90 69h-1q5 2 9.5 4.5t9.5 2.5t9 -2.5t8 -4.5h-1l72 -69q3 -5 7.5 -11.5t4.5 -11.5q0 -7 -7 -13.5
t-15 -6.5q-3 0 -6.5 0.5t-4.5 2.5l-74 68z" />
    <glyph glyph-name="scircumflex" unicode="&#x15d;" horiz-adv-x="406" 
d="M58 0zM110 356q0 70 46 114.5t134 44.5q19 0 40.5 -2.5t40 -7.5t30.5 -14.5t12 -22.5t-10 -22.5t-24 -9.5q-5 0 -7.5 1t-6.5 3q-17 8 -33.5 14t-45.5 6q-58 0 -85 -24t-27 -69q0 -21 10.5 -35.5t33.5 -27.5q25 -14 54 -25t54 -26t41 -37.5t16 -60.5q0 -74 -47.5 -118
t-139.5 -44q-18 0 -42 2t-45.5 7.5t-36 15t-14.5 23.5q0 12 10 22.5t25 10.5q3 0 6 -1q21 -9 46 -17t59 -8q51 0 83 23t32 74q0 25 -9 38.5t-23 21.5q-26 14 -56.5 25t-57.5 26t-45 38t-18 62zM204 585q-1 -2 -6 -2.5t-8 -0.5q-6 0 -10.5 5.5t-4.5 11.5t6.5 13.5t13.5 12.5
l90 69h-1q5 2 9.5 4.5t9.5 2.5t9 -2.5t8 -4.5h-1l72 -69q3 -5 7.5 -11.5t4.5 -11.5q0 -7 -7 -13.5t-15 -6.5q-3 0 -6.5 0.5t-4.5 2.5l-74 68z" />
    <glyph glyph-name="Scedilla" unicode="&#x15e;" horiz-adv-x="486" 
d="M338 -126q0 -18 -7.5 -34t-22 -29t-36 -20.5t-49.5 -7.5q-26 0 -30 1q-20 2 -33 13t-5 25v-1q5 6 11 6t17 -3l18 -4q21 -4 37 0t27 13t16.5 20t5.5 22q0 35 -63 38q-19 1 -25 6t-2 19l16 53q-25 1 -53 5t-51.5 12t-39 19.5t-15.5 27.5q0 14 11 25t24 11q5 0 14.5 -3
t20.5 -8q19 -8 46 -16.5t66 -8.5q82 0 123 41.5t41 111.5q0 40 -15.5 60.5t-32.5 29.5q-14 8 -34 16t-41 16q-29 10 -57 22t-51 30.5t-37 46t-14 68.5q0 50 16.5 90.5t46.5 69t72.5 44t94.5 15.5q18 0 44.5 -2.5t51.5 -9t43 -17.5t18 -29q0 -14 -10 -24.5t-27 -10.5
q-8 0 -17 2.5t-17 6.5q-17 7 -37.5 13.5t-51.5 6.5q-29 0 -57 -7t-50 -23.5t-35 -43.5t-13 -68q0 -21 5 -36t12.5 -25.5t16 -17.5t16.5 -11q15 -8 35.5 -16.5t40.5 -15.5q28 -9 56 -21.5t50.5 -31.5t36.5 -47t14 -68q0 -49 -17 -89.5t-47 -69.5t-71 -47t-88 -22l-14 -47
q57 -1 79.5 -20t22.5 -51z" />
    <glyph glyph-name="scedilla" unicode="&#x15f;" horiz-adv-x="406" 
d="M300 -127q0 -18 -7.5 -34t-22.5 -29t-37 -20.5t-50 -7.5q-25 0 -29 1q-20 2 -33.5 13t-4.5 25v-1q5 6 11 6t17 -3l18 -4q21 -5 37 -1t27.5 13t17 20.5t5.5 22.5q0 35 -63 38q-20 1 -26 6t-2 19l17 55q-19 1 -39.5 4.5t-38 9t-28.5 14.5t-11 21t10 22.5t25 10.5q3 0 6 -1
q21 -9 46 -17t59 -8q51 0 83 23t32 74q0 24 -9 37t-23 21q-8 5 -22 10t-31 12h1q-21 8 -43.5 17.5t-40.5 24t-29.5 36t-11.5 52.5q0 71 46 115.5t134 44.5q19 0 40.5 -2.5t40 -7.5t30.5 -14.5t12 -22.5t-10 -22.5t-24 -9.5q-5 0 -7.5 1t-6.5 3q-17 8 -33.5 14t-45.5 6
q-58 0 -85 -24t-27 -69q0 -20 10.5 -34t33.5 -27q8 -5 20.5 -9.5t26.5 -9.5h-1q21 -8 42 -18t38.5 -24.5t28 -36t10.5 -52.5q0 -70 -43.5 -113.5t-128.5 -49.5l-14 -49q57 -1 80 -20t23 -51z" />
    <glyph glyph-name="Scaron" unicode="&#x160;" horiz-adv-x="486" 
d="M54 0zM400 208q0 40 -15.5 60.5t-32.5 29.5q-14 8 -34 16t-41 16q-29 10 -57 22t-51 30.5t-37 46t-14 68.5q0 50 16.5 90.5t46.5 69t72.5 44t94.5 15.5q18 0 44.5 -2.5t51.5 -9t43 -17.5t18 -29q0 -14 -10 -24.5t-27 -10.5q-8 0 -17 2.5t-17 6.5q-17 7 -37.5 13.5
t-51.5 6.5q-29 0 -57 -7t-50 -23.5t-35 -43.5t-13 -68q0 -21 5 -36t12.5 -25.5t16 -17.5t16.5 -11q15 -8 35.5 -16.5t40.5 -15.5q28 -9 56 -21.5t50.5 -31.5t36.5 -47t14 -68q0 -54 -19.5 -96.5t-53 -72t-78.5 -45t-96 -15.5q-23 0 -52.5 3.5t-56 11t-45 19.5t-18.5 30
q0 14 11 25t24 11q5 0 14.5 -3t20.5 -8q19 -8 46 -16.5t66 -8.5q82 0 123 41.5t41 111.5zM354 775q-13 0 -18 7l-80 75q-6 6 -10.5 12.5t-4.5 14.5q0 11 9.5 17.5t17.5 6.5q7 0 13 -6l80 -73l100 73q7 6 15 6t14 -5.5t6 -13.5q0 -11 -6 -17.5t-16 -14.5l-101 -75
q-7 -7 -19 -7z" />
    <glyph glyph-name="scaron" unicode="&#x161;" horiz-adv-x="406" 
d="M58 0zM110 356q0 70 46 114.5t134 44.5q19 0 40.5 -2.5t40 -7.5t30.5 -14.5t12 -22.5t-10 -22.5t-24 -9.5q-5 0 -7.5 1t-6.5 3q-17 8 -33.5 14t-45.5 6q-58 0 -85 -24t-27 -69q0 -21 10.5 -35.5t33.5 -27.5q25 -14 54 -25t54 -26t41 -37.5t16 -60.5q0 -74 -47.5 -118
t-139.5 -44q-18 0 -42 2t-45.5 7.5t-36 15t-14.5 23.5q0 12 10 22.5t25 10.5q3 0 6 -1q21 -9 46 -17t59 -8q51 0 83 23t32 74q0 25 -9 38.5t-23 21.5q-26 14 -56.5 25t-57.5 26t-45 38t-18 62zM286 575q-13 0 -18 7l-80 75q-6 6 -10.5 12.5t-4.5 14.5q0 11 9.5 17.5
t17.5 6.5q7 0 13 -6l80 -73l100 73q7 6 15 6t14 -5.5t6 -13.5q0 -11 -6 -17.5t-16 -14.5l-101 -75q-7 -7 -19 -7z" />
    <glyph glyph-name="uni0162" unicode="&#x162;" horiz-adv-x="483" 
d="M356 -125q0 -36 -29 -64t-86 -28q-25 0 -29 1q-20 2 -33.5 13t-3.5 25v-1q5 6 11 6t16 -3l18 -4q21 -4 37 0t27 13t16.5 20t5.5 22q0 35 -63 38q-20 1 -26 6t-1 19l17 54q-23 9 -20 32l87 618h-146q-14 0 -22 8t-8 20t12 24t27 12h359q12 0 21 -8t9 -21q0 -14 -12 -24.5
t-27 -10.5h-147l-87 -618q-1 -5 -2.5 -9t-3.5 -7l-18 -63q57 -1 79 -20t22 -50z" />
    <glyph glyph-name="uni0163" unicode="&#x163;" horiz-adv-x="321" 
d="M281 -126q0 -36 -29.5 -64t-86.5 -28q-26 0 -30 1q-20 2 -33.5 13t-3.5 25v-1q5 6 11 6t17 -3l17 -4q21 -5 37.5 -1t27.5 13t16.5 20.5t5.5 22.5q0 35 -64 38q-18 2 -24 6.5t-2 18.5q5 16 9.5 33.5t13.5 39.5q-44 23 -54.5 70.5t0.5 121.5l61 431q2 13 11 22.5t25 9.5
t23 -9.5t5 -22.5l-21 -150h116q11 0 18 -7.5t7 -19.5q0 -14 -10 -23.5t-24 -9.5h-116l-30 -214q-6 -42 -6.5 -71t6.5 -47t24.5 -26t47.5 -8h9q3 0 6 0.5t5 0.5q14 0 27.5 -4.5t13.5 -21.5q0 -24 -17.5 -29.5t-37.5 -5.5t-34 1t-26 3q-12 -32 -11 -57q56 -1 78 -20t22 -50z
" />
    <glyph glyph-name="Tcaron" unicode="&#x164;" horiz-adv-x="483" 
d="M124 0zM300 642h-146q-14 0 -22 8t-8 20t12 24t27 12h359q12 0 21 -8t9 -21q0 -14 -12 -24.5t-27 -10.5h-147l-87 -618q-2 -14 -12.5 -23.5t-24.5 -9.5t-22.5 9.5t-6.5 23.5zM352 775q-13 0 -18 7l-80 75q-6 6 -10.5 12.5t-4.5 14.5q0 11 9.5 17.5t17.5 6.5q7 0 13 -6
l80 -73l100 73q7 6 15 6t14 -5.5t6 -13.5q0 -11 -6 -17.5t-16 -14.5l-101 -75q-7 -7 -19 -7z" />
    <glyph glyph-name="tcaron" unicode="&#x165;" horiz-adv-x="431" 
d="M102 0zM170 633q2 13 11 22.5t25 9.5t23 -9.5t5 -22.5l-21 -150h116q11 0 18 -7.5t7 -19.5q0 -14 -10 -23.5t-24 -9.5h-116l-30 -214q-6 -42 -7 -71t6.5 -47t25 -26t47.5 -8q5 0 10 0.5t10 0.5q14 0 27.5 -4.5t13.5 -21.5q0 -24 -17.5 -29.5t-37.5 -5.5q-52 0 -83.5 13
t-47 38.5t-17.5 64t5 89.5zM504 685q0 -22 -10.5 -50.5t-25.5 -54t-30.5 -43t-25.5 -17.5q-5 0 -8.5 1.5t-3.5 6.5q0 11 7 21t17 24q7 9 13 19.5t17 36.5q-20 2 -32.5 15t-12.5 30q0 21 17 36.5t38 15.5q18 0 29 -12t11 -29z" />
    <glyph glyph-name="Utilde" unicode="&#x168;" horiz-adv-x="572" 
d="M95 0zM539 228q-7 -51 -28 -94.5t-53.5 -75t-75.5 -49.5t-94 -18q-53 0 -91.5 18t-61.5 49.5t-31.5 75t-1.5 94.5l64 452q2 16 14 26t26 10t21.5 -10.5t5.5 -25.5l-64 -452q-11 -77 20 -125t108 -48q39 0 69 13t51.5 36t35 54.5t18.5 69.5l64 452q2 14 13 25t25 11
t23 -11t7 -25l-64 -452v0zM541 860q0 -12 -8 -23t-21 -18.5t-28 -12t-28 -4.5q-17 0 -30.5 5.5t-25.5 12.5q-9 5 -17 10t-25 5q-9 0 -20.5 -3.5t-27.5 -14.5q-6 -5 -10 -7t-10 -2q-8 0 -14 4.5t-6 14.5q0 11 7.5 22t19 19.5t26.5 13.5t30 5t28.5 -5.5t27.5 -13.5
q12 -7 21.5 -10t21.5 -4q20 0 31 5t19 12q4 3 10.5 7.5t12.5 4.5q5 0 10.5 -6t5.5 -17z" />
    <glyph glyph-name="utilde" unicode="&#x169;" horiz-adv-x="509" 
d="M93 0zM434 480q2 14 11 23t26 9q16 0 23 -9t5 -23l-51 -360q-3 -19 -3.5 -30.5t0 -18t2 -10t3.5 -6.5q4 -5 7.5 -12t3.5 -14q0 -12 -10 -21t-24 -9q-13 0 -21.5 9t-16.5 24q-39 -21 -79 -30t-75 -9q-78 0 -110 51t-20 135l42 301q2 14 11.5 23t25.5 9t23 -9t5 -23
l-42 -301q-9 -62 12 -96t72 -34q32 0 64 10t63 28v15.5t2 17.5zM481 660q0 -12 -8 -23t-21 -18.5t-28 -12t-28 -4.5q-17 0 -30.5 5.5t-25.5 12.5q-9 5 -17 10t-25 5q-9 0 -20.5 -3.5t-27.5 -14.5q-6 -5 -10 -7t-10 -2q-8 0 -14 4.5t-6 14.5q0 11 7.5 22t19 19.5t26.5 13.5
t30 5t28.5 -5.5t27.5 -13.5q12 -7 21.5 -10t21.5 -4q20 0 31 5t19 12q4 3 10.5 7.5t12.5 4.5q5 0 10.5 -6t5.5 -17z" />
    <glyph glyph-name="Umacron" unicode="&#x16a;" horiz-adv-x="572" 
d="M95 0zM539 228q-7 -51 -28 -94.5t-53.5 -75t-75.5 -49.5t-94 -18q-53 0 -91.5 18t-61.5 49.5t-31.5 75t-1.5 94.5l64 452q2 16 14 26t26 10t21.5 -10.5t5.5 -25.5l-64 -452q-11 -77 20 -125t108 -48q39 0 69 13t51.5 36t35 54.5t18.5 69.5l64 452q2 14 13 25t25 11
t23 -11t7 -25l-64 -452v0zM563 848q0 -14 -9.5 -23.5t-23.5 -9.5h-255q-11 0 -18.5 7t-7.5 18q0 14 10.5 24t24.5 10h255q11 0 17.5 -7.5t6.5 -18.5z" />
    <glyph glyph-name="umacron" unicode="&#x16b;" horiz-adv-x="509" 
d="M93 0zM434 480q2 14 11 23t26 9q16 0 23 -9t5 -23l-51 -360q-3 -19 -3.5 -30.5t0 -18t2 -10t3.5 -6.5q4 -5 7.5 -12t3.5 -14q0 -12 -10 -21t-24 -9q-13 0 -21.5 9t-16.5 24q-39 -21 -79 -30t-75 -9q-78 0 -110 51t-20 135l42 301q2 14 11.5 23t25.5 9t23 -9t5 -23
l-42 -301q-9 -62 12 -96t72 -34q32 0 64 10t63 28v15.5t2 17.5zM503 648q0 -14 -9.5 -23.5t-23.5 -9.5h-255q-11 0 -18.5 7t-7.5 18q0 14 10.5 24t24.5 10h255q11 0 17.5 -7.5t6.5 -18.5z" />
    <glyph glyph-name="Ubreve" unicode="&#x16c;" horiz-adv-x="572" 
d="M95 0zM539 228q-7 -51 -28 -94.5t-53.5 -75t-75.5 -49.5t-94 -18q-53 0 -91.5 18t-61.5 49.5t-31.5 75t-1.5 94.5l64 452q2 16 14 26t26 10t21.5 -10.5t5.5 -25.5l-64 -452q-11 -77 20 -125t108 -48q39 0 69 13t51.5 36t35 54.5t18.5 69.5l64 452q2 14 13 25t25 11
t23 -11t7 -25l-64 -452v0zM405 832q18 0 38.5 10.5t40.5 34.5q11 14 27 14q10 0 15.5 -6.5t-1.5 -22.5q-8 -19 -22.5 -33.5t-32 -24t-36.5 -14.5t-35 -5t-34.5 5t-34.5 14.5t-27 24t-12 33.5q-1 14 8.5 21.5t17.5 7.5q15 0 22 -14q14 -24 30 -34.5t36 -10.5z" />
    <glyph glyph-name="ubreve" unicode="&#x16d;" horiz-adv-x="509" 
d="M93 0zM434 480q2 14 11 23t26 9q16 0 23 -9t5 -23l-51 -360q-3 -19 -3.5 -30.5t0 -18t2 -10t3.5 -6.5q4 -5 7.5 -12t3.5 -14q0 -12 -10 -21t-24 -9q-13 0 -21.5 9t-16.5 24q-39 -21 -79 -30t-75 -9q-78 0 -110 51t-20 135l42 301q2 14 11.5 23t25.5 9t23 -9t5 -23
l-42 -301q-9 -62 12 -96t72 -34q32 0 64 10t63 28v15.5t2 17.5zM345 632q18 0 38.5 10.5t40.5 34.5q11 14 27 14q10 0 15.5 -6.5t-1.5 -22.5q-8 -19 -22.5 -33.5t-32 -24t-36.5 -14.5t-35 -5t-34.5 5t-34.5 14.5t-27 24t-12 33.5q-1 14 8.5 21.5t17.5 7.5q15 0 22 -14
q14 -24 30 -34.5t36 -10.5z" />
    <glyph glyph-name="Uring" unicode="&#x16e;" horiz-adv-x="572" 
d="M95 0zM539 228q-7 -51 -28 -94.5t-53.5 -75t-75.5 -49.5t-94 -18q-53 0 -91.5 18t-61.5 49.5t-31.5 75t-1.5 94.5l64 452q2 16 14 26t26 10t21.5 -10.5t5.5 -25.5l-64 -452q-11 -77 20 -125t108 -48q39 0 69 13t51.5 36t35 54.5t18.5 69.5l64 452q2 14 13 25t25 11
t23 -11t7 -25l-64 -452v0zM503 862q0 -21 -8.5 -40t-23.5 -33.5t-34.5 -22.5t-40.5 -8q-36 0 -59.5 23.5t-23.5 58.5q0 21 9 40.5t24 33.5t35 22.5t41 8.5q36 0 58.5 -24t22.5 -59zM472 859q0 23 -15 39.5t-39 16.5q-29 0 -51 -21t-22 -50q0 -23 15.5 -39t39.5 -16
q29 0 50.5 20.5t21.5 49.5z" />
    <glyph glyph-name="uring" unicode="&#x16f;" horiz-adv-x="509" 
d="M93 0zM434 480q2 14 11 23t26 9q16 0 23 -9t5 -23l-51 -360q-3 -19 -3.5 -30.5t0 -18t2 -10t3.5 -6.5q4 -5 7.5 -12t3.5 -14q0 -12 -10 -21t-24 -9q-13 0 -21.5 9t-16.5 24q-39 -21 -79 -30t-75 -9q-78 0 -110 51t-20 135l42 301q2 14 11.5 23t25.5 9t23 -9t5 -23
l-42 -301q-9 -62 12 -96t72 -34q32 0 64 10t63 28v15.5t2 17.5zM445 662q0 -21 -8.5 -40t-23.5 -33.5t-34.5 -22.5t-40.5 -8q-36 0 -59.5 23.5t-23.5 58.5q0 21 9 40.5t24 33.5t35 22.5t41 8.5q36 0 58.5 -24t22.5 -59zM414 659q0 23 -15 39.5t-39 16.5q-29 0 -51 -21
t-22 -50q0 -23 15.5 -39t39.5 -16q29 0 50.5 20.5t21.5 49.5z" />
    <glyph glyph-name="Uhungarumlaut" unicode="&#x170;" horiz-adv-x="572" 
d="M95 0zM539 228q-7 -51 -28 -94.5t-53.5 -75t-75.5 -49.5t-94 -18q-53 0 -91.5 18t-61.5 49.5t-31.5 75t-1.5 94.5l64 452q2 16 14 26t26 10t21.5 -10.5t5.5 -25.5l-64 -452q-11 -77 20 -125t108 -48q39 0 69 13t51.5 36t35 54.5t18.5 69.5l64 452q2 14 13 25t25 11
t23 -11t7 -25l-64 -452v0zM528 913l14 16t17 8q9 0 16.5 -8t7.5 -17q0 -7 -3 -11l-88 -107q-5 -7 -10 -10.5t-13 -3.5q-10 0 -17 7t-7 16q0 7 3 12zM395 919q6 8 12 13t14 5q13 0 18 -10.5t5 -18.5q0 -2 -1 -4l-2 -4q-6 -8 -15 -19.5t-19.5 -25t-22 -27.5t-21.5 -26
q-10 -11 -17.5 -16.5t-15.5 -5.5q-9 0 -16 7t-7 17q0 5 0.5 7t2.5 4z" />
    <glyph glyph-name="uhungarumlaut" unicode="&#x171;" horiz-adv-x="509" 
d="M93 0zM434 480q2 14 11 23t26 9q16 0 23 -9t5 -23l-51 -360q-3 -19 -3.5 -30.5t0 -18t2 -10t3.5 -6.5q4 -5 7.5 -12t3.5 -14q0 -12 -10 -21t-24 -9q-13 0 -21.5 9t-16.5 24q-39 -21 -79 -30t-75 -9q-78 0 -110 51t-20 135l42 301q2 14 11.5 23t25.5 9t23 -9t5 -23
l-42 -301q-9 -62 12 -96t72 -34q32 0 64 10t63 28v15.5t2 17.5zM466 713l14 16t17 8q9 0 16.5 -8t7.5 -17q0 -7 -3 -11l-88 -107q-5 -7 -10 -10.5t-13 -3.5q-10 0 -17 7t-7 16q0 7 3 12zM333 719q6 8 12 13t14 5q13 0 18 -10.5t5 -18.5q0 -2 -1 -4l-2 -4q-6 -8 -15 -19.5
t-19.5 -25t-22 -27.5t-21.5 -26q-10 -11 -17.5 -16.5t-15.5 -5.5q-9 0 -16 7t-7 17q0 5 0.5 7t2.5 4z" />
    <glyph glyph-name="Uogonek" unicode="&#x172;" horiz-adv-x="572" 
d="M539 228q-11 -77 -51.5 -134.5t-103.5 -84.5q-9 -14 -18.5 -28.5t-17.5 -29t-13.5 -29.5t-5.5 -28q0 -20 11.5 -32.5t34.5 -12.5q13 0 19.5 1t11.5 2q10 2 13 2q8 0 12.5 -5.5t4.5 -12.5q0 -11 -7.5 -18t-19 -10.5t-24.5 -4.5t-25 -1q-40 0 -63.5 17t-23.5 54
q0 27 15 57.5t41 62.5q-14 -2 -23 -2h-18q-53 0 -91.5 18t-61.5 49.5t-31.5 75t-1.5 94.5l64 452q2 16 14 26t26 10t21.5 -10.5t5.5 -25.5l-64 -452q-11 -77 20 -125t108 -48q39 0 69 13t51.5 36t35 54.5t18.5 69.5l64 452q2 14 13 25t25 11t23 -11t7 -25l-64 -452v0z" />
    <glyph glyph-name="uogonek" unicode="&#x173;" horiz-adv-x="509" 
d="M503 -166q0 -11 -7.5 -18t-19 -10.5t-25 -4.5t-24.5 -1q-41 0 -64.5 17.5t-23.5 54.5q0 32 20 65.5t51 65.5q-14 12 -20 29q-41 -20 -81 -29.5t-75 -9.5q-39 0 -66.5 13.5t-43 38t-20.5 58.5t1 76l42 301q2 14 11 23t26 9q15 0 22.5 -9t5.5 -23l-42 -301q-9 -62 12 -96
t72 -34q32 0 64 10t63 27q-1 11 -0.5 18.5t1.5 15.5l51 360q2 14 11.5 23t25.5 9q17 0 23.5 -9t4.5 -23l-51 -360q-3 -19 -3.5 -30.5t0 -18t2.5 -10t4 -6.5q7 -8 7 -9v-3v1q3 -6 3 -15q0 -12 -12 -24q-21 -23 -36.5 -55t-15.5 -57q0 -20 11 -33t35 -13q13 0 19.5 1.5
t11.5 2.5q10 2 14 2q8 0 12 -6t4 -13z" />
    <glyph glyph-name="Wcircumflex" unicode="&#x174;" horiz-adv-x="776" 
d="M114 0zM475 587q-23 -63 -49 -134t-53 -144t-53.5 -144t-48.5 -133q-7 -14 -19.5 -27.5t-33.5 -13.5q-19 0 -29 12t-13 29l-62 648l1 4q2 14 15 21t27 7q9 0 17 -6.5t10 -17.5l53 -578l202 552q10 25 21.5 39.5t32.5 14.5q20 0 27.5 -15t9.5 -39l50 -553l214 579
q5 11 13 17.5t17 6.5q13 0 25.5 -6t12.5 -20q0 -2 -0.5 -6t-2.5 -6v-1l-242 -641q-7 -16 -20.5 -28.5t-32.5 -12.5q-20 0 -30 13t-12 29zM417 785q-1 -2 -6 -2.5t-8 -0.5q-6 0 -10.5 5.5t-4.5 11.5t6.5 13.5t13.5 12.5l90 69h-1q5 2 9.5 4.5t9.5 2.5t9 -2.5t8 -4.5h-1
l72 -69q3 -5 7.5 -11.5t4.5 -11.5q0 -7 -7 -13.5t-15 -6.5q-3 0 -6.5 0.5t-4.5 2.5l-74 68z" />
    <glyph glyph-name="wcircumflex" unicode="&#x175;" horiz-adv-x="655" 
d="M95 0zM521 33q-8 -20 -18.5 -30t-30.5 -10q-13 0 -23.5 7.5t-12.5 21.5l-45 389q-17 -44 -36 -94t-39 -101t-40 -101t-39 -93q-13 -29 -45 -29q-17 0 -27 11t-12 29l-58 446v2q2 12 13 21.5t25 9.5q9 0 16.5 -6.5t9.5 -16.5l47 -403q45 107 82.5 204.5t73.5 190.5
q6 13 17 22t27 9q14 0 22 -9t10 -22q4 -37 8 -76t9.5 -85.5t13 -103.5t16.5 -130l158 403q4 10 14 16.5t20 6.5q13 0 20.5 -9.5t5.5 -23.5v-2zM328 585q-1 -2 -6 -2.5t-8 -0.5q-6 0 -10.5 5.5t-4.5 11.5t6.5 13.5t13.5 12.5l90 69h-1q5 2 9.5 4.5t9.5 2.5t9 -2.5t8 -4.5h-1
l72 -69q3 -5 7.5 -11.5t4.5 -11.5q0 -7 -7 -13.5t-15 -6.5q-3 0 -6.5 0.5t-4.5 2.5l-74 68z" />
    <glyph glyph-name="Ycircumflex" unicode="&#x176;" horiz-adv-x="476" 
d="M116 0zM240 -9q-15 0 -23.5 10t-6.5 25l36 253l-128 386q-2 8 -2 14q0 14 13 25.5t27 11.5q16 0 22 -13v1l113 -351l210 351v-1q5 7 12 10t15 3q12 0 20.5 -9t8.5 -21q0 -5 -2 -11t-4 -10l-238 -390l-35 -249q-2 -14 -13 -24.5t-25 -10.5zM267 785q-1 -2 -6 -2.5t-8 -0.5
q-6 0 -10.5 5.5t-4.5 11.5t6.5 13.5t13.5 12.5l90 69h-1q5 2 9.5 4.5t9.5 2.5t9 -2.5t8 -4.5h-1l72 -69q3 -5 7.5 -11.5t4.5 -11.5q0 -7 -7 -13.5t-15 -6.5q-3 0 -6.5 0.5t-4.5 2.5l-74 68z" />
    <glyph glyph-name="ycircumflex" unicode="&#x177;" horiz-adv-x="509" 
d="M88 0zM137 480q2 14 11.5 23t25.5 9t23 -9t5 -23l-44 -307q-8 -58 12 -91.5t80 -33.5q34 0 67.5 12.5t62.5 39.5l53 380q2 14 11.5 23t26.5 9q16 0 22.5 -9t4.5 -23l-74 -528q-5 -38 -20 -71.5t-40 -58t-60 -38.5t-81 -14q-17 0 -39.5 2.5t-42.5 8.5t-33.5 16t-13.5 25
q0 11 9.5 21t21.5 10q6 0 15 -3h-1q17 -10 35.5 -17t47.5 -7q65 0 97 33t40 93l12 85q-35 -20 -71 -31.5t-74 -11.5q-45 0 -73.5 13.5t-43.5 37.5t-18 57t2 71zM253 585q-1 -2 -6 -2.5t-8 -0.5q-6 0 -10.5 5.5t-4.5 11.5t6.5 13.5t13.5 12.5l90 69h-1q5 2 9.5 4.5t9.5 2.5
t9 -2.5t8 -4.5h-1l72 -69q3 -5 7.5 -11.5t4.5 -11.5q0 -7 -7 -13.5t-15 -6.5q-3 0 -6.5 0.5t-4.5 2.5l-74 68z" />
    <glyph glyph-name="Ydieresis" unicode="&#x178;" horiz-adv-x="476" 
d="M116 0zM240 -9q-15 0 -23.5 10t-6.5 25l36 253l-128 386q-2 8 -2 14q0 14 13 25.5t27 11.5q16 0 22 -13v1l113 -351l210 351v-1q5 7 12 10t15 3q12 0 20.5 -9t8.5 -21q0 -5 -2 -11t-4 -10l-238 -390l-35 -249q-2 -14 -13 -24.5t-25 -10.5zM485 851q0 -20 -14 -33.5
t-32 -13.5q-15 0 -26 11t-11 26q0 18 15.5 32t33.5 14q15 0 24.5 -11t9.5 -25zM312 851q0 -20 -14 -33.5t-33 -13.5q-15 0 -25 11t-10 26q0 17 14.5 31.5t32.5 14.5q16 0 25.5 -11t9.5 -25z" />
    <glyph glyph-name="Zacute" unicode="&#x179;" horiz-adv-x="484" 
d="M39 1zM458 39q0 -17 -11 -27.5t-27 -10.5h-350q-14 0 -22.5 9t-8.5 23q0 8 5 18t9 15l403 574h-297q-13 0 -21 8t-8 20q0 15 11.5 26.5t26.5 11.5h346q14 0 23 -9t9 -23q0 -9 -5 -17.5t-9 -14.5l-404 -575h301q13 0 21 -8t8 -20zM432 916q5 5 11 9.5t14 4.5q10 0 16 -7.5
t6 -16.5q0 -10 -5 -15l-94 -87q-8 -8 -15 -12.5t-15 -4.5q-10 0 -16.5 7t-6.5 18q0 5 1.5 7.5t4.5 5.5z" />
    <glyph glyph-name="zacute" unicode="&#x17a;" horiz-adv-x="384" 
d="M25 0zM434 476q0 -8 -4 -17t-7 -13l-316 -387h241q11 0 18.5 -8t7.5 -19q0 -14 -10.5 -23t-24.5 -9h-285q-12 0 -20.5 8.5t-8.5 22.5q0 5 2.5 13t6.5 13l319 389h-230q-11 0 -18.5 7.5t-7.5 18.5q0 14 10 23.5t24 9.5h273q14 0 22 -7.5t8 -21.5zM365 716q5 5 11 9.5
t14 4.5q10 0 16 -7.5t6 -16.5q0 -10 -5 -15l-94 -87q-8 -8 -15 -12.5t-15 -4.5q-10 0 -16.5 7t-6.5 18q0 5 1.5 7.5t4.5 5.5z" />
    <glyph glyph-name="Zdotaccent" unicode="&#x17b;" horiz-adv-x="484" 
d="M39 1zM458 39q0 -17 -11 -27.5t-27 -10.5h-350q-14 0 -22.5 9t-8.5 23q0 8 5 18t9 15l403 574h-297q-13 0 -21 8t-8 20q0 15 11.5 26.5t26.5 11.5h346q14 0 23 -9t9 -23q0 -9 -5 -17.5t-9 -14.5l-404 -575h301q13 0 21 -8t8 -20zM402 851q0 -20 -14 -33.5t-33 -13.5
q-15 0 -25 11t-10 26q0 17 14.5 31.5t32.5 14.5q16 0 25.5 -11t9.5 -25z" />
    <glyph glyph-name="zdotaccent" unicode="&#x17c;" horiz-adv-x="384" 
d="M25 0zM434 476q0 -8 -4 -17t-7 -13l-316 -387h241q11 0 18.5 -8t7.5 -19q0 -14 -10.5 -23t-24.5 -9h-285q-12 0 -20.5 8.5t-8.5 22.5q0 5 2.5 13t6.5 13l319 389h-230q-11 0 -18.5 7.5t-7.5 18.5q0 14 10 23.5t24 9.5h273q14 0 22 -7.5t8 -21.5zM324 651q0 -20 -14 -33.5
t-33 -13.5q-15 0 -25 11t-10 26q0 17 14.5 31.5t32.5 14.5q16 0 25.5 -11t9.5 -25z" />
    <glyph glyph-name="Zcaron" unicode="&#x17d;" horiz-adv-x="484" 
d="M39 1zM458 39q0 -17 -11 -27.5t-27 -10.5h-350q-14 0 -22.5 9t-8.5 23q0 8 5 18t9 15l403 574h-297q-13 0 -21 8t-8 20q0 15 11.5 26.5t26.5 11.5h346q14 0 23 -9t9 -23q0 -9 -5 -17.5t-9 -14.5l-404 -575h301q13 0 21 -8t8 -20zM353 775q-13 0 -18 7l-80 75
q-6 6 -10.5 12.5t-4.5 14.5q0 11 9.5 17.5t17.5 6.5q7 0 13 -6l80 -73l100 73q7 6 15 6t14 -5.5t6 -13.5q0 -11 -6 -17.5t-16 -14.5l-101 -75q-7 -7 -19 -7z" />
    <glyph glyph-name="zcaron" unicode="&#x17e;" horiz-adv-x="384" 
d="M25 0zM434 476q0 -8 -4 -17t-7 -13l-316 -387h241q11 0 18.5 -8t7.5 -19q0 -14 -10.5 -23t-24.5 -9h-285q-12 0 -20.5 8.5t-8.5 22.5q0 5 2.5 13t6.5 13l319 389h-230q-11 0 -18.5 7.5t-7.5 18.5q0 14 10 23.5t24 9.5h273q14 0 22 -7.5t8 -21.5zM278 575q-13 0 -18 7
l-80 75q-6 6 -10.5 12.5t-4.5 14.5q0 11 9.5 17.5t17.5 6.5q7 0 13 -6l80 -73l100 73q7 6 15 6t14 -5.5t6 -13.5q0 -11 -6 -17.5t-16 -14.5l-101 -75q-7 -7 -19 -7z" />
    <glyph glyph-name="florin" unicode="&#x192;" horiz-adv-x="492" 
d="M577 691q0 -12 -4 -18.5t-9.5 -9t-12 -2.5t-11.5 1q-10 2 -18.5 2.5t-10.5 0.5q-30 0 -55 -19.5t-36 -53.5l-43 -144h94q10 0 16.5 -5.5t6.5 -18.5q0 -17 -9 -24t-22 -7h-106q-32 -105 -69 -221t-70 -221q-11 -36 -26 -66.5t-35 -52.5t-46 -34.5t-59 -12.5q-30 0 -51 3.5
t-21 21.5q0 16 10.5 25t27.5 9h11q5 0 9 -0.5t9 -0.5q44 0 65 24t37 75l143 451h-95q-11 0 -18 5.5t-7 17.5q0 18 10 25t23 7h105l47 154q20 52 64.5 86t107.5 34q17 0 32.5 -5.5t15.5 -25.5z" />
    <glyph glyph-name="uni0218" unicode="&#x218;" horiz-adv-x="486" 
d="M54 0zM400 208q0 40 -15.5 60.5t-32.5 29.5q-14 8 -34 16t-41 16q-29 10 -57 22t-51 30.5t-37 46t-14 68.5q0 50 16.5 90.5t46.5 69t72.5 44t94.5 15.5q18 0 44.5 -2.5t51.5 -9t43 -17.5t18 -29q0 -14 -10 -24.5t-27 -10.5q-8 0 -17 2.5t-17 6.5q-17 7 -37.5 13.5
t-51.5 6.5q-29 0 -57 -7t-50 -23.5t-35 -43.5t-13 -68q0 -21 5 -36t12.5 -25.5t16 -17.5t16.5 -11q15 -8 35.5 -16.5t40.5 -15.5q28 -9 56 -21.5t50.5 -31.5t36.5 -47t14 -68q0 -54 -19.5 -96.5t-53 -72t-78.5 -45t-96 -15.5q-23 0 -52.5 3.5t-56 11t-45 19.5t-18.5 30
q0 14 11 25t24 11q5 0 14.5 -3t20.5 -8q19 -8 46 -16.5t66 -8.5q82 0 123 41.5t41 111.5zM276 -108q0 -19 -10 -42t-24 -43.5t-29 -34.5t-25 -14q-11 0 -11 8q0 5 6 13t14 16q5 7 14.5 17t17.5 25q-21 2 -34 14.5t-13 30.5q0 21 16 36.5t39 15.5q17 0 28 -12.5t11 -29.5z
" />
    <glyph glyph-name="uni0219" unicode="&#x219;" horiz-adv-x="406" 
d="M58 0zM110 356q0 70 46 114.5t134 44.5q19 0 40.5 -2.5t40 -7.5t30.5 -14.5t12 -22.5t-10 -22.5t-24 -9.5q-5 0 -7.5 1t-6.5 3q-17 8 -33.5 14t-45.5 6q-58 0 -85 -24t-27 -69q0 -21 10.5 -35.5t33.5 -27.5q25 -14 54 -25t54 -26t41 -37.5t16 -60.5q0 -74 -47.5 -118
t-139.5 -44q-18 0 -42 2t-45.5 7.5t-36 15t-14.5 23.5q0 12 10 22.5t25 10.5q3 0 6 -1q21 -9 46 -17t59 -8q51 0 83 23t32 74q0 25 -9 38.5t-23 21.5q-26 14 -56.5 25t-57.5 26t-45 38t-18 62zM236 -108q0 -19 -10 -42t-24 -43.5t-29 -34.5t-25 -14q-11 0 -11 8q0 5 6 13
t14 16q5 7 14.5 17t17.5 25q-21 2 -34 14.5t-13 30.5q0 21 16 36.5t39 15.5q17 0 28 -12.5t11 -29.5z" />
    <glyph glyph-name="uni021A" unicode="&#x21a;" horiz-adv-x="483" 
d="M124 0zM300 642h-146q-14 0 -22 8t-8 20t12 24t27 12h359q12 0 21 -8t9 -21q0 -14 -12 -24.5t-27 -10.5h-147l-87 -618q-2 -14 -12.5 -23.5t-24.5 -9.5t-22.5 9.5t-6.5 23.5zM274 -108q0 -19 -10 -42t-24 -43.5t-29 -34.5t-25 -14q-11 0 -11 8q0 5 6 13t14 16
q5 7 14.5 17t17.5 25q-21 2 -34 14.5t-13 30.5q0 21 16 36.5t39 15.5q17 0 28 -12.5t11 -29.5z" />
    <glyph glyph-name="uni021B" unicode="&#x21b;" horiz-adv-x="321" 
d="M102 0zM170 633q2 13 11 22.5t25 9.5t23 -9.5t5 -22.5l-21 -150h116q11 0 18 -7.5t7 -19.5q0 -14 -10 -23.5t-24 -9.5h-116l-30 -214q-6 -42 -7 -71t6.5 -47t25 -26t47.5 -8q5 0 10 0.5t10 0.5q14 0 27.5 -4.5t13.5 -21.5q0 -24 -17.5 -29.5t-37.5 -5.5q-52 0 -83.5 13
t-47 38.5t-17.5 64t5 89.5zM253 -108q0 -19 -10 -42t-24 -43.5t-29 -34.5t-25 -14q-11 0 -11 8q0 5 6 13t14 16q5 7 14.5 17t17.5 25q-21 2 -34 14.5t-13 30.5q0 21 16 36.5t39 15.5q17 0 28 -12.5t11 -29.5z" />
    <glyph glyph-name="dotlessj" unicode="&#x237;" horiz-adv-x="245" 
d="M154 -23q-11 -76 -55 -125t-109 -60q-7 -1 -10.5 -0.5t-8.5 0.5q-9 0 -16 5.5t-8 14.5q-2 17 9.5 25t20.5 10q47 10 75 38t36 88l72 506q2 14 12.5 23.5t24.5 9.5q13 0 21.5 -9.5t6.5 -23.5z" />
    <glyph glyph-name="circumflex" unicode="&#x2c6;" horiz-adv-x="396" 
d="M198 585q-1 -2 -6 -2.5t-8 -0.5q-6 0 -10.5 5.5t-4.5 11.5t6.5 13.5t13.5 12.5l90 69h-1q5 2 9.5 4.5t9.5 2.5t9 -2.5t8 -4.5h-1l72 -69q3 -5 7.5 -11.5t4.5 -11.5q0 -7 -7 -13.5t-15 -6.5q-3 0 -6.5 0.5t-4.5 2.5l-74 68z" />
    <glyph glyph-name="caron" unicode="&#x2c7;" horiz-adv-x="391" 
d="M278 575q-13 0 -18 7l-80 75q-6 6 -10.5 12.5t-4.5 14.5q0 11 9.5 17.5t17.5 6.5q7 0 13 -6l80 -73l100 73q7 6 15 6t14 -5.5t6 -13.5q0 -11 -6 -17.5t-16 -14.5l-101 -75q-7 -7 -19 -7z" />
    <glyph glyph-name="breve" unicode="&#x2d8;" horiz-adv-x="368" 
d="M274 632q18 0 38.5 10.5t40.5 34.5q11 14 27 14q10 0 15.5 -6.5t-1.5 -22.5q-8 -19 -22.5 -33.5t-32 -24t-36.5 -14.5t-35 -5t-34.5 5t-34.5 14.5t-27 24t-12 33.5q-1 14 8.5 21.5t17.5 7.5q15 0 22 -14q14 -24 30 -34.5t36 -10.5z" />
    <glyph glyph-name="dotaccent" unicode="&#x2d9;" horiz-adv-x="238" 
d="M251 651q0 -20 -14 -33.5t-33 -13.5q-15 0 -25 11t-10 26q0 17 14.5 31.5t32.5 14.5q16 0 25.5 -11t9.5 -25z" />
    <glyph glyph-name="ring" unicode="&#x2da;" horiz-adv-x="571" 
d="M471 662q0 -21 -8.5 -40t-23.5 -33.5t-34.5 -22.5t-40.5 -8q-36 0 -59.5 23.5t-23.5 58.5q0 21 9 40.5t24 33.5t35 22.5t41 8.5q36 0 58.5 -24t22.5 -59zM440 659q0 23 -15 39.5t-39 16.5q-29 0 -51 -21t-22 -50q0 -23 15.5 -39t39.5 -16q29 0 50.5 20.5t21.5 49.5z" />
    <glyph glyph-name="ogonek" unicode="&#x2db;" horiz-adv-x="322" 
d="M221 -164q0 -11 -7.5 -18t-18.5 -10.5t-24 -4.5t-25 -1q-40 0 -63.5 17t-23.5 54q0 28 14 57t36 56h46q-14 -23 -27 -46.5t-13 -45.5q0 -20 11 -32.5t35 -12.5q12 0 19 1t12 2q10 2 13 2q8 0 12 -5.5t4 -12.5z" />
    <glyph glyph-name="tilde" unicode="&#x2dc;" horiz-adv-x="375" 
d="M422 660q0 -12 -8 -23t-21 -18.5t-28 -12t-28 -4.5q-17 0 -30.5 5.5t-25.5 12.5q-9 5 -17 10t-25 5q-9 0 -20.5 -3.5t-27.5 -14.5q-6 -5 -10 -7t-10 -2q-8 0 -14 4.5t-6 14.5q0 11 7.5 22t19 19.5t26.5 13.5t30 5t28.5 -5.5t27.5 -13.5q12 -7 21.5 -10t21.5 -4q20 0 31 5
t19 12q4 3 10.5 7.5t12.5 4.5q5 0 10.5 -6t5.5 -17z" />
    <glyph glyph-name="hungarumlaut" unicode="&#x2dd;" horiz-adv-x="410" 
d="M383 713l14 16t17 8q9 0 16.5 -8t7.5 -17q0 -7 -3 -11l-88 -107q-5 -7 -10 -10.5t-13 -3.5q-10 0 -17 7t-7 16q0 7 3 12zM250 719q6 8 12 13t14 5q13 0 18 -10.5t5 -18.5q0 -2 -1 -4l-2 -4q-6 -8 -15 -19.5t-19.5 -25t-22 -27.5t-21.5 -26q-10 -11 -17.5 -16.5
t-15.5 -5.5q-9 0 -16 7t-7 17q0 5 0.5 7t2.5 4z" />
    <glyph glyph-name="uni0400" unicode="&#x400;" horiz-adv-x="474" 
d="M81 1zM445 38q0 -16 -12 -26.5t-26 -10.5h-271q-23 0 -39 8.5t-13 31.5l88 624q2 16 15.5 28.5t31.5 12.5h277q12 0 19.5 -8.5t7.5 -21.5q0 -14 -11 -24t-25 -10h-252l-36 -255h232q12 0 20 -8t8 -20q0 -15 -11 -25.5t-26 -10.5h-232l-36 -258h262q12 0 20.5 -8t8.5 -19z
M419 826q3 -3 3 -8q0 -12 -9.5 -21t-20.5 -9q-8 0 -14 4t-12 12l-68 88q-3 4 -3 10q0 11 9.5 20t18.5 9q8 0 12.5 -4t10.5 -10z" />
    <glyph glyph-name="uni0401" unicode="&#x401;" horiz-adv-x="474" 
d="M81 1zM445 38q0 -16 -12 -26.5t-26 -10.5h-271q-23 0 -39 8.5t-13 31.5l88 624q2 16 15.5 28.5t31.5 12.5h277q12 0 19.5 -8.5t7.5 -21.5q0 -14 -11 -24t-25 -10h-252l-36 -255h232q12 0 20 -8t8 -20q0 -15 -11 -25.5t-26 -10.5h-232l-36 -258h262q12 0 20.5 -8t8.5 -19z
M515 852q0 -20 -14 -33.5t-32 -13.5q-15 0 -26 11t-11 26q0 18 15.5 32t33.5 14q15 0 24.5 -11t9.5 -25zM342 852q0 -20 -14 -33.5t-33 -13.5q-15 0 -25 11t-10 26q0 17 14.5 31.5t32.5 14.5q16 0 25.5 -11t9.5 -25z" />
    <glyph glyph-name="uni0402" unicode="&#x402;" horiz-adv-x="644" 
d="M258 643h-105q-14 0 -22 8t-8 19q0 14 12.5 25.5t26.5 11.5h360q12 0 20.5 -8t8.5 -21q0 -14 -12 -24.5t-26 -10.5h-188l-33 -234q39 16 76.5 23.5t68.5 7.5q87 0 133 -45.5t46 -135.5q0 -59 -15 -108t-42.5 -84.5t-65.5 -55.5t-84 -20q-40 0 -64.5 14t-24.5 35
q0 14 10.5 23.5t22.5 9.5q5 0 8 -2.5t7 -4.5q7 -5 15.5 -8t26.5 -3q66 0 102.5 50t36.5 149q0 66 -31 94t-96 28q-35 0 -71.5 -7.5t-67.5 -24.5l-45 -320q-2 -14 -13 -23.5t-25 -9.5t-22.5 9.5t-6.5 23.5z" />
    <glyph glyph-name="uni0403" unicode="&#x403;" horiz-adv-x="430" 
d="M81 0zM149 25q-2 -14 -12.5 -23.5t-24.5 -9.5t-22.5 9.5t-6.5 23.5l90 641q2 15 14.5 27t29.5 12h278q12 0 19.5 -8.5t7.5 -20.5q0 -14 -11 -24.5t-25 -10.5h-251zM444 917q5 5 11 9.5t14 4.5q10 0 16 -7.5t6 -16.5q0 -10 -5 -15l-94 -87q-8 -8 -15 -12.5t-15 -4.5
q-10 0 -16.5 7t-6.5 18q0 5 1.5 7.5t4.5 5.5z" />
    <glyph glyph-name="uni0404" unicode="&#x404;" horiz-adv-x="482" 
d="M115 463q8 57 28 104t52.5 80t77 51t101.5 18q32 0 61 -6t51.5 -16.5t36 -24.5t13.5 -29q0 -14 -9.5 -23t-23.5 -9q-7 0 -11.5 2.5t-9.5 6.5q-2 2 -4.5 3t-4.5 3q-23 17 -48 25.5t-55 8.5q-45 0 -78 -13.5t-55 -39t-35.5 -61t-19.5 -80.5l-11 -76h198q11 0 19 -8t8 -20
q0 -16 -11 -26.5t-25 -10.5h-198l-11 -78q-6 -44 -3 -80t18.5 -61t44.5 -38.5t74 -13.5q61 0 110 32l12 7q16 10 24 10q12 0 18.5 -7t6.5 -18q0 -17 -16 -32t-41.5 -26.5t-59 -18t-67.5 -6.5q-57 0 -96.5 18t-62.5 51t-30 79.5t1 103.5z" />
    <glyph glyph-name="uni0405" unicode="&#x405;" horiz-adv-x="486" 
d="M54 0zM400 208q0 40 -15.5 60.5t-32.5 29.5q-14 8 -34 16t-41 16q-29 10 -57 22t-51 30.5t-37 46t-14 68.5q0 50 16.5 90.5t46.5 69t72.5 44t94.5 15.5q18 0 44.5 -2.5t51.5 -9t43 -17.5t18 -29q0 -14 -10 -24.5t-27 -10.5q-8 0 -17 2.5t-17 6.5q-17 7 -37.5 13.5
t-51.5 6.5q-29 0 -57 -7t-50 -23.5t-35 -43.5t-13 -68q0 -21 5 -36t12.5 -25.5t16 -17.5t16.5 -11q15 -8 35.5 -16.5t40.5 -15.5q28 -9 56 -21.5t50.5 -31.5t36.5 -47t14 -68q0 -54 -19.5 -96.5t-53 -72t-78.5 -45t-96 -15.5q-23 0 -52.5 3.5t-56 11t-45 19.5t-18.5 30
q0 14 11 25t24 11q5 0 14.5 -3t20.5 -8q19 -8 46 -16.5t66 -8.5q82 0 123 41.5t41 111.5z" />
    <glyph glyph-name="uni0406" unicode="&#x406;" horiz-adv-x="227" 
d="M82 0zM176 683q2 13 13.5 23t25.5 10t22 -10t6 -23l-92 -659q-2 -14 -13 -23.5t-25 -9.5t-22.5 9.5t-6.5 23.5z" />
    <glyph glyph-name="uni0407" unicode="&#x407;" horiz-adv-x="227" 
d="M82 0zM176 683q2 13 13.5 23t25.5 10t22 -10t6 -23l-92 -659q-2 -14 -13 -23.5t-25 -9.5t-22.5 9.5t-6.5 23.5zM363 852q0 -20 -14 -33.5t-32 -13.5q-15 0 -26 11t-11 26q0 18 15.5 32t33.5 14q15 0 24.5 -11t9.5 -25zM190 852q0 -20 -14 -33.5t-33 -13.5q-15 0 -25 11
t-10 26q0 17 14.5 31.5t32.5 14.5q16 0 25.5 -11t9.5 -25z" />
    <glyph glyph-name="uni0408" unicode="&#x408;" horiz-adv-x="385" 
d="M35 0zM341 223q-8 -54 -23.5 -97t-42.5 -73t-67.5 -46t-97.5 -16q-10 0 -23 1t-24.5 4t-19.5 10t-8 19q0 17 11.5 26.5t21.5 9.5q2 0 6.5 -0.5t9.5 -1.5q8 -2 19 -3.5t27 -1.5q37 0 62.5 12t41.5 34t25 53t15 70l64 460q2 14 13.5 23.5t25.5 9.5q13 0 21.5 -10t6.5 -23z
" />
    <glyph glyph-name="uni0409" unicode="&#x409;" horiz-adv-x="877" 
d="M528 571l10 72h-212l-99 -477q-8 -38 -20.5 -69.5t-30.5 -54.5t-41.5 -36t-52.5 -13q-26 0 -46 4t-20 25q0 20 11 29t24 9q10 0 13 -1.5t16 -1.5q31 0 49.5 25t29.5 76l109 515q5 19 16.5 26.5t20.5 7.5h276q13 0 21 -9.5t6 -23.5l-32 -233h105q91 0 142 -47t51 -136
q0 -47 -13.5 -93t-44 -82.5t-79 -59t-118.5 -22.5h-130q-17 0 -27.5 12t-8.5 29l75 536v-7zM523 65h105q58 0 93.5 18.5t55 46.5t25.5 61t6 61q0 125 -136 125h-105z" />
    <glyph glyph-name="uni040A" unicode="&#x40a;" horiz-adv-x="848" 
d="M147 25q-2 -14 -12.5 -24t-24.5 -10t-22.5 10t-6.5 24l92 658q2 13 13.5 23t25.5 10t21.5 -10t5.5 -23l-42 -297h274l42 294q2 15 13.5 25.5t25.5 10.5t22 -11t6 -25l-34 -239h105q91 0 143 -47t52 -136q0 -47 -14 -93t-44.5 -82.5t-79.5 -59t-119 -22.5h-130
q-17 0 -27.5 12t-8.5 29l39 280h-274zM493 65h105q58 0 93.5 18.5t55 46.5t25.5 61t6 61q0 125 -136 125h-105z" />
    <glyph glyph-name="uni040B" unicode="&#x40b;" horiz-adv-x="644" 
d="M551 678q0 -14 -12 -24.5t-26 -10.5h-188l-33 -234q39 16 76.5 23.5t68.5 7.5q99 0 145 -56t31 -162l-28 -196q-2 -14 -13 -24.5t-25 -10.5q-13 0 -21.5 10t-6.5 25l28 195q11 84 -20.5 119.5t-105.5 35.5q-35 0 -71 -7.5t-67 -24.5l-45 -320q-2 -14 -13 -23.5t-25 -9.5
t-22.5 9.5t-6.5 23.5l87 619h-105q-14 0 -22 8t-8 20t12.5 24t26.5 12h360q12 0 20.5 -8t8.5 -21z" />
    <glyph glyph-name="uni040C" unicode="&#x40c;" horiz-adv-x="516" 
d="M81 0zM199 386h72q63 77 130 157t130 157q14 16 30 16q13 0 19 -11t6 -22q0 -9 -6 -19l-260 -311l172 -311q2 -2 2 -5.5v-5.5q0 -13 -9.5 -26.5t-25.5 -13.5q-17 0 -26 15l-173 316h-70l-41 -297q-2 -14 -13 -24t-25 -10t-22 10t-6 24l92 658q2 13 13 23t25 10t22 -10
t6 -23zM462 917q5 5 11 9.5t14 4.5q10 0 16 -7.5t6 -16.5q0 -10 -5 -15l-94 -87q-8 -8 -15 -12.5t-15 -4.5q-10 0 -16.5 7t-6.5 18q0 5 1.5 7.5t4.5 5.5z" />
    <glyph glyph-name="uni040D" unicode="&#x40d;" horiz-adv-x="589" 
d="M80 0zM115 -9q-17 0 -26 10.5t-7 26.5l92 654q2 14 13 24t25 10t22.5 -10t6.5 -24l-78 -551l379 564q7 10 17.5 15.5t21.5 5.5q15 0 23.5 -10.5t6.5 -27.5l-91 -653q-2 -14 -13 -24t-24 -10q-14 0 -23 10t-7 24l77 550l-378 -565q-6 -9 -16 -14t-21 -5zM428 826
q3 -3 3 -8q0 -12 -9.5 -21t-20.5 -9q-8 0 -14 4t-12 12l-68 88q-3 4 -3 10q0 11 9.5 20t18.5 9q8 0 12.5 -4t10.5 -10z" />
    <glyph glyph-name="uni040E" unicode="&#x40e;" horiz-adv-x="503" 
d="M67 0zM343 228q-26 -51 -50 -94t-52 -74t-62.5 -48.5t-82.5 -18.5q-13 0 -21 7.5t-8 19.5q0 13 9.5 23t25.5 11q26 1 46 7.5t37 19t32 33t32 49.5l-122 511q0 2 -0.5 4t-0.5 4q0 15 11 24.5t27 9.5q20 0 25 -22l103 -447l222 448q5 9 15 15t18 6q11 0 18.5 -7.5
t7.5 -20.5q0 -5 -1 -9t-1 -5zM370 833q18 0 38.5 10.5t40.5 34.5q11 14 27 14q10 0 15.5 -6.5t-1.5 -22.5q-8 -19 -22.5 -33.5t-32 -24t-36.5 -14.5t-35 -5t-34.5 5t-34.5 14.5t-27 24t-12 33.5q-1 14 8.5 21.5t17.5 7.5q15 0 22 -14q14 -24 30 -34.5t36 -10.5z" />
    <glyph glyph-name="uni040F" unicode="&#x40f;" horiz-adv-x="579" 
d="M258 1h-146q-14 0 -22 9.5t-6 23.5l91 649q2 14 13 24t25 10t22 -10t6 -24l-87 -618h294l87 618q2 14 14 24t25 10q14 0 22 -10t6 -24l-91 -649q-2 -14 -13.5 -23.5t-24.5 -9.5h-148l-19 -131q-2 -13 -12.5 -22.5t-24.5 -9.5t-23 9.5t-7 22.5z" />
    <glyph glyph-name="uni0410" unicode="&#x410;" horiz-adv-x="549" 
d="M33 0zM99 15q-6 -9 -16.5 -16.5t-18.5 -7.5q-14 0 -22.5 7.5t-8.5 21.5q0 5 1.5 10t2.5 7l288 630q9 21 21 35t32 14q19 0 27.5 -14.5t12.5 -34.5l110 -630v-6t-1 -7q-2 -15 -13 -24t-26 -9q-9 0 -18 6.5t-11 17.5l-25 148h-269zM193 228h231l-62 379z" />
    <glyph glyph-name="uni0411" unicode="&#x411;" horiz-adv-x="531" 
d="M235 641l-31 -220h126q92 0 143.5 -45.5t51.5 -130.5q0 -45 -13.5 -88.5t-43.5 -78t-78.5 -56t-118.5 -21.5h-150q-17 0 -27.5 12t-8.5 29l88 624q2 15 14 27t29 12h299q12 0 19.5 -8.5t7.5 -20.5q0 -14 -11 -24.5t-25 -10.5h-271zM280 65q58 0 93 17t54 43t25 56.5
t6 56.5q0 119 -136 119h-126l-42 -292h126z" />
    <glyph glyph-name="uni0412" unicode="&#x412;" horiz-adv-x="542" 
d="M83 1zM328 400q28 0 57.5 8.5t53.5 26.5t39.5 45t15.5 64q0 19 -6 37t-19.5 31.5t-35.5 21.5t-54 8h-143l-34 -242h126zM192 335l-38 -270h133q45 0 78.5 11.5t56 31.5t34 47t11.5 59q0 59 -40.5 90t-105.5 31h-129zM120 1q-17 0 -27 12t-8 29l88 622q2 18 16 30t31 12
h173q43 0 74.5 -13t52 -35t30.5 -50t10 -59q0 -37 -11.5 -65t-32 -50.5t-48 -39.5t-59.5 -31q21 -8 43.5 -19t40.5 -27.5t29.5 -40t11.5 -57.5q0 -45 -18 -84.5t-50 -69t-77 -47t-100 -17.5h-169z" />
    <glyph glyph-name="uni0413" unicode="&#x413;" horiz-adv-x="430" 
d="M149 25q-2 -14 -12.5 -23.5t-24.5 -9.5t-22.5 9.5t-6.5 23.5l90 641q2 15 14.5 27t29.5 12h278q12 0 19.5 -8.5t7.5 -20.5q0 -14 -11 -24.5t-25 -10.5h-251z" />
    <glyph glyph-name="uni0414" unicode="&#x414;" horiz-adv-x="628" 
d="M601 705q14 0 22 -9.5t6 -23.5l-85 -607h34q14 0 22 -12.5t5 -32.5l-18 -130q-2 -14 -13 -23t-25 -9t-22 9t-6 23l16 111h-440l-16 -111q-2 -14 -13 -23t-24 -9q-14 0 -22.5 9t-6.5 23l19 130q3 20 14 32.5t25 12.5h34q32 37 57 108.5t43 169.5l61 329q4 19 16 26t21 7
h296zM274 343q-16 -86 -41.5 -156.5t-62.5 -121.5h308l81 576h-232z" />
    <glyph glyph-name="uni0415" unicode="&#x415;" horiz-adv-x="474" 
d="M81 1zM445 38q0 -16 -12 -26.5t-26 -10.5h-271q-23 0 -39 8.5t-13 31.5l88 624q2 16 15.5 28.5t31.5 12.5h277q12 0 19.5 -8.5t7.5 -21.5q0 -14 -11 -24t-25 -10h-252l-36 -255h232q12 0 20 -8t8 -20q0 -15 -11 -25.5t-26 -10.5h-232l-36 -258h262q12 0 20.5 -8t8.5 -19z
" />
    <glyph glyph-name="uni0416" unicode="&#x416;" horiz-adv-x="746" 
d="M464 386h59l241 314q7 8 15 12t15 4q11 0 17.5 -5.5t8.5 -13.5t0.5 -17t-6.5 -16l-235 -311l146 -311q3 -5 3 -11q0 -13 -10 -26.5t-26 -13.5t-26 15l-152 316h-59l-42 -297q-2 -14 -13 -24t-25 -10t-22.5 10t-6.5 24l42 297h-58l-242 -316q-13 -15 -30 -15
q-14 0 -20 10.5t-6 21.5q0 6 1.5 10t5.5 9l233 311l-146 311q-4 9 -2 18t8 16.5t14.5 12.5t16.5 5q16 0 23 -16l152 -314h59l42 297q2 13 13 23t25 10t22.5 -10t6.5 -23z" />
    <glyph glyph-name="uni0417" unicode="&#x417;" horiz-adv-x="485" 
d="M471 210q0 -42 -17.5 -81.5t-50 -70t-77.5 -49t-99 -18.5q-26 0 -57.5 4.5t-59.5 13.5t-47 23t-19 32q0 14 10 24t24 10q5 0 15 -6q15 -8 29.5 -15.5t31.5 -13.5t36.5 -10t44.5 -4q42 0 73.5 13t53 34.5t32.5 50.5t11 61t-13 54t-35 36t-52.5 21t-64.5 9q-14 1 -26.5 5
t-12.5 22q0 23 13 29t26 6q33 0 68.5 9t64 28.5t47 49.5t18.5 72q0 21 -6 40.5t-20 34.5t-36.5 24.5t-55.5 9.5q-25 0 -51.5 -4.5t-47.5 -16.5l-25 -14q-22 -13 -37 -14q-10 0 -17 6.5t-7 17.5q0 18 20 33.5t50 26.5t64.5 17t63.5 6q43 0 74.5 -14t52 -37t30.5 -52.5
t10 -60.5q0 -68 -44 -114t-115 -75q58 -21 94 -58.5t36 -94.5z" />
    <glyph glyph-name="uni0418" unicode="&#x418;" horiz-adv-x="589" 
d="M115 -9q-17 0 -26 10.5t-7 26.5l92 654q2 14 13 24t25 10t22.5 -10t6.5 -24l-78 -551l379 564q7 10 17.5 15.5t21.5 5.5q15 0 23.5 -10.5t6.5 -27.5l-91 -653q-2 -14 -13 -24t-24 -10q-14 0 -23 10t-7 24l77 550l-378 -565q-6 -9 -16 -14t-21 -5z" />
    <glyph glyph-name="uni0419" unicode="&#x419;" horiz-adv-x="589" 
d="M80 0zM115 -9q-17 0 -26 10.5t-7 26.5l92 654q2 14 13 24t25 10t22.5 -10t6.5 -24l-78 -551l379 564q7 10 17.5 15.5t21.5 5.5q15 0 23.5 -10.5t6.5 -27.5l-91 -653q-2 -14 -13 -24t-24 -10q-14 0 -23 10t-7 24l77 550l-378 -565q-6 -9 -16 -14t-21 -5zM413 833
q18 0 38.5 10.5t40.5 34.5q11 14 27 14q10 0 15.5 -6.5t-1.5 -22.5q-8 -19 -22.5 -33.5t-32 -24t-36.5 -14.5t-35 -5t-34.5 5t-34.5 14.5t-27 24t-12 33.5q-1 14 8.5 21.5t17.5 7.5q15 0 22 -14q14 -24 30 -34.5t36 -10.5z" />
    <glyph glyph-name="uni041A" unicode="&#x41a;" horiz-adv-x="516" 
d="M199 386h72q63 77 130 157t130 157q14 16 30 16q13 0 19 -11t6 -22q0 -9 -6 -19l-260 -311l172 -311q2 -2 2 -5.5v-5.5q0 -13 -9.5 -26.5t-25.5 -13.5q-17 0 -26 15l-173 316h-70l-41 -297q-2 -14 -13 -24t-25 -10t-22 10t-6 24l92 658q2 13 13 23t25 10t22 -10t6 -23z
" />
    <glyph glyph-name="uni041B" unicode="&#x41b;" horiz-adv-x="610" 
d="M540 25q-2 -14 -12.5 -23t-24.5 -9q-15 0 -23.5 9t-6.5 23l87 616h-232l-100 -475q-8 -38 -20.5 -69.5t-30.5 -54.5t-41 -36t-52 -13q-26 0 -46.5 4t-20.5 25q0 20 11.5 29t24.5 9q5 0 7.5 -0.5l5 -1t6 -1t10.5 -0.5q30 0 49 25t30 76l109 513q5 19 16 26.5t20 7.5h297
q14 0 21.5 -9.5t5.5 -23.5l-91 -647h1z" />
    <glyph glyph-name="uni041C" unicode="&#x41c;" horiz-adv-x="690" 
d="M72 0zM630 22q-2 -13 -12.5 -22t-23.5 -9q-14 0 -23.5 9t-7.5 22l75 530q-26 -43 -55.5 -91.5t-60 -98.5t-60.5 -98.5t-57 -91.5q-12 -20 -34 -20t-30 20l-126 380l-75 -530q-2 -13 -13 -22t-26 -9q-13 0 -21 9t-6 22l93 658q2 16 13.5 26t27.5 10q24 0 33 -23v1
l145 -443l268 444v-1q8 12 18 17t21 5q14 0 23 -10.5t7 -25.5z" />
    <glyph glyph-name="uni041D" unicode="&#x41d;" horiz-adv-x="580" 
d="M81 0zM510 25q-2 -14 -13 -24t-25 -10q-13 0 -22 10t-7 24l41 297h-294l-41 -297q-2 -14 -13 -24t-25 -10t-22 10t-6 24l92 658q2 13 13 23t25 10t22 -10t6 -23l-42 -297h294l42 297q2 13 14 23t25 10t21.5 -10t6.5 -23l-92 -658v0z" />
    <glyph glyph-name="uni041E" unicode="&#x41e;" horiz-adv-x="551" 
d="M76 0zM276 -9q-57 0 -96.5 19.5t-63.5 54t-32 80.5t0 99l31 219q7 52 26 98t51 80.5t78 54.5t108 20q61 0 101 -20t62.5 -54.5t29 -80.5t-0.5 -98l-31 -219q-8 -53 -28.5 -99t-54 -80.5t-78.5 -54t-102 -19.5zM369 652q-45 0 -77.5 -13.5t-55 -38.5t-35.5 -60t-19 -77
l-31 -219q-6 -42 -1.5 -76.5t21 -59.5t45 -39t69.5 -14t73 14t55.5 39t38 59.5t20.5 76.5l31 219q6 42 2 77t-19.5 60t-44 38.5t-72.5 13.5z" />
    <glyph glyph-name="uni041F" unicode="&#x41f;" horiz-adv-x="579" 
d="M510 25q-2 -14 -13 -24t-25 -10q-13 0 -22 10t-7 24l86 616h-294l-86 -616q-2 -14 -13 -24t-25 -10t-22 10t-6 24l90 646q2 14 13 24t25 10h361q13 0 21.5 -10t6.5 -24l-90 -646v0z" />
    <glyph glyph-name="uni0420" unicode="&#x420;" horiz-adv-x="530" 
d="M81 0zM183 267l-34 -241q-2 -14 -13 -24.5t-25 -10.5q-13 0 -21.5 10t-6.5 25l89 638q3 17 17 29.5t31 12.5h150q53 0 90 -15t60 -40.5t33 -59.5t10 -71q0 -60 -18.5 -107.5t-52 -79.5t-80 -49t-103.5 -17h-126zM192 331h126q179 0 179 184q0 24 -6 47t-21.5 41t-42 28.5
t-66.5 10.5h-126z" />
    <glyph glyph-name="uni0421" unicode="&#x421;" horiz-adv-x="481" 
d="M76 0zM115 463q8 57 28 104t52.5 80t77 51t101.5 18q32 0 61 -6t51.5 -16.5t36 -24.5t13.5 -29q0 -14 -9.5 -23t-23.5 -9q-7 0 -11.5 2.5t-9.5 6.5q-2 2 -4.5 3t-4.5 3q-23 17 -48 25.5t-55 8.5q-45 0 -78 -13.5t-55 -39t-35.5 -61t-19.5 -80.5l-31 -219q-6 -44 -3 -80
t18.5 -61t44.5 -38.5t74 -13.5q61 0 110 32l12 7q16 10 24 10q12 0 18.5 -7t6.5 -18q0 -17 -16 -32t-41.5 -26.5t-59 -18t-67.5 -6.5q-57 0 -96.5 18t-62.5 51t-30 79.5t1 103.5z" />
    <glyph glyph-name="uni0422" unicode="&#x422;" horiz-adv-x="483" 
d="M124 0zM300 642h-146q-14 0 -22 8t-8 20t12 24t27 12h359q12 0 21 -8t9 -21q0 -14 -12 -24.5t-27 -10.5h-147l-87 -618q-2 -14 -12.5 -23.5t-24.5 -9.5t-22.5 9.5t-6.5 23.5z" />
    <glyph glyph-name="uni0423" unicode="&#x423;" horiz-adv-x="503" 
d="M343 228q-26 -51 -50 -94t-52 -74t-62.5 -48.5t-82.5 -18.5q-13 0 -21 7.5t-8 19.5q0 13 9.5 23t25.5 11q26 1 46 7.5t37 19t32 33t32 49.5l-122 511q0 2 -0.5 4t-0.5 4q0 15 11 24.5t27 9.5q20 0 25 -22l103 -447l222 448q5 9 15 15t18 6q11 0 18.5 -7.5t7.5 -20.5
q0 -5 -1 -9t-1 -5z" />
    <glyph glyph-name="uni0424" unicode="&#x424;" horiz-adv-x="750" 
d="M369 165h-73q-92 0 -144 47t-52 136q0 46 13.5 92t44 83t79.5 59.5t120 22.5h73l11 78q2 13 14 23t25 10q14 0 22 -10t6 -23l-11 -78h74q54 0 91 -15t60 -41t33 -60t10 -71q0 -60 -18.5 -107.5t-52.5 -79.5t-80.5 -49t-103.5 -17h-74l-20 -141q-2 -14 -13 -23.5t-25 -9.5
t-22.5 9.5t-6.5 23.5zM488 540l-43 -311h74q89 0 134.5 46t45.5 138q0 24 -6.5 47t-22 41t-42 28.5t-66.5 10.5h-74zM378 229l43 311h-73q-60 0 -96 -19t-54.5 -47t-24.5 -60.5t-6 -59.5q0 -63 35 -94t103 -31h73z" />
    <glyph glyph-name="uni0425" unicode="&#x425;" horiz-adv-x="483" 
d="M15 0zM77 16q-5 -8 -13.5 -16.5t-21.5 -8.5q-11 0 -19 9t-8 21q0 14 8 22l234 325l-132 297l1 -1q-2 8 -2 16q0 14 10.5 25t24.5 11q10 0 18.5 -9.5t13.5 -22.5l112 -268l187 268h-1q8 11 18.5 21.5t24.5 10.5q11 0 17.5 -8.5t6.5 -20.5q0 -7 -2.5 -12.5t-4.5 -10.5l1 1
l-213 -297l142 -325q2 -6 2 -13q0 -16 -11.5 -27.5t-23.5 -11.5q-11 0 -18 8.5t-12 16.5l-126 303z" />
    <glyph glyph-name="uni0426" unicode="&#x426;" horiz-adv-x="604" 
d="M112 1q-14 0 -22.5 9.5t-6.5 23.5l91 648q2 14 13 24t25 10t22.5 -10t6.5 -24l-87 -617h294l87 617q2 14 13 24t25 10t22 -10t6 -24l-87 -617h49q14 0 22 -10t6 -23l-22 -161q-2 -14 -13 -23.5t-25 -9.5q-13 0 -21.5 9.5t-6.5 23.5l18 130h-409v0z" />
    <glyph glyph-name="uni0427" unicode="&#x427;" horiz-adv-x="547" 
d="M501 680q2 14 13.5 25t25.5 11q13 0 21 -10.5t6 -25.5l-92 -654q-2 -15 -13 -25t-24 -10q-14 0 -22.5 10.5t-6.5 24.5l38 270q-38 -15 -75 -22t-69 -7q-100 0 -146 55.5t-31 161.5l27 196q2 14 13.5 25t25.5 11q13 0 21.5 -10.5t6.5 -25.5l-27 -195q-12 -84 19.5 -119
t106.5 -35q34 0 70.5 7.5t66.5 22.5z" />
    <glyph glyph-name="uni0428" unicode="&#x428;" horiz-adv-x="760" 
d="M694 34q-2 -14 -13.5 -23.5t-24.5 -9.5h-545q-14 0 -22 9.5t-6 23.5l91 648q2 14 12.5 24t24.5 10t22.5 -10t6.5 -24l-87 -617h205l87 618q2 13 13 23t25 10t22.5 -10t6.5 -23l-87 -618h206l87 617q2 14 13 24t25 10t22.5 -10t6.5 -24z" />
    <glyph glyph-name="uni0429" unicode="&#x429;" horiz-adv-x="784" 
d="M697 65h49q14 0 22 -10t6 -23l-22 -161q-2 -14 -13 -23.5t-25 -9.5q-13 0 -22 9.5t-7 23.5l18 130h-592q-14 0 -22.5 9.5t-6.5 23.5l91 648q2 14 13 24t25 10t22.5 -10t6.5 -24l-87 -617h205l87 618q2 13 13 23t25 10t22 -10t6 -23l-87 -618h207l87 617q2 14 13 24t24 10
q14 0 22.5 -10t6.5 -24z" />
    <glyph glyph-name="uni042A" unicode="&#x42a;" horiz-adv-x="654" 
d="M290 643h-147q-13 0 -21 8t-8 20q0 14 11 25t27 11h175q17 0 25.5 -12t6.5 -27l-31 -227h126q91 0 142.5 -47t51.5 -136q0 -47 -13.5 -93t-44 -82.5t-79.5 -59t-119 -22.5h-150q-17 0 -28 12t-9 29zM401 65q60 0 95.5 19t54 47.5t24 61t5.5 59.5q0 125 -135 125h-126
l-44 -312h126z" />
    <glyph glyph-name="uni042B" unicode="&#x42b;" horiz-adv-x="725" 
d="M332 441q91 0 143 -47t52 -136q0 -47 -13.5 -93t-44.5 -82.5t-80 -59t-119 -22.5h-150q-17 0 -27.5 12t-8.5 29l90 638q2 15 13.5 25.5t24.5 10.5q14 0 22 -11t6 -25l-34 -239h126zM153 65h126q60 0 96 19t54.5 47.5t24 61t5.5 59.5q0 125 -136 125h-126zM683 683
q2 13 13 23t25 10t22 -10t6 -23l-92 -659q-2 -14 -13 -23.5t-25 -9.5t-22 9.5t-6 23.5z" />
    <glyph glyph-name="uni042C" unicode="&#x42c;" horiz-adv-x="535" 
d="M333 441q91 0 142.5 -47t51.5 -136q0 -47 -13.5 -93t-44 -82.5t-79.5 -59t-119 -22.5h-150q-17 0 -27.5 12t-8.5 29l90 638q2 15 13.5 25.5t24.5 10.5q14 0 22 -11t6 -25l-34 -239h126zM154 65h126q58 0 93.5 18.5t55 46.5t25.5 61t6 61q0 125 -136 125h-126z" />
    <glyph glyph-name="uni042D" unicode="&#x42d;" horiz-adv-x="498" 
d="M486 244q-8 -57 -28 -103.5t-52 -79.5t-76.5 -51t-101.5 -18q-32 0 -61.5 6t-52 16.5t-36 24t-13.5 29.5q0 13 10 22.5t24 9.5q6 0 10.5 -2.5t12.5 -7.5q3 -2 5 -3.5t4 -3.5q41 -32 100 -32q45 0 78 13.5t55 38.5t35.5 61t19.5 80l10 78h-197q-12 0 -19 8t-7 20
q0 16 11 26.5t25 10.5h197l10 76q6 45 3.5 80.5t-17.5 61t-44 39t-74 13.5q-31 0 -58 -8.5t-53 -25.5l-11 -6q-7 -4 -11.5 -6.5t-12.5 -2.5q-12 0 -19.5 7t-7.5 18q0 16 16 31.5t42.5 26.5t59.5 18t68 7q57 0 96.5 -18t62 -51t29 -80t-1.5 -104z" />
    <glyph glyph-name="uni042E" unicode="&#x42e;" horiz-adv-x="758" 
d="M498 -9q-54 0 -92 19t-60.5 52t-30 77t-0.5 95l13 89h-138l-42 -298q-2 -14 -13 -24t-25 -10t-22.5 10t-6.5 24l92 658q2 13 13.5 23t25.5 10t22 -10t6 -23l-42 -297h138l13 87q7 50 25 94t48.5 77t74.5 52.5t103 19.5q58 0 96.5 -19.5t60 -52.5t27.5 -77t-1 -94
l-34 -239q-7 -51 -27 -95t-51.5 -77t-75 -52t-97.5 -19zM591 652q-42 0 -72.5 -13t-51.5 -36.5t-33.5 -56.5t-18.5 -73l-34 -239q-11 -79 19 -129t107 -50q39 0 69.5 13t52 37t35 57t19.5 72l34 239q6 40 2.5 73t-18 56.5t-41.5 36.5t-69 13z" />
    <glyph glyph-name="uni042F" unicode="&#x42f;" horiz-adv-x="561" 
d="M145 481q0 39 12.5 78.5t41 72t75.5 53t116 20.5h158q16 0 25 -12.5t7 -29.5l-89 -637q-2 -15 -12.5 -25t-23.5 -10q-14 0 -23 10.5t-7 24.5l41 292h-109l-226 -311q-12 -15 -30 -15q-9 0 -21 8t-12 20q0 5 2 11t6 11l207 278q-65 13 -101.5 54t-36.5 107zM212 489
q0 -108 131 -108h132l36 260h-126q-56 0 -90 -15t-52.5 -38t-24.5 -49.5t-6 -49.5z" />
    <glyph glyph-name="uni0430" unicode="&#x430;" horiz-adv-x="482" 
d="M69 0zM206 -7q-39 0 -66.5 13.5t-44 38t-21.5 59t1 75.5l19 131q6 45 20.5 82.5t39 64.5t61 42.5t86.5 15.5q46 0 76.5 -13t47.5 -38.5t21.5 -63t-2.5 -86.5l-31 -226q-6 -39 21 -39q3 0 4.5 0.5t3.5 0.5q10 0 14.5 -7t4.5 -16q0 -17 -14 -24t-28 -7q-23 0 -40.5 15.5
t-27.5 41.5q-68 -60 -145 -60zM230 49q32 0 60 12t59 37l34 243q16 119 -90 119q-61 0 -92 -36.5t-42 -113.5l-19 -131q-18 -130 90 -130z" />
    <glyph glyph-name="uni0431" unicode="&#x431;" horiz-adv-x="465" 
d="M118 484q14 96 68 150.5t160 65.5q5 1 10.5 1.5t8.5 0.5q9 0 16.5 1t17 3.5t24 7.5t36.5 15q2 1 5.5 2t6.5 1q11 0 17.5 -7.5t6.5 -18.5q0 -19 -17.5 -30.5t-42 -18.5t-52 -10t-46.5 -4q-18 -2 -41.5 -6.5t-46 -19.5t-40.5 -45t-25 -82l-11 -77q32 35 68 54t78 19
q40 0 69.5 -13.5t48 -37.5t25.5 -56t2 -69l-20 -142q-5 -37 -21.5 -69t-43.5 -55.5t-63.5 -37t-81.5 -13.5t-77.5 13.5t-52.5 37t-27.5 55.5t-2.5 69zM242 52q60 0 94.5 31t42.5 85l20 143q8 54 -15 85.5t-83 31.5q-59 0 -96 -30t-46 -82l-20 -148q-8 -54 17.5 -85t85.5 -31
z" />
    <glyph glyph-name="uni0432" unicode="&#x432;" horiz-adv-x="468" 
d="M249 -7q-45 0 -78 13.5t-54 37t-29.5 55.5t-3.5 69l24 172q5 37 21.5 69t43 56t62.5 37.5t81 13.5q39 0 67 -10t47 -27t28 -40t9 -49q0 -49 -24.5 -80t-79.5 -51q45 -17 63 -44.5t18 -59.5t-12.5 -61.5t-37 -52t-61 -35.5t-84.5 -13zM260 52q121 0 121 105
q0 14 -4.5 27.5t-15.5 24t-31 16.5t-50 6h-122l-9 -63q-8 -54 20.5 -85t90.5 -31zM165 283h125q63 0 87.5 28t24.5 71q0 42 -25 61t-70 19q-59 0 -92.5 -33.5t-41.5 -87.5z" />
    <glyph glyph-name="uni0433" unicode="&#x433;" horiz-adv-x="406" 
d="M409 394q0 -52 -22.5 -82t-56 -48.5t-73 -30.5t-72.5 -28q-21 -10 -37 -29t-16 -57q0 -37 25 -54t67 -17q34 0 60.5 8t50.5 17q3 1 6 1q14 0 20.5 -8t6.5 -19q0 -17 -16.5 -27.5t-40 -16.5t-49.5 -8t-46 -2q-74 0 -110.5 32t-36.5 89q0 52 20.5 82.5t51.5 49t68.5 30.5
t71.5 28q40 19 52.5 37.5t12.5 50.5q0 33 -21 50.5t-67 17.5q-29 0 -47.5 -6t-37.5 -14q-4 -2 -7.5 -3t-8.5 -1q-11 0 -18 7t-7 18q0 15 14 25.5t34.5 17t44 9t43.5 2.5q71 0 106 -33t35 -88z" />
    <glyph glyph-name="uni0434" unicode="&#x434;" horiz-adv-x="500" 
d="M274 689q3 14 13.5 20.5t40.5 6.5q66 0 105 -25.5t59.5 -65t25 -88.5t1.5 -96q-8 -130 -28.5 -216.5t-53.5 -138t-80 -73.5t-108 -22q-43 0 -75.5 14.5t-54.5 41.5t-33.5 64.5t-11.5 82.5q0 53 15.5 104t44 90.5t69.5 63.5t92 24q15 0 34 -2.5t40 -9t42 -17.5t40 -28
q13 95 -6 149q-11 30 -28 47.5t-38 27.5t-43 14t-42 6q-12 2 -17.5 6t-2.5 20zM444 354q-11 14 -29 25.5t-38.5 20t-41.5 13t-39 4.5q-35 0 -63.5 -16.5t-49 -45.5t-32 -68.5t-11.5 -85.5q0 -33 6.5 -60t21.5 -47t39 -31t60 -11q38 0 66.5 13.5t49 42t34 72t21.5 103.5z" />
    <glyph glyph-name="uni0435" unicode="&#x435;" horiz-adv-x="433" 
d="M67 0zM243 48q35 0 60 8.5t54 20.5q2 1 5 2t6 1q11 0 18 -7.5t7 -17.5q0 -18 -18.5 -29.5t-45 -19t-55 -10.5t-49.5 -3q-42 0 -73 12.5t-50.5 34.5t-27 51.5t-2.5 64.5l27 192q5 36 21 66.5t42 53t62 35t80 12.5q73 0 107.5 -36t34.5 -97q0 -78 -44 -125t-144 -47
q-25 0 -54 2.5t-58 8.5l-10 -71q-6 -46 20.5 -74t86.5 -28zM382 375q0 44 -23 63.5t-66 19.5q-54 0 -87.5 -27.5t-40.5 -74.5l-12 -85q32 -5 66 -6.5t50 -1.5q63 0 88 30.5t25 81.5z" />
    <glyph glyph-name="uni0436" unicode="&#x436;" horiz-adv-x="608" 
d="M345 25q-2 -14 -13 -23t-24 -9q-14 0 -22 9t-6 23l30 211h-50l-172 -228q-15 -15 -30 -15q-12 0 -19.5 6.5t-7.5 17.5q0 4 2.5 10t5.5 11l161 213l-103 218q-2 2 -1.5 6.5t1.5 8.5q2 13 11.5 20t22.5 7q8 0 14.5 -4t10.5 -12l98 -206h63l27 190q2 14 12.5 23.5t24.5 9.5
q13 0 21.5 -9.5t6.5 -23.5l-27 -190h62l157 206q12 16 29 16q14 0 21.5 -7t5.5 -20h-1q-1 -5 -2.5 -10.5t-3.5 -8.5l-161 -214l101 -213q2 -3 2 -8.5t-1 -10.5h1q-2 -12 -11.5 -19t-23.5 -7q-17 0 -24 15l-108 228h-50l-30 -211v0z" />
    <glyph glyph-name="uni0437" unicode="&#x437;" horiz-adv-x="408" 
d="M407 395q0 -51 -24.5 -88t-86.5 -48v-1q47 -8 68 -35t21 -69q0 -72 -47.5 -116.5t-142.5 -44.5q-19 0 -44 2t-47.5 7.5t-38 15t-15.5 24.5q0 10 9 21t29 11q2 0 2.5 -0.5t1.5 -0.5q19 -9 47.5 -17t66.5 -8q56 0 86 24.5t30 78.5q0 11 -4 24t-17 24t-36 19.5t-60 10.5
q-14 1 -26.5 4.5t-12.5 19.5q0 20 14 24t31 6q40 4 66 15t41 26.5t21 33.5t6 35q0 32 -21.5 49.5t-69.5 17.5q-19 0 -35 -4t-29 -8.5t-24 -8t-21 -3.5q-12 0 -18.5 7t-6.5 18q0 15 15 25.5t37 17t47 9t45 2.5q73 0 108 -33t35 -87z" />
    <glyph glyph-name="uni0438" unicode="&#x438;" horiz-adv-x="509" 
d="M93 0zM434 480q2 14 11 23t26 9q16 0 23 -9t5 -23l-51 -360q-3 -19 -3.5 -30.5t0 -18t2 -10t3.5 -6.5q4 -5 7.5 -12t3.5 -14q0 -12 -10 -21t-24 -9q-13 0 -21.5 9t-16.5 24q-39 -21 -79 -30t-75 -9q-78 0 -110 51t-20 135l42 301q2 14 11.5 23t25.5 9t23 -9t5 -23
l-42 -301q-9 -62 12 -96t72 -34q32 0 64 10t63 28v15.5t2 17.5z" />
    <glyph glyph-name="uni0439" unicode="&#x439;" horiz-adv-x="509" 
d="M93 0zM344 632q18 0 38.5 10.5t40.5 34.5q11 14 27 14q10 0 15.5 -6.5t-1.5 -22.5q-8 -19 -22.5 -33.5t-32 -24t-36.5 -14.5t-35 -5t-34.5 5t-34.5 14.5t-27 24t-12 33.5q-1 14 8.5 21.5t17.5 7.5q15 0 22 -14q14 -24 30 -34.5t36 -10.5zM434 480q2 14 11 23t26 9
q16 0 23 -9t5 -23l-51 -360q-3 -19 -3.5 -30.5t0 -18t2 -10t3.5 -6.5q4 -5 7.5 -12t3.5 -14q0 -12 -10 -21t-24 -9q-13 0 -21.5 9t-16.5 24q-39 -21 -79 -30t-75 -9q-78 0 -110 51t-20 135l42 301q2 14 11.5 23t25.5 9t23 -9t5 -23l-42 -301q-9 -62 12 -96t72 -34
q32 0 64 10t63 28v15.5t2 17.5z" />
    <glyph glyph-name="uni043A" unicode="&#x43a;" horiz-adv-x="436" 
d="M148 25q-2 -14 -13 -23t-24 -9q-14 0 -22 9t-6 23l63 454q2 14 13 23.5t25 9.5q13 0 21 -9.5t6 -23.5l-26 -190h75l165 206q13 16 29 16q11 0 18.5 -6t7.5 -17q0 -13 -8 -23l-174 -214l114 -213q2 -2 3 -7.5t1 -9.5q0 -13 -10.5 -20.5t-24.5 -7.5q-18 0 -25 15l-118 228
h-61l-29 -211v0z" />
    <glyph glyph-name="uni043B" unicode="&#x43b;" horiz-adv-x="524" 
d="M456 25q-2 -14 -12 -23t-24 -9t-22.5 9t-6.5 23l61 428h-177l-65 -291q-17 -75 -50 -120.5t-90 -45.5q-20 0 -36 3.5t-16 20.5q0 18 11 27t25 9h6q2 0 3 -0.5t4 -0.5q31 0 50 24t30 75l71 318q5 19 16.5 26.5t20.5 7.5h237q14 0 21.5 -9.5t5.5 -23.5l-63 -448v0z" />
    <glyph glyph-name="uni043C" unicode="&#x43c;" horiz-adv-x="640" 
d="M335 87q-21 0 -29 20l-112 268l-49 -350q-2 -14 -12.5 -23t-24.5 -9q-13 0 -20.5 9t-5.5 23l63 451q2 16 13.5 26t27.5 10q11 0 18.5 -6.5t12.5 -16.5l130 -322l222 322q8 10 17 16.5t20 6.5q15 0 23.5 -10t6.5 -26l-63 -451q-2 -14 -12.5 -23t-23.5 -9q-14 0 -22 9
t-6 23l49 350l-186 -268q-15 -20 -35 -20h-2z" />
    <glyph glyph-name="uni043D" unicode="&#x43d;" horiz-adv-x="514" 
d="M147 25q-2 -14 -12.5 -23t-24.5 -9t-22 9t-6 23l63 454q2 14 13 23.5t25 9.5t21.5 -9.5t5.5 -23.5l-26 -190h234l26 190q2 14 13 23.5t25 9.5t21.5 -9.5t5.5 -23.5l-63 -454q-2 -14 -12.5 -23t-24.5 -9t-22 9t-6 23l29 211h-234l-29 -211v0z" />
    <glyph glyph-name="uni043E" unicode="&#x43e;" horiz-adv-x="465" 
d="M69 0zM234 -7q-45 0 -77.5 13.5t-52.5 37t-27.5 55.5t-2.5 69l24 172q5 37 21.5 69t43.5 56t63.5 37.5t81.5 13.5t78 -13.5t53 -37.5t27 -56t2 -69l-24 -172q-5 -37 -21.5 -69t-43.5 -55.5t-63.5 -37t-81.5 -13.5zM243 52q60 0 94 31t42 85l24 173q8 54 -17.5 85.5
t-85.5 31.5t-94.5 -31.5t-42.5 -85.5l-24 -173q-8 -54 18 -85t86 -31z" />
    <glyph glyph-name="uni043F" unicode="&#x43f;" horiz-adv-x="504" 
d="M147 25q-2 -14 -12.5 -23t-23.5 -9q-14 0 -22 9t-6 23l62 448q2 14 13 23.5t25 9.5h288q14 0 21.5 -9.5t5.5 -23.5l-62 -448q-2 -14 -12.5 -23t-24.5 -9t-22 9t-6 23l60 428h-224l-60 -428v0z" />
    <glyph glyph-name="uni0440" unicode="&#x440;" horiz-adv-x="478" 
d="M55 0zM269 -6q-27 0 -58 5.5t-61 15.5l-28 -199q-2 -13 -11.5 -22t-24.5 -9q-17 0 -24 9t-5 22l79 557q4 26 2 43.5t-10 32.5q-4 8 -4 14q0 14 11 23t23 9q10 0 18.5 -8t15.5 -20q41 20 81.5 34t78.5 14q39 0 66 -13.5t42.5 -38.5t20.5 -59t-1 -76l-18 -134
q-6 -44 -19.5 -81t-36.5 -63.5t-56.5 -41t-80.5 -14.5zM158 72q26 -12 57 -18t52 -6q60 0 89.5 35t40.5 111l18 134q9 64 -12 97.5t-76 33.5q-27 0 -60 -11t-65 -29q1 -11 1 -22.5t-2 -23.5z" />
    <glyph glyph-name="uni0441" unicode="&#x441;" horiz-adv-x="390" 
d="M69 0zM96 330q6 38 21 71.5t40 58t60.5 38.5t82.5 14q16 0 38 -2.5t41.5 -8.5t33.5 -16t14 -25q0 -12 -9 -21t-22 -9q-5 0 -8 0.5t-6 1.5h1q-18 10 -36.5 17.5t-46.5 7.5q-66 0 -98 -33.5t-41 -93.5l-22 -156q-8 -60 15 -93t89 -33q29 0 49 7.5t40 16.5h-1q10 3 15 3
q11 0 17.5 -7t6.5 -18q0 -17 -15.5 -27.5t-38 -17.5t-47 -9.5t-42.5 -2.5q-47 0 -78.5 14t-50 38.5t-24 57.5t-0.5 71z" />
    <glyph glyph-name="uni0442" unicode="&#x442;" horiz-adv-x="778" 
d="M83 0zM191 466q39 23 79 36t80 13t67 -14.5t44 -41.5q38 26 77 41t81 15q80 0 115.5 -46.5t24.5 -121.5l-36 -257q-6 -32 9 -54q2 -4 2 -12q0 -13 -9.5 -22t-23.5 -9q-8 0 -17.5 3t-16.5 13t-10.5 29.5t1.5 51.5l36 255q3 23 -0.5 43.5t-14 35.5t-28 24t-43.5 9
q-35 0 -70 -17t-59 -43q1 -11 0.5 -23.5t-2.5 -26.5l-45 -322q-2 -14 -11 -22.5t-26 -8.5t-23.5 8.5t-4.5 22.5l42 299q4 29 4 53.5t-7.5 42t-24.5 27.5t-47 10q-35 0 -71 -14t-62 -32v-17.5t-2 -18.5l-49 -350q-2 -14 -11.5 -22.5t-25.5 -8.5q-17 0 -23.5 8.5t-4.5 22.5
l49 350q4 26 2 43.5t-10 32.5q-3 6 -3 14q0 14 10.5 23t22.5 9q10 0 19.5 -7t15.5 -24z" />
    <glyph glyph-name="uni0443" unicode="&#x443;" horiz-adv-x="509" 
d="M88 0zM137 480q2 14 11.5 23t25.5 9t23 -9t5 -23l-44 -307q-8 -58 12 -91.5t80 -33.5q34 0 67.5 12.5t62.5 39.5l53 380q2 14 11.5 23t26.5 9q16 0 22.5 -9t4.5 -23l-74 -528q-5 -38 -20 -71.5t-40 -58t-60 -38.5t-81 -14q-17 0 -39.5 2.5t-42.5 8.5t-33.5 16t-13.5 25
q0 11 9.5 21t21.5 10q6 0 15 -3h-1q17 -10 35.5 -17t47.5 -7q65 0 97 33t40 93l12 85q-35 -20 -71 -31.5t-74 -11.5q-45 0 -73.5 13.5t-43.5 37.5t-18 57t2 71z" />
    <glyph glyph-name="uni0444" unicode="&#x444;" horiz-adv-x="585" 
d="M261 -7q-53 0 -90 17.5t-59.5 48t-30.5 72t-1 89.5l11 78q7 46 26 86t50 69t73 45.5t95 16.5l26 185q2 13 12.5 23t24.5 10t22 -9.5t6 -23.5l-26 -185q54 0 92 -16.5t61 -45.5t31 -69t1 -86l-11 -78q-7 -48 -26.5 -89.5t-50.5 -72t-73.5 -48t-95.5 -17.5l-27 -182
q-2 -13 -12.5 -22.5t-24.5 -9.5t-22 9.5t-6 22.5zM391 457l-56 -405q76 0 119.5 45t54.5 123l11 79q11 73 -18.5 115.5t-99.5 42.5h-11zM326 457q-75 0 -117 -42.5t-53 -115.5l-11 -79q-11 -78 19.5 -123t105.5 -45z" />
    <glyph glyph-name="uni0445" unicode="&#x445;" horiz-adv-x="431" 
d="M33 0zM111 466q-2 2 -2 9q0 17 12.5 27t23.5 10q12 0 18 -6t11 -17l90 -178l140 178q8 11 15.5 17t19.5 6q10 0 18.5 -8t8.5 -20q0 -14 -7 -18l-167 -207l117 -219q2 -4 2 -11q0 -14 -11 -25t-27 -11q-12 0 -18 5.5t-12 17.5l-96 189l-156 -196q-13 -16 -28 -16
q-14 0 -22 7.5t-8 20.5q0 7 1.5 10t4.5 7l181 221z" />
    <glyph glyph-name="uni0446" unicode="&#x446;" horiz-adv-x="531" 
d="M254 49q32 0 66 11t67 30q-3 16 -2 33.5t3 35.5l45 321q2 14 11.5 23t25.5 9q17 0 23.5 -9t4.5 -23l-45 -321q-15 -110 46 -110q14 0 22 -9.5t6 -23.5l-19 -131q-2 -14 -12 -23t-24 -9t-22.5 9t-6.5 23l17 119q-28 6 -57 38q-39 -25 -84 -37t-84 -12t-66.5 13.5t-43.5 38
t-21 58.5t1 76l42 301q2 14 11 23t26 9q15 0 22.5 -9t5.5 -23l-42 -301q-9 -62 12 -96t72 -34z" />
    <glyph glyph-name="uni0447" unicode="&#x447;" horiz-adv-x="468" 
d="M162 334q-3 -17 -2 -33.5t10 -29.5t27.5 -21t50.5 -8q17 0 50.5 4t66.5 12l31 221q2 14 13 23.5t25 9.5t21.5 -9.5t5.5 -23.5l-64 -454q-2 -14 -12 -23t-24 -9t-22.5 9t-6.5 23l26 180q-32 -8 -61.5 -11.5t-53.5 -3.5q-88 0 -122 38t-24 106l20 145q2 14 13 23.5t25 9.5
t21.5 -9.5t5.5 -23.5z" />
    <glyph glyph-name="uni0448" unicode="&#x448;" horiz-adv-x="772" 
d="M163 159q-7 -47 14.5 -79t72.5 -32q35 0 70 17t59 41q-2 14 -1 26t3 25l45 323q2 14 11.5 23t26.5 9q15 0 22 -9t5 -23l-42 -300q-4 -29 -4 -53t7.5 -41.5t24.5 -27.5t47 -10q35 0 69.5 13t60.5 30l54 389q2 14 11.5 23t26.5 9q16 0 22.5 -9t4.5 -23l-52 -370
q-3 -23 2.5 -37t18.5 -30q2 -2 2 -9q0 -16 -10.5 -25t-21.5 -9q-17 0 -28 9.5t-19 25.5q-38 -21 -78 -33t-79 -12q-42 0 -67.5 13.5t-41.5 39.5q-39 -25 -78.5 -39t-81.5 -14q-80 0 -116 46t-25 121l45 323q2 14 12 23t26 9t22.5 -9t4.5 -23z" />
    <glyph glyph-name="uni0449" unicode="&#x449;" horiz-adv-x="805" 
d="M163 159q-7 -47 14.5 -79t72.5 -32q35 0 70.5 14.5t58.5 36.5q-3 32 1 58l45 323q2 14 11.5 23t26.5 9q16 0 22.5 -9t4.5 -23l-42 -300q-4 -29 -4 -53t7.5 -41.5t25 -27.5t47.5 -10q37 0 74 13.5t63 32.5q-3 30 2 65l45 321q2 14 11.5 23t26.5 9q16 0 22 -9t4 -23
l-45 -321q-15 -110 47 -110q14 0 21.5 -9.5t5.5 -23.5l-18 -131q-2 -14 -12.5 -23t-24.5 -9t-22 9t-6 23l16 119q-17 4 -31.5 14.5t-25.5 24.5q-39 -25 -82.5 -39t-86.5 -14q-42 0 -67.5 13.5t-42.5 39.5q-38 -25 -77.5 -39t-81.5 -14q-80 0 -116 46t-25 121l45 323
q2 14 11.5 23t26.5 9q15 0 22 -9t5 -23z" />
    <glyph glyph-name="uni044A" unicode="&#x44a;" horiz-adv-x="528" 
d="M317 -7q-45 0 -76.5 13.5t-50.5 37t-25.5 55.5t-1.5 69l39 281h-96q-11 0 -18 7t-7 18q0 14 10.5 23t22.5 9h129q14 0 22 -9.5t6 -23.5l-27 -191q60 37 119 37q43 0 74.5 -13t51 -35.5t27 -52.5t2.5 -65q-5 -34 -21.5 -63.5t-42.5 -51t-60.5 -33.5t-76.5 -12zM348 261
q-57 0 -89.5 -27t-32.5 -87q0 -45 24.5 -70t75.5 -25q60 0 94 33t34 89q0 40 -25.5 63.5t-80.5 23.5z" />
    <glyph glyph-name="uni044B" unicode="&#x44b;" horiz-adv-x="654" 
d="M588 25q-2 -14 -12.5 -23t-24.5 -9t-21.5 9t-5.5 23l64 454q2 14 12 23.5t24 9.5t22 -9.5t6 -23.5zM183 282q60 37 119 37q43 0 74.5 -13t51 -35.5t27 -52.5t2.5 -65q-5 -34 -21.5 -63.5t-42.5 -51t-60.5 -33.5t-76.5 -12q-45 0 -76.5 13.5t-50.5 37t-25.5 55.5t-1.5 69
l44 311q2 14 12.5 23.5t24.5 9.5t22 -9.5t6 -23.5zM288 261q-57 0 -90 -26.5t-33 -86.5q0 -45 24.5 -70.5t75.5 -25.5q60 0 94 33t34 89q0 40 -25.5 63.5t-79.5 23.5z" />
    <glyph glyph-name="uni044C" unicode="&#x44c;" horiz-adv-x="472" 
d="M183 282q60 37 119 37q43 0 74.5 -13t51 -35.5t27 -52.5t2.5 -65q-5 -34 -21.5 -63.5t-42.5 -51t-60.5 -33.5t-76.5 -12q-45 0 -76.5 13.5t-50.5 37t-25.5 55.5t-1.5 69l44 311q2 14 12.5 23.5t24.5 9.5t22 -9.5t6 -23.5zM288 261q-57 0 -90 -26.5t-33 -86.5
q0 -45 24.5 -70.5t75.5 -25.5q60 0 94 33t34 89q0 40 -25.5 63.5t-79.5 23.5z" />
    <glyph glyph-name="uni044D" unicode="&#x44d;" horiz-adv-x="393" 
d="M149 227q-12 0 -19.5 7t-7.5 18q0 13 10 22t24 9h165l5 36q10 66 -10 102t-80 36q-31 0 -54.5 -8t-46.5 -17h1q-3 -1 -6 -1.5t-8 -0.5q-11 0 -17.5 7t-6.5 17q0 17 17 28t41 18t50.5 9.5t46.5 2.5q43 0 72 -15t45.5 -41t21 -61t-1.5 -76l-18 -135q-6 -41 -20.5 -75.5
t-38.5 -60.5t-57 -40.5t-76 -14.5q-18 0 -42.5 2.5t-46 8t-36.5 15.5t-15 25q0 12 10 21.5t22 9.5q5 0 14 -3h-1q20 -9 40.5 -16.5t52.5 -7.5q60 0 90.5 36t39.5 100l6 43h-165z" />
    <glyph glyph-name="uni044E" unicode="&#x44e;" horiz-adv-x="681" 
d="M146 25q-2 -14 -13 -23t-24 -9q-14 0 -22 9t-6 23l63 454q2 14 13 23.5t25 9.5q13 0 21 -9.5t6 -23.5l-26 -190h129l7 50q5 37 21.5 69t43 56t63 37.5t81.5 13.5t78 -13.5t53 -37.5t27.5 -56t2.5 -69l-24 -171q-5 -37 -21.5 -69t-43.5 -55.5t-63.5 -37t-81.5 -13.5
t-77.5 13.5t-52.5 37t-27.5 55.5t-2.5 69l9 68h-129zM463 52q60 0 94.5 31t42.5 85l24 172q8 54 -18 85.5t-86 31.5t-94 -31.5t-42 -85.5l-24 -172q-8 -54 17.5 -85t85.5 -31z" />
    <glyph glyph-name="uni044F" unicode="&#x44f;" horiz-adv-x="487" 
d="M381 -7q-14 0 -22 9t-6 23l26 188h-101q-38 -49 -80.5 -103t-83.5 -102q-13 -15 -29 -15q-12 0 -19.5 6.5t-7.5 17.5q0 3 2.5 10.5t5.5 10.5l145 178q-54 12 -78.5 43t-24.5 79q0 37 12 67.5t35.5 53t58.5 35t81 12.5h159q13 0 21 -9.5t6 -23.5l-63 -448q-2 -14 -13 -23
t-24 -9zM172 343q0 -15 4.5 -28.5t16 -24.5t31.5 -17.5t51 -6.5h112l26 186h-124q-57 0 -87 -27t-30 -82z" />
    <glyph glyph-name="uni0450" unicode="&#x450;" horiz-adv-x="433" 
d="M67 0zM243 48q35 0 60 8.5t54 20.5q2 1 5 2t6 1q11 0 18 -7.5t7 -17.5q0 -18 -18.5 -29.5t-45 -19t-55 -10.5t-49.5 -3q-42 0 -73 12.5t-50.5 34.5t-27 51.5t-2.5 64.5l27 192q5 36 21 66.5t42 53t62 35t80 12.5q73 0 107.5 -36t34.5 -97q0 -78 -44 -125t-144 -47
q-25 0 -54 2.5t-58 8.5l-10 -71q-6 -46 20.5 -74t86.5 -28zM382 375q0 44 -23 63.5t-66 19.5q-54 0 -87.5 -27.5t-40.5 -74.5l-12 -85q32 -5 66 -6.5t50 -1.5q63 0 88 30.5t25 81.5zM349 625q3 -3 3 -8q0 -12 -9.5 -21t-20.5 -9q-8 0 -14 4t-12 12l-68 88q-3 4 -3 10
q0 11 9.5 20t18.5 9q8 0 12.5 -4t10.5 -10z" />
    <glyph glyph-name="uni0451" unicode="&#x451;" horiz-adv-x="433" 
d="M67 0zM243 48q35 0 60 8.5t54 20.5q2 1 5 2t6 1q11 0 18 -7.5t7 -17.5q0 -18 -18.5 -29.5t-45 -19t-55 -10.5t-49.5 -3q-42 0 -73 12.5t-50.5 34.5t-27 51.5t-2.5 64.5l27 192q5 36 21 66.5t42 53t62 35t80 12.5q73 0 107.5 -36t34.5 -97q0 -78 -44 -125t-144 -47
q-25 0 -54 2.5t-58 8.5l-10 -71q-6 -46 20.5 -74t86.5 -28zM382 375q0 44 -23 63.5t-66 19.5q-54 0 -87.5 -27.5t-40.5 -74.5l-12 -85q32 -5 66 -6.5t50 -1.5q63 0 88 30.5t25 81.5zM457 651q0 -20 -14 -33.5t-32 -13.5q-15 0 -26 11t-11 26q0 18 15.5 32t33.5 14
q15 0 24.5 -11t9.5 -25zM284 651q0 -20 -14 -33.5t-33 -13.5q-15 0 -25 11t-10 26q0 17 14.5 31.5t32.5 14.5q16 0 25.5 -11t9.5 -25z" />
    <glyph glyph-name="uni0452" unicode="&#x452;" horiz-adv-x="582" 
d="M487 299q8 63 -10 94.5t-70 31.5q-32 0 -69 -16t-67 -50l-47 -334q-2 -14 -12 -23t-23 -9q-14 0 -22.5 9t-6.5 23l79 563h-97q-12 0 -19.5 7.5t-7.5 18.5q0 14 10.5 24t25.5 10h97l8 58q2 12 12 22.5t24 10.5q13 0 21.5 -9.5t6.5 -23.5l-8 -58h95q11 0 18 -8t7 -19
q0 -14 -10 -23.5t-24 -9.5h-95l-22 -156q35 25 72.5 38.5t72.5 13.5q39 0 66 -13.5t42 -38t19.5 -58.5t-1.5 -74l-40 -281q-14 -97 -59 -156t-111 -71q-6 -2 -10 -1t-9 1q-9 0 -15.5 5.5t-7.5 14.5t2 15t8.5 10.5t11.5 7t11 3.5q45 13 74 50.5t40 115.5z" />
    <glyph glyph-name="uni0453" unicode="&#x453;" horiz-adv-x="406" 
d="M69 0zM409 394q0 -52 -22.5 -82t-56 -48.5t-73 -30.5t-72.5 -28q-21 -10 -37 -29t-16 -57q0 -37 25 -54t67 -17q34 0 60.5 8t50.5 17q3 1 6 1q14 0 20.5 -8t6.5 -19q0 -17 -16.5 -27.5t-40 -16.5t-49.5 -8t-46 -2q-74 0 -110.5 32t-36.5 89q0 52 20.5 82.5t51.5 49
t68.5 30.5t71.5 28q40 19 52.5 37.5t12.5 50.5q0 33 -21 50.5t-67 17.5q-29 0 -47.5 -6t-37.5 -14q-4 -2 -7.5 -3t-8.5 -1q-11 0 -18 7t-7 18q0 15 14 25.5t34.5 17t44 9t43.5 2.5q71 0 106 -33t35 -88zM368 716q5 5 11 9.5t14 4.5q10 0 16 -7.5t6 -16.5q0 -10 -5 -15
l-94 -87q-8 -8 -15 -12.5t-15 -4.5q-10 0 -16.5 7t-6.5 18q0 5 1.5 7.5t4.5 5.5z" />
    <glyph glyph-name="uni0454" unicode="&#x454;" horiz-adv-x="390" 
d="M147 227l-6 -43q-9 -64 11.5 -100t80.5 -36q32 0 55 7.5t44 16.5h-1q12 3 16 3q11 0 17 -7t6 -18q0 -17 -17 -27.5t-41 -17.5t-50.5 -9.5t-45.5 -2.5q-44 0 -73 14.5t-46 40.5t-22 60.5t1 75.5l19 135q6 41 20.5 76t38.5 61t57.5 41t77.5 15q18 0 42 -2.5t45.5 -8.5
t36.5 -16t15 -25q0 -12 -9.5 -21t-21.5 -9q-5 0 -8 0.5t-7 1.5h1q-20 9 -40.5 17t-51.5 8q-60 0 -91 -36t-40 -102l-5 -36h166q12 0 18.5 -6.5t6.5 -17.5q0 -14 -9.5 -23t-23.5 -9h-166z" />
    <glyph glyph-name="uni0455" unicode="&#x455;" horiz-adv-x="416" 
d="M58 0zM110 356q0 70 46 114.5t134 44.5q19 0 40.5 -2.5t40 -7.5t30.5 -14.5t12 -22.5t-10 -22.5t-24 -9.5q-5 0 -7.5 1t-6.5 3q-17 8 -33.5 14t-45.5 6q-58 0 -85 -24t-27 -69q0 -21 10.5 -35.5t33.5 -27.5q25 -14 54 -25t54 -26t41 -37.5t16 -60.5q0 -74 -47.5 -118
t-139.5 -44q-18 0 -42 2t-45.5 7.5t-36 15t-14.5 23.5q0 12 10 22.5t25 10.5q3 0 6 -1q21 -9 46 -17t59 -8q51 0 83 23t32 74q0 25 -9 38.5t-23 21.5q-26 14 -56.5 25t-57.5 26t-45 38t-18 62z" />
    <glyph glyph-name="uni0456" unicode="&#x456;" horiz-adv-x="245" 
d="M99 0zM262 686q0 -19 -15 -32.5t-33 -13.5q-17 0 -26.5 11t-9.5 25q0 20 14 33.5t34 13.5q15 0 25.5 -10.5t10.5 -26.5zM159 479q2 14 12.5 23.5t24.5 9.5q13 0 21.5 -9.5t6.5 -23.5l-55 -389q-2 -17 0 -29.5t9 -24.5q1 -2 2 -5.5t1 -6.5q0 -13 -10 -22t-24 -9
q-8 0 -17.5 3t-16.5 13t-10.5 29.5t1.5 51.5z" />
    <glyph glyph-name="uni0457" unicode="&#x457;" horiz-adv-x="245" 
d="M159 25q-2 -14 -12.5 -23t-23.5 -9q-14 0 -22.5 9t-6.5 23l64 454q2 14 13 23.5t25 9.5q13 0 21 -9.5t6 -23.5zM356 636q0 -22 -16.5 -37.5t-36.5 -15.5q-18 0 -30 12.5t-12 30.5q0 20 17 35.5t38 15.5q17 0 28.5 -12t11.5 -29zM162 636q0 -22 -16 -37.5t-37 -15.5
q-18 0 -29 12.5t-11 29.5q0 20 16 36t37 16q18 0 29 -12t11 -29z" />
    <glyph glyph-name="uni0458" unicode="&#x458;" horiz-adv-x="245" 
d="M0 0zM167 -23q-11 -76 -55 -125t-110 -60q-6 -1 -9.5 -0.5t-8.5 0.5q-9 0 -16 5.5t-8 14.5q-2 17 9 25t21 10q47 10 75 38t36 88l72 506q2 14 12.5 23.5t24.5 9.5q13 0 21.5 -9.5t6.5 -23.5zM275 686q0 -19 -14.5 -32.5t-32.5 -13.5q-17 0 -27 11t-10 26q0 19 14.5 32.5
t34.5 13.5q15 0 25 -10.5t10 -26.5z" />
    <glyph glyph-name="uni0459" unicode="&#x459;" horiz-adv-x="737" 
d="M475 506q13 0 21 -9.5t6 -23.5l-25 -179h92q84 0 121.5 -32t37.5 -92q0 -37 -12 -68t-35.5 -53.5t-58 -35t-80.5 -12.5h-138q-14 0 -22 9t-6 23l59 420h-157l-65 -291q-17 -75 -50 -120.5t-90 -45.5q-20 0 -36 3.5t-16 20.5q0 18 11.5 27t24.5 9h6q2 0 3 -0.5t4 -0.5
q32 0 50.5 24t29.5 75l71 318q5 19 16.5 26.5t20.5 7.5h217zM470 241l-26 -186h104q115 0 115 108q0 15 -4.5 29t-15.5 25t-31 17.5t-50 6.5h-92z" />
    <glyph glyph-name="uni045A" unicode="&#x45a;" horiz-adv-x="722" 
d="M146 25q-2 -14 -13 -23t-24 -9q-14 0 -22 9t-6 23l63 454q2 14 13 23.5t25 9.5q13 0 21 -9.5t6 -23.5l-26 -190h213l26 190q2 14 13 23.5t25 9.5q13 0 21 -9.5t6 -23.5l-26 -190h93q83 0 120 -31.5t37 -89.5q0 -36 -12 -67t-35 -53t-57.5 -34.5t-80.5 -12.5h-138
q-14 0 -22 9t-6 23l28 203h-213zM453 236l-25 -181h104q115 0 115 107q0 14 -4.5 27.5t-15.5 24t-31 16.5t-50 6h-93z" />
    <glyph glyph-name="uni045B" unicode="&#x45b;" horiz-adv-x="582" 
d="M432 621q0 -14 -10 -23.5t-24 -9.5h-95l-22 -156q35 25 72.5 38.5t72.5 13.5q39 0 66 -12t42.5 -34t20.5 -51.5t0 -65.5l-42 -296q-2 -14 -12 -23t-24 -9t-22.5 9t-6.5 23l41 294q8 53 -11 79.5t-71 26.5q-32 0 -69 -16t-67 -50l-47 -334q-2 -14 -12 -23t-23 -9
q-14 0 -22.5 9t-6.5 23l79 563h-97q-12 0 -19.5 7.5t-7.5 18.5q0 14 10.5 24t25.5 10h97l8 58q2 12 12 22.5t24 10.5q13 0 21.5 -9.5t6.5 -23.5l-8 -58h95q11 0 18 -8t7 -19z" />
    <glyph glyph-name="uni045C" unicode="&#x45c;" horiz-adv-x="436" 
d="M81 0zM148 25q-2 -14 -13 -23t-24 -9q-14 0 -22 9t-6 23l63 454q2 14 13 23.5t25 9.5q13 0 21 -9.5t6 -23.5l-26 -190h75l165 206q13 16 29 16q11 0 18.5 -6t7.5 -17q0 -13 -8 -23l-174 -214l114 -213q2 -2 3 -7.5t1 -9.5q0 -13 -10.5 -20.5t-24.5 -7.5q-18 0 -25 15
l-118 228h-61l-29 -211v0zM407 716q5 5 11 9.5t14 4.5q10 0 16 -7.5t6 -16.5q0 -10 -5 -15l-94 -87q-8 -8 -15 -12.5t-15 -4.5q-10 0 -16.5 7t-6.5 18q0 5 1.5 7.5t4.5 5.5z" />
    <glyph glyph-name="uni045D" unicode="&#x45d;" horiz-adv-x="509" 
d="M93 0zM378 625q3 -3 3 -8q0 -12 -9.5 -21t-20.5 -9q-8 0 -14 4t-12 12l-68 88q-3 4 -3 10q0 11 9.5 20t18.5 9q8 0 12.5 -4t10.5 -10zM434 480q2 14 11 23t26 9q16 0 23 -9t5 -23l-51 -360q-3 -19 -3.5 -30.5t0 -18t2 -10t3.5 -6.5q4 -5 7.5 -12t3.5 -14q0 -12 -10 -21
t-24 -9q-13 0 -21.5 9t-16.5 24q-39 -21 -79 -30t-75 -9q-78 0 -110 51t-20 135l42 301q2 14 11.5 23t25.5 9t23 -9t5 -23l-42 -301q-9 -62 12 -96t72 -34q32 0 64 10t63 28v15.5t2 17.5z" />
    <glyph glyph-name="uni045E" unicode="&#x45e;" horiz-adv-x="509" 
d="M88 0zM137 480q2 14 11.5 23t25.5 9t23 -9t5 -23l-44 -307q-8 -58 12 -91.5t80 -33.5q34 0 67.5 12.5t62.5 39.5l53 380q2 14 11.5 23t26.5 9q16 0 22.5 -9t4.5 -23l-74 -528q-5 -38 -20 -71.5t-40 -58t-60 -38.5t-81 -14q-17 0 -39.5 2.5t-42.5 8.5t-33.5 16t-13.5 25
q0 11 9.5 21t21.5 10q6 0 15 -3h-1q17 -10 35.5 -17t47.5 -7q65 0 97 33t40 93l12 85q-35 -20 -71 -31.5t-74 -11.5q-45 0 -73.5 13.5t-43.5 37.5t-18 57t2 71zM344 632q18 0 38.5 10.5t40.5 34.5q11 14 27 14q10 0 15.5 -6.5t-1.5 -22.5q-8 -19 -22.5 -33.5t-32 -24
t-36.5 -14.5t-35 -5t-34.5 5t-34.5 14.5t-27 24t-12 33.5q-1 14 8.5 21.5t17.5 7.5q15 0 22 -14q14 -24 30 -34.5t36 -10.5z" />
    <glyph glyph-name="uni045F" unicode="&#x45f;" horiz-adv-x="504" 
d="M272 -111q-2 -14 -12.5 -23t-23.5 -9q-14 0 -22.5 9t-6.5 23l16 112h-111q-14 0 -22 9t-6 23l62 448q2 14 13 23.5t25 9.5q13 0 20.5 -9.5t5.5 -23.5l-60 -427h224l60 427q2 14 13 23.5t25 9.5t21.5 -9.5t5.5 -23.5l-62 -448q-2 -14 -12.5 -23t-24.5 -9h-112l-16 -112v0z
" />
    <glyph glyph-name="uni0462" unicode="&#x462;" horiz-adv-x="644" 
d="M544 627q0 -14 -12 -24.5t-26 -10.5h-188l-24 -171h125q91 0 143.5 -46t52.5 -131q0 -44 -13.5 -87.5t-43.5 -78t-79 -56t-119 -21.5h-150q-17 0 -28 12t-8 29l77 550h-105q-14 0 -22 8t-8 19q0 14 12.5 25.5t26.5 11.5h105l11 78q2 13 13.5 23t25.5 10t22 -10t6 -23
l-11 -78h188q12 0 20.5 -8t8.5 -21zM369 65q58 0 93.5 17t54.5 43t25 56.5t6 56.5q0 119 -138 119h-125l-41 -292h125z" />
    <glyph glyph-name="uni0463" unicode="&#x463;" horiz-adv-x="582" 
d="M424 570q0 -14 -9.5 -23.5t-23.5 -9.5h-94l-27 -192h113q82 0 118.5 -36t36.5 -101q0 -45 -12 -82.5t-35.5 -65.5t-59 -43.5t-83.5 -15.5h-158q-14 0 -22.5 9t-6.5 23l71 504h-97q-12 0 -19.5 7.5t-7.5 18.5q0 14 10.5 24t25.5 10h97l13 99q2 14 13 23.5t25 9.5
q13 0 21 -9.5t6 -23.5l-13 -99h94q11 0 17.5 -8t6.5 -19zM263 293l-34 -238h124q60 0 90.5 37.5t30.5 108.5q0 18 -4.5 34.5t-15.5 29t-30 20.5t-48 8h-113z" />
    <glyph glyph-name="uni0490" unicode="&#x490;" horiz-adv-x="430" 
d="M173 668q2 15 14.5 27t29.5 12h243l14 100q2 14 13.5 24t25.5 10t21.5 -10t5.5 -24l-18 -133q-2 -13 -12.5 -22t-23.5 -9h-251l-86 -618q-2 -14 -12.5 -23.5t-24.5 -9.5t-22.5 9.5t-6.5 23.5l90 643v0z" />
    <glyph glyph-name="uni0491" unicode="&#x491;" horiz-adv-x="375" 
d="M394 613q2 14 13 23.5t25 9.5q13 0 21 -9.5t6 -23.5l-18 -132q-2 -13 -13 -22.5t-24 -9.5h-197l-59 -424q-2 -14 -13 -23t-24 -9q-14 0 -22 9t-6 23l63 452q2 13 11.5 21t22.5 8h199z" />
    <glyph glyph-name="Wgrave" unicode="&#x1e80;" horiz-adv-x="776" 
d="M114 0zM475 587q-23 -63 -49 -134t-53 -144t-53.5 -144t-48.5 -133q-7 -14 -19.5 -27.5t-33.5 -13.5q-19 0 -29 12t-13 29l-62 648l1 4q2 14 15 21t27 7q9 0 17 -6.5t10 -17.5l53 -578l202 552q10 25 21.5 39.5t32.5 14.5q20 0 27.5 -15t9.5 -39l50 -553l214 579
q5 11 13 17.5t17 6.5q13 0 25.5 -6t12.5 -20q0 -2 -0.5 -6t-2.5 -6v-1l-242 -641q-7 -16 -20.5 -28.5t-32.5 -12.5q-20 0 -30 13t-12 29zM570 825q3 -3 3 -8q0 -12 -9.5 -21t-20.5 -9q-8 0 -14 4t-12 12l-68 88q-3 4 -3 10q0 11 9.5 20t18.5 9q8 0 12.5 -4t10.5 -10z" />
    <glyph glyph-name="wgrave" unicode="&#x1e81;" horiz-adv-x="655" 
d="M95 0zM521 33q-8 -20 -18.5 -30t-30.5 -10q-13 0 -23.5 7.5t-12.5 21.5l-45 389q-17 -44 -36 -94t-39 -101t-40 -101t-39 -93q-13 -29 -45 -29q-17 0 -27 11t-12 29l-58 446v2q2 12 13 21.5t25 9.5q9 0 16.5 -6.5t9.5 -16.5l47 -403q45 107 82.5 204.5t73.5 190.5
q6 13 17 22t27 9q14 0 22 -9t10 -22q4 -37 8 -76t9.5 -85.5t13 -103.5t16.5 -130l158 403q4 10 14 16.5t20 6.5q13 0 20.5 -9.5t5.5 -23.5v-2zM482 625q3 -3 3 -8q0 -12 -9.5 -21t-20.5 -9q-8 0 -14 4t-12 12l-68 88q-3 4 -3 10q0 11 9.5 20t18.5 9q8 0 12.5 -4t10.5 -10z
" />
    <glyph glyph-name="Wacute" unicode="&#x1e82;" horiz-adv-x="776" 
d="M114 0zM475 587q-23 -63 -49 -134t-53 -144t-53.5 -144t-48.5 -133q-7 -14 -19.5 -27.5t-33.5 -13.5q-19 0 -29 12t-13 29l-62 648l1 4q2 14 15 21t27 7q9 0 17 -6.5t10 -17.5l53 -578l202 552q10 25 21.5 39.5t32.5 14.5q20 0 27.5 -15t9.5 -39l50 -553l214 579
q5 11 13 17.5t17 6.5q13 0 25.5 -6t12.5 -20q0 -2 -0.5 -6t-2.5 -6v-1l-242 -641q-7 -16 -20.5 -28.5t-32.5 -12.5q-20 0 -30 13t-12 29zM538 916q5 5 11 9.5t14 4.5q10 0 16 -7.5t6 -16.5q0 -10 -5 -15l-94 -87q-8 -8 -15 -12.5t-15 -4.5q-10 0 -16.5 7t-6.5 18
q0 5 1.5 7.5t4.5 5.5z" />
    <glyph glyph-name="wacute" unicode="&#x1e83;" horiz-adv-x="655" 
d="M95 0zM521 33q-8 -20 -18.5 -30t-30.5 -10q-13 0 -23.5 7.5t-12.5 21.5l-45 389q-17 -44 -36 -94t-39 -101t-40 -101t-39 -93q-13 -29 -45 -29q-17 0 -27 11t-12 29l-58 446v2q2 12 13 21.5t25 9.5q9 0 16.5 -6.5t9.5 -16.5l47 -403q45 107 82.5 204.5t73.5 190.5
q6 13 17 22t27 9q14 0 22 -9t10 -22q4 -37 8 -76t9.5 -85.5t13 -103.5t16.5 -130l158 403q4 10 14 16.5t20 6.5q13 0 20.5 -9.5t5.5 -23.5v-2zM450 716q5 5 11 9.5t14 4.5q10 0 16 -7.5t6 -16.5q0 -10 -5 -15l-94 -87q-8 -8 -15 -12.5t-15 -4.5q-10 0 -16.5 7t-6.5 18
q0 5 1.5 7.5t4.5 5.5z" />
    <glyph glyph-name="Wdieresis" unicode="&#x1e84;" horiz-adv-x="776" 
d="M114 0zM475 587q-23 -63 -49 -134t-53 -144t-53.5 -144t-48.5 -133q-7 -14 -19.5 -27.5t-33.5 -13.5q-19 0 -29 12t-13 29l-62 648l1 4q2 14 15 21t27 7q9 0 17 -6.5t10 -17.5l53 -578l202 552q10 25 21.5 39.5t32.5 14.5q20 0 27.5 -15t9.5 -39l50 -553l214 579
q5 11 13 17.5t17 6.5q13 0 25.5 -6t12.5 -20q0 -2 -0.5 -6t-2.5 -6v-1l-242 -641q-7 -16 -20.5 -28.5t-32.5 -12.5q-20 0 -30 13t-12 29zM635 851q0 -20 -14 -33.5t-32 -13.5q-15 0 -26 11t-11 26q0 18 15.5 32t33.5 14q15 0 24.5 -11t9.5 -25zM462 851q0 -20 -14 -33.5
t-33 -13.5q-15 0 -25 11t-10 26q0 17 14.5 31.5t32.5 14.5q16 0 25.5 -11t9.5 -25z" />
    </font>
</defs>
</svg>
